<svg xmlns="http://www.w3.org/2000/svg" viewBox="1061.995 1353 102.05 86">
  <defs>
    <style>
      .cls-1 {
        fill: #f15e23;
      }

      .cls-2, .cls-3, .cls-6, .cls-7 {
        fill: none;
      }

      .cls-2 {
        stroke: #f15e23;
      }

      .cls-3, .cls-4, .cls-6, .cls-7 {
        stroke: #333;
      }

      .cls-3, .cls-4 {
        stroke-linecap: square;
      }

      .cls-3, .cls-7 {
        fill-rule: evenodd;
      }

      .cls-4, .cls-5 {
        fill: #fff;
      }
    </style>
  </defs>
  <g id="Group_15" data-name="Group 15" transform="translate(-3654.56 386)">
    <g id="Training-Facility-Icon" transform="translate(4716 967)">
      <g id="Group-5" transform="translate(32)">
        <g id="Rectangle-11">
          <rect id="Rectangle_23" data-name="Rectangle 23" class="cls-1" width="40" height="19.286" rx="3"/>
          <rect id="Rectangle_24" data-name="Rectangle 24" class="cls-2" width="39" height="18.286" rx="3" transform="translate(0.5 0.5)"/>
        </g>
        <path id="Line" class="cls-3" d="M20,18.8v7.714"/>
        <g id="Group-12" transform="translate(6.829 4.821)">
          <rect id="Rectangle-13" class="cls-4" width="19.638" height="2.893" transform="translate(3.43 3.235)"/>
          <g id="Group-11" transform="translate(18.159)">
            <rect id="Rectangle-14" class="cls-4" width="2.927" height="9.705" rx="1.463"/>
            <rect id="Rectangle-14-2" data-name="Rectangle-14" class="cls-4" width="2.927" height="6.821" rx="1.463" transform="translate(2.927 1.442)"/>
            <rect id="Rectangle-14-3" data-name="Rectangle-14" class="cls-4" width="2.927" height="4.08" rx="1.463" transform="translate(5.854 2.812)"/>
          </g>
          <g id="Group-10">
            <rect id="Rectangle-14-Copy" class="cls-4" width="2.927" height="9.705" rx="1.463" transform="translate(6.231)"/>
            <rect id="Rectangle-14-Copy-2" class="cls-4" width="2.927" height="6.835" rx="1.463" transform="translate(3.304 1.435)"/>
            <rect id="Rectangle-14-Copy-3" class="cls-4" width="2.927" height="3.834" rx="1.463" transform="translate(0.378 2.935)"/>
          </g>
        </g>
      </g>
      <g id="Group" transform="translate(0 24)">
        <g id="Rectangle-9">
          <rect id="Rectangle_25" data-name="Rectangle 25" class="cls-5" width="97.251" height="62" rx="3" transform="translate(2.943)"/>
          <rect id="Rectangle_26" data-name="Rectangle 26" class="cls-6" width="96.251" height="61" rx="3" transform="translate(3.443 0.5)"/>
        </g>
        <g id="Rectangle-9-2" data-name="Rectangle-9">
          <path id="Path_13" data-name="Path 13" class="cls-5" d="M43.407,38.425a3,3,0,0,1,3.006-3h10.91a3,3,0,0,1,3.006,3V62H43.407Z"/>
          <path id="Path_14" data-name="Path 14" class="cls-7" d="M43.907,61.5H59.829V38.425a2.5,2.5,0,0,0-2.506-2.5H46.413a2.5,2.5,0,0,0-2.506,2.5Z"/>
        </g>
        <g id="Rectangle-6">
          <rect id="Rectangle_27" data-name="Rectangle 27" class="cls-5" width="15.45" height="9.595" rx="2" transform="translate(14.714 10.333)"/>
          <rect id="Rectangle_28" data-name="Rectangle 28" class="cls-6" width="14.45" height="8.595" rx="2" transform="translate(15.214 10.833)"/>
        </g>
        <g id="Rectangle-6-Copy-4">
          <rect id="Rectangle_29" data-name="Rectangle 29" class="cls-1" width="16.921" height="9.595" rx="2" transform="translate(43.407 10.333)"/>
          <rect id="Rectangle_30" data-name="Rectangle 30" class="cls-2" width="15.921" height="8.595" rx="2" transform="translate(43.907 10.833)"/>
        </g>
        <g id="Rectangle-6-Copy-3">
          <rect id="Rectangle_31" data-name="Rectangle 31" class="cls-5" width="15.45" height="9.595" rx="2" transform="translate(72.1 10.333)"/>
          <rect id="Rectangle_32" data-name="Rectangle 32" class="cls-6" width="14.45" height="8.595" rx="2" transform="translate(72.6 10.833)"/>
        </g>
        <g id="Rectangle-6-2" data-name="Rectangle-6">
          <rect id="Rectangle_33" data-name="Rectangle 33" class="cls-1" width="15.45" height="9.595" rx="2" transform="translate(14.714 36.167)"/>
          <rect id="Rectangle_34" data-name="Rectangle 34" class="cls-2" width="14.45" height="8.595" rx="2" transform="translate(15.214 36.667)"/>
        </g>
        <g id="Rectangle-6-Copy-3-2" data-name="Rectangle-6-Copy-3">
          <rect id="Rectangle_35" data-name="Rectangle 35" class="cls-1" width="15.45" height="9.595" rx="2" transform="translate(72.1 36.167)"/>
          <rect id="Rectangle_36" data-name="Rectangle 36" class="cls-2" width="14.45" height="8.595" rx="2" transform="translate(72.6 36.667)"/>
        </g>
        <path id="Line-Copy-5" class="cls-3" d="M3.278,29.155H99.859"/>
        <path id="Line-Copy-4" class="cls-3" d="M3.679,59.786H43.407"/>
        <path id="Line-Copy-6" class="cls-3" d="M60.329,59.786H99.321"/>
        <g id="Rectangle-12">
          <path id="Path_15" data-name="Path 15" class="cls-5" d="M.781,1.716A2.9,2.9,0,0,1,3.3,0H99.862a2.905,2.905,0,0,1,2.518,1.716l.1.259a1.173,1.173,0,0,1-1.174,1.716H1.854A1.171,1.171,0,0,1,.679,1.975Z"/>
          <path id="Path_16" data-name="Path 16" class="cls-7" d="M1.246,1.9l-.1.259c-.243.621.04,1.034.709,1.034h99.453c.664,0,.95-.416.708-1.034l-.1-.259A2.408,2.408,0,0,0,99.862.5H3.3A2.407,2.407,0,0,0,1.246,1.9Z"/>
        </g>
      </g>
    </g>
  </g>
</svg>
