<svg version="1.0" id="Layer_1" xmlns="http://www.w3.org/2000/svg" xmlns:xlink="http://www.w3.org/1999/xlink" x="0px" y="0px" viewBox="0 0 24 24" enable-background="new 0 0 24 24" xml:space="preserve">
<path fill="#F15F25" d="M22.242,10.158h-8.432v-8.43c0-0.971-0.786-1.759-1.757-1.759c-0.973,0-1.76,0.788-1.76,1.759v8.431H1.863
	c-0.971,0-1.759,0.787-1.759,1.758c0,0.971,0.788,1.758,1.759,1.758h8.431v8.432c0,0.971,0.787,1.759,1.76,1.759
	c0.971,0,1.757-0.788,1.757-1.759v-8.432h8.432c0.971,0,1.758-0.787,1.758-1.76C24,10.944,23.213,10.158,22.242,10.158z"/>
</svg>
