<svg class="cl-icon-atrhlete" xmlns="http://www.w3.org/2000/svg" viewBox="-1576.737 -1329 108.5 73.066">
  <defs>
    <style>
      .cl-icon-atrhlete-1 {
        fill: #f15e23;
        fill-rule: evenodd;
      }
    </style>
  </defs>
  <path data-name="Path 20" class="cl-icon-atrhlete-1" d="M39.4,71.91a5.81,5.81,0,0,1-3.843,1.3c-3.925-1.029-5.088-3.194-8.147-5.142-8.281-5.276-2.3-.92-7.659-6.143C13.559,55.888,3.517,56.755,0,54.13c.271-2.787.758-2.165,3.166-3.247,2.084-.947,2.409-1.6,4.574-2.057,2.95,1.869,3.275,3.464,7.2,5.386a41.5,41.5,0,0,0,9.31,3.221c-4.98-9.337-2.03-9.9-.027-19.757.271-1.326,7.307-15.236,8.281-16.941C14.261,14,26.522,21.546,5.494,9.584c-2.761-1.57-2.219-.7-3.653-6.251C1.461,1.871.65,4.2,1.624,1.195A4.1,4.1,0,0,1,6.82.978c1.516,1.326.407,3.3.407,5.6,5.06,2.354,11.582,3.328,15.56,4.79,1.678.622,3.329,1.759,5.061,2.219,3.68.947,9.688-.243,13.261.6,3.572.866,7.875,3.87,10.825,3.627,2.273-3.275,1.624-5.3,5.467-7.009,9.418-4.14,14.1,6.387,10.825,10.852-1.055,1.407-1.894,1.137-2.9,3.112-1.543,3.058.46,1.651-2.246,3,2.652,2.382,6.766,3.68,11.258,4.005,1.922-2.761,2.787-5.954,6.089-6.63,1.137,4.817-4.709,12.611-9.337,12.475-3.762-.108-15.02-7.253-15.886-7.117-1.245.677-2.273,2.084-3.816,3.329C49.9,35.051,48.767,36,47.306,37c-2.544,1.759-7.334,4.33-6.766,7.415,2.571.785,6.955.487,9.986,1.272l17.4,4.978c4.411,3.139,18.7,10.906,23.192,11.827,4.547.947,2.815.082,4.168-.487l4.763-1.326c4.926-1.082,8.254-5.548,8.444-.6.162,3.437-2.842,4.817-4.168,5.575-4.411,2.436-4.871,11.881-11.15,4.628-1.245-1.434-.189-.677-1.624-1.678-3.87-2.706-14.857-3.655-19.783-5.981-3.139-1.489-5.007-3.762-8.173-4.3-2.95-.541-7.794.65-11.015.893-4.6.325-8.606-.082-13.125,0A40.75,40.75,0,0,1,39.4,71.91Z" transform="translate(-1576.737 -1329.143)"/>
</svg>
