<svg xmlns="http://www.w3.org/2000/svg" viewBox="-1476 701 26 26">
  <defs>
    <style>
      .cls-1 {
        fill: #fff;
      }
    </style>
  </defs>
  <path id="Union_2" data-name="Union 2" class="cls-1" d="M19.381,25.049h-.017a3.251,3.251,0,0,1,0-4.595,3.249,3.249,0,0,1,4.594,4.595,3.23,3.23,0,0,1-4.577,0ZM20.9,21.986a1.063,1.063,0,0,0-.317.757,1.082,1.082,0,0,0,1.092,1.091,1.064,1.064,0,0,0,.757-.317h.018a1.173,1.173,0,0,0,.3-.775,1.127,1.127,0,0,0-.3-.757h-.018a1.062,1.062,0,0,0-.757-.317A1.1,1.1,0,0,0,20.9,21.986ZM6.372,25.049a3.232,3.232,0,0,1-.951-2.306,3.28,3.28,0,0,1,.933-2.289h.017a3.23,3.23,0,0,1,4.577,0h.017a3.249,3.249,0,0,1-4.594,4.595Zm1.214-2.306a1.092,1.092,0,0,0,.3.775H7.9a1.064,1.064,0,0,0,.757.317,1.082,1.082,0,0,0,1.092-1.091,1.064,1.064,0,0,0-.317-.757,1.106,1.106,0,0,0-.775-.317,1.062,1.062,0,0,0-.757.317H7.886A1.05,1.05,0,0,0,7.587,22.743Zm1.866-4.331a3.171,3.171,0,0,1-2.13-.809,3.207,3.207,0,0,1-1.091-2.025L4.594,3.1a1.107,1.107,0,0,0-.369-.669L4.19,2.394a1.137,1.137,0,0,0-.669-.229H1.074A1.082,1.082,0,0,1,0,1.074,1.067,1.067,0,0,1,1.074,0H3.521A3.273,3.273,0,0,1,5.58.739L5.668.81A3.269,3.269,0,0,1,6.742,2.834l.334,2.588H24.908A1.082,1.082,0,0,1,26,6.5a1.048,1.048,0,0,1-.035.247l-1.813,9.118a3.232,3.232,0,0,1-1.127,1.813,3.271,3.271,0,0,1-2.06.739C17.163,18.343,13.273,18.413,9.453,18.413Zm11.512-2.165A1.024,1.024,0,0,0,21.652,16a.972.972,0,0,0,.37-.6l1.567-7.816H7.358l1.021,7.728a1.108,1.108,0,0,0,.37.669,1.085,1.085,0,0,0,.7.264c2.558,0,5.125-.016,7.683-.016Q19.055,16.232,20.965,16.248Z" transform="translate(-1476 701)"/>
</svg>
