<svg class="cl-icon-gold" xmlns="http://www.w3.org/2000/svg" viewBox="-1336 -1246 140.884 29.938">
  <defs>
    <style>
      .cl-icon-gold-1 {
        fill: #feaf21;
      }
      .cl-icon-gold-1, .cl-icon-gold-2, .cl-icon-gold-3 {
        fill-rule: evenodd;
      }
      .cl-icon-gold-2, .cl-icon-gold-4 {
        fill: #fff;
      }
      .cl-icon-gold-3 {
        fill: #febc47;
      }
    </style>
  </defs>
  <g transform="translate(-1512 -2348)">
    <g data-name="Group 1045" transform="translate(3)">
      <path data-name="Path 133" class="cl-icon-gold-1" d="M140.881,22.88V7.91A6.961,6.961,0,0,1,134.022.855,7.752,7.752,0,0,1,134.106,0H6.881A7.055,7.055,0,0,1,0,7.046V22.89a7.054,7.054,0,0,1,6.881,7.047H134.022a6.96,6.96,0,0,1,6.859-7.056" transform="translate(173 1102.001)"/>
      <path data-name="Path 134" class="cl-icon-gold-2" d="M12,14.5A2.5,2.5,0,1,1,9.5,12,2.5,2.5,0,0,1,12,14.5" transform="translate(173 1102)"/>
      <path data-name="Path 135" class="cl-icon-gold-3" d="M134.027.857A7.559,7.559,0,0,1,134.111,0H82L63.21,29.936h70.817a6.96,6.96,0,0,1,6.857-7.057V7.911A6.957,6.957,0,0,1,134.027.857" transform="translate(173 1102)"/>
      <path data-name="Path 136" class="cl-icon-gold-2" d="M135,14.5a2.5,2.5,0,1,1-2.5-2.429A2.5,2.5,0,0,1,135,14.5" transform="translate(173 1102.929)"/>
    </g>
    <path data-name="Path 143" class="cl-icon-gold-4" d="M-21.914-2.407a5.477,5.477,0,0,1-.773-2.917,5.509,5.509,0,0,1,.773-2.923,5.145,5.145,0,0,1,2.063-1.937,6.132,6.132,0,0,1,2.859-.667,5.736,5.736,0,0,1,1.5.19,4.447,4.447,0,0,1,1.238.531,5.5,5.5,0,0,1,.941.747,5.18,5.18,0,0,1,.719.9L-14.469-7.45a3.239,3.239,0,0,0-1.062-1,2.79,2.79,0,0,0-1.461-.4,3.179,3.179,0,0,0-2.41,1,3.525,3.525,0,0,0-.949,2.527A3.511,3.511,0,0,0-19.4-2.8a3.186,3.186,0,0,0,2.41,1,3.4,3.4,0,0,0,1.277-.246,3.2,3.2,0,0,0,.973-.574V-3.906h-2.812v-2h5.086v4.117A5.812,5.812,0,0,1-16.992.2a6.112,6.112,0,0,1-2.859-.669A5.177,5.177,0,0,1-21.914-2.407Zm12.16-.7a5.863,5.863,0,0,1-.418-2.225,5.849,5.849,0,0,1,.418-2.223A5.114,5.114,0,0,1-8.6-9.3a5.282,5.282,0,0,1,1.773-1.134,5.992,5.992,0,0,1,2.234-.413,5.825,5.825,0,0,1,2.863.7A5.063,5.063,0,0,1,.258-8.188,5.667,5.667,0,0,1,.977-5.332,5.681,5.681,0,0,1,.258-2.473,5.068,5.068,0,0,1-1.73-.507,5.815,5.815,0,0,1-4.594.2,5.983,5.983,0,0,1-6.828-.219,5.281,5.281,0,0,1-8.6-1.354,5.123,5.123,0,0,1-9.754-3.107Zm1.918-2.225a3.66,3.66,0,0,0,.891,2.526,2.994,2.994,0,0,0,2.352,1,2.985,2.985,0,0,0,2.344-1,3.66,3.66,0,0,0,.891-2.526A3.642,3.642,0,0,0-2.25-7.858a3,3,0,0,0-2.344-.994,3,3,0,0,0-2.355.994A3.652,3.652,0,0,0-7.836-5.332ZM3.477,0V-10.672H5.75V-2h4.523V0ZM12.8,0V-10.672h4.2A5.74,5.74,0,0,1,21.092-9.2a5.036,5.036,0,0,1,1.572,3.859,5.462,5.462,0,0,1-.714,2.813A4.8,4.8,0,0,1,19.957-.656,6.336,6.336,0,0,1,17.025,0Zm2.273-2h1.938a3.443,3.443,0,0,0,1.8-.461,2.993,2.993,0,0,0,1.16-1.211,3.594,3.594,0,0,0,.387-1.672,3.361,3.361,0,0,0-.875-2.395,3.2,3.2,0,0,0-2.453-.934H15.078Z" transform="translate(246 1121.852)"/>
  </g>
</svg>
