<svg xmlns="http://www.w3.org/2000/svg" viewBox="-17153.498 -1598.5 47.332 47.332">
  <defs>
    <style>
      .cls-1 {
        fill: #fcdfd3;
      }

      .cls-2 {
        fill: none;
        stroke: #95989a;
        stroke-linecap: round;
        stroke-miterlimit: 10;
      }

      .cls-3 {
        fill: #95989a;
      }
    </style>
  </defs>
  <g id="Group_1880" data-name="Group 1880" transform="translate(-17949 -2455)">
    <circle id="Ellipse_170" data-name="Ellipse 170" class="cls-1" cx="13.864" cy="13.864" r="13.864" transform="translate(805.132 866.132)"/>
    <g id="Group_1879" data-name="Group 1879" transform="translate(796 857)">
      <path id="Path_164" data-name="Path 164" class="cls-2" d="M55.326,70.166A23.171,23.171,0,0,1,30.968,33.251" transform="translate(-25.751 -24.732)"/>
      <path id="Path_165" data-name="Path 165" class="cls-2" d="M34.535,29.77A23.168,23.168,0,1,1,59.221,68.738" transform="translate(-25.557 -24.916)"/>
    </g>
    <path id="Path_166" data-name="Path 166" class="cls-3" d="M48.489,40.22a.785.785,0,0,1,.792.791v.4a6.7,6.7,0,0,1,2.853,1.012.986.986,0,0,1,.551.883,1.013,1.013,0,0,1-1.03,1.013,1.062,1.062,0,0,1-.551-.166,6.713,6.713,0,0,0-1.9-.809v3.533c2.8.7,3.992,1.822,3.992,3.791,0,2.024-1.581,3.368-3.919,3.588v1.1a.785.785,0,0,1-.792.791.8.8,0,0,1-.808-.791V54.224a7.96,7.96,0,0,1-3.772-1.435,1.009,1.009,0,0,1-.5-.883A1.012,1.012,0,0,1,45.03,51.1a6.563,6.563,0,0,0,2.725,1.233V48.7c-2.687-.7-3.939-1.712-3.939-3.791,0-1.97,1.563-3.331,3.864-3.515v-.386A.8.8,0,0,1,48.489,40.22ZM47.754,46.5V43.238c-1.177.11-1.767.736-1.767,1.545C45.988,45.556,46.336,46.036,47.754,46.5Zm1.453,2.557V52.4c1.177-.129,1.822-.717,1.822-1.6C51.029,49.992,50.625,49.5,49.207,49.053Z" transform="translate(770.988 832.111)"/>
  </g>
</svg>
