<svg xmlns="http://www.w3.org/2000/svg" viewBox="-17841.5 -93.5 47 47">
  <defs>
    <style>
      .cls-1 {
        fill: #fcdfd3;
      }

      .cls-1, .cls-2, .cls-4 {
        stroke: #979797;
      }

      .cls-2 {
        fill: #fcfcfc;
      }

      .cls-3 {
        fill: #979797;
      }

      .cls-3, .cls-4 {
        fill-rule: evenodd;
      }

      .cls-4 {
        fill: none;
        stroke-linecap: square;
      }
    </style>
  </defs>
  <g id="Group_866" data-name="Group 866" transform="translate(-19947.5 -6470)">
    <circle id="Ellipse_32" data-name="Ellipse 32" class="cls-1" cx="23" cy="23" r="23" transform="translate(2106.5 6377)"/>
    <g id="Group_111" data-name="Group 111" transform="translate(2113.911 6386.556)">
      <path id="Intersection_1" data-name="Intersection 1" class="cls-2" d="M0,30.285c.333-1.857.918-3.837,1.947-4.881,1.908-1.935,6.406-3.181,10.264-3.653a11.786,11.786,0,0,0,.352-1.768,9.418,9.418,0,0,0-.286-1.511c-3.1-1.351-6.268-4.811-6.268-8.877a8.933,8.933,0,0,1,.2-1.889c.1-2.542,1.421-3.719,2.861-5.443.054-.074.069.037.086.149a.359.359,0,0,0,.048.166q.119-.109.24-.213c.134-.134.273-.261.414-.386.035-.031.069-.064.1-.093.178-.152.362-.293.55-.429.032-.023.063-.048.1-.07.2-.137.4-.262.6-.38l.08-.047q.319-.178.653-.325L12,.609a6.986,6.986,0,0,1,.7-.262,7.18,7.18,0,0,1,.787-.2A7.319,7.319,0,0,1,14.3.035C14.49.02,14.676,0,14.866,0a9.032,9.032,0,0,1,8.853,6.4A9.03,9.03,0,0,1,24.307,9.6c0,4.068-3.168,7.53-6.274,8.88a8.663,8.663,0,0,0-.308,1.508,9.734,9.734,0,0,0,.347,1.652c3.981.339,9.491,1.563,11.248,3.769a12.535,12.535,0,0,1,1.836,5.041A23,23,0,0,1,0,30.285Z" transform="translate(0 0)"/>
      <path id="Fill-7" class="cls-3" d="M17.832.669c-.033,2.68-1.389,3.872-2.866,5.641-.106.145-.06-.433-.184-.3-.034.036-.067.076-.1.111-.161.167-.33.323-.5.475-.035.031-.069.064-.1.093-.178.152-.362.294-.55.429-.031.023-.063.048-.1.07-.2.137-.4.262-.6.38l-.08.047q-.319.178-.652.325l-.06.026a7.1,7.1,0,0,1-.7.262,7.131,7.131,0,0,1-.787.2,7.191,7.191,0,0,1-.808.111c-.189.015-.375.035-.565.035C4.624,8.573.152,5.358,0,0L4.773,4.8Z" transform="translate(24.221 8.573) rotate(180)"/>
      <path id="Path-8" class="cls-4" d="M19.667,44.054s-1.753,5.05,5.279,5.05,5.7-5.05,5.7-5.05" transform="translate(-9.762 -21.893)"/>
    </g>
  </g>
</svg>
