<svg xmlns="http://www.w3.org/2000/svg" viewBox="0 0 28.413 26.741">
  <defs>
    <style>
      .cls-1 {
        fill: none;
        stroke: #4d4d4d;
        stroke-width: 2.5px;
      }
    </style>
  </defs>
  <g id="Group_4404" data-name="Group 4404" transform="translate(-3390.75 13747.25)">
    <rect id="Rectangle_2716" data-name="Rectangle 2716" class="cls-1" width="25.913" height="24.241" rx="4" transform="translate(3392 -13746)"/>
    <path id="Path_296" data-name="Path 296" class="cls-1" d="M22.569,21.375H3.343A3.347,3.347,0,0,1,0,18.031V11.343A3.347,3.347,0,0,1,3.343,8H8.359V9.672A3.347,3.347,0,0,0,11.7,13.015H14.21a3.347,3.347,0,0,0,3.343-3.343V8h5.016a3.347,3.347,0,0,1,3.343,3.343v6.687A3.347,3.347,0,0,1,22.569,21.375Z" transform="translate(3392 -13743.134)"/>
  </g>
</svg>
