<svg xmlns="http://www.w3.org/2000/svg" viewBox="-7265 -850 51 39.453">
  <defs>
    <style>
      .cls-1 {
        fill: #dfdfdf;
        fill-rule: evenodd;
      }
    </style>
  </defs>
  <path id="_-copy" data-name="“-copy" class="cls-1" d="M14.159,5.453C5.636-.458,0-9.668,0-19.978,0-28.914,5.774-34,12.235-34a10.973,10.973,0,0,1,10.86,10.86c0,5.911-4.124,9.9-9.348,9.9A6.759,6.759,0,0,1,11-13.655C12.235-8.706,17.321-2.933,21.72-.6Zm27.906,0C33.542-.458,28.043-9.668,28.043-19.978,28.043-28.914,33.679-34,40.14-34A10.883,10.883,0,0,1,51-23.14c0,5.911-4.124,9.9-9.21,9.9a6.759,6.759,0,0,1-2.749-.413C40.14-8.706,45.364-2.933,49.763-.6Z" transform="translate(-7265 -816)"/>
</svg>
