<svg xmlns="http://www.w3.org/2000/svg" viewBox="-2489.508 -2189 180.381 66">
  <defs>
    <style>
      .cls-1 {
        fill: #fcdfd3;
      }
      .cls-1, .cls-3, .cls-4 {
        stroke: #979797;
        fill-rule: evenodd;
      }
      .cls-1, .cls-4 {
        stroke-linecap: round;
        stroke-linejoin: round;
      }
      .cls-2, .cls-4 {
        fill: #fff;
      }
      .cls-3 {
        fill: none;
      }
    </style>
  </defs>
  <g data-name="Group 1039" transform="translate(-3149 -2386)">
    <g transform="translate(659.965 197)">
      <path class="cls-1" d="M2.392,16H53.214a2.357,2.357,0,0,1,2.1,3.431l-5.32,10.392h0A2.358,2.358,0,0,0,50,31.993l5.255,10.02h0a2.357,2.357,0,0,1-2.087,3.452H2.454A2.357,2.357,0,0,1,.369,42.008l5.241-9.94h0A2.357,2.357,0,0,0,5.625,29.9L.292,19.427h0A2.357,2.357,0,0,1,2.392,16Z" transform="translate(0 2.857)"/>
      <path data-name="Rectangle-5" class="cls-1" d="M107.392,16h50.822a2.357,2.357,0,0,1,2.1,3.431l-5.32,10.392h0A2.357,2.357,0,0,0,155,31.993l5.255,10.02h0a2.357,2.357,0,0,1-2.087,3.452H107.454a2.357,2.357,0,0,1-2.085-3.457l5.241-9.94h0a2.358,2.358,0,0,0,.015-2.169l-5.333-10.471h0a2.357,2.357,0,0,1,2.1-3.427Z" transform="translate(18.75 2.857)"/>
      <g data-name="Rectangle-5" transform="translate(24.744 0)">
        <path data-name="Path 112" class="cls-2" d="M25.715,0h119.9a4.714,4.714,0,0,1,4.166,6.92L135.762,33.4l13.9,25.638h0A4.714,4.714,0,0,1,145.521,66H25.844A4.714,4.714,0,0,1,21.7,59.029L35.583,33.57,21.544,6.911h0A4.714,4.714,0,0,1,25.715,0Z" transform="translate(-21 0)"/>
        <path data-name="Path 113" class="cls-3" d="M25.626.5a4.125,4.125,0,0,0-3.65,6.047L36.162,33.486,22.133,59.222a4.125,4.125,0,0,0,3.622,6.1H145.431a4.125,4.125,0,0,0,3.626-6.091L135,33.315l14.164-26.76A4.124,4.124,0,0,0,145.522.5Z" transform="translate(-20.911 0.089)"/>
      </g>
      <g data-name="Rectangle-5" transform="translate(27.462 2.652)">
        <path data-name="Path 114" class="cls-2" d="M25.664,2.25H144.846a2.358,2.358,0,0,1,2.084,3.46L132.5,32.967l14.37,26.5h0a2.357,2.357,0,0,1-2.072,3.481H25.729a2.357,2.357,0,0,1-2.07-3.485L38.017,33.123,23.579,5.705h0A2.357,2.357,0,0,1,25.664,2.25Z" transform="translate(-23.307 -2.25)"/>
        <path data-name="Path 115" class="cls-3" d="M25.575,2.75a1.768,1.768,0,0,0-1.564,2.592L38.6,33.038,24.087,59.654a1.768,1.768,0,0,0,1.552,2.614H144.712a1.767,1.767,0,0,0,1.553-2.611l-14.52-26.776L146.32,5.345a1.768,1.768,0,0,0-1.563-2.595Z" transform="translate(-23.217 -2.161)"/>
      </g>
      <path class="cls-4" d="M19.019,33.607l-4.156,2.185.794-4.628-3.363-3.278,4.647-.675L19.019,23,21.1,27.211l4.647.675-3.363,3.278.794,4.628Z" transform="translate(2.189 4.107)"/>
      <path class="cls-4" d="M135.019,33.607l-4.157,2.185.794-4.628-3.362-3.278,4.647-.675L135.019,23l2.078,4.211,4.647.675-3.362,3.278.794,4.628Z" transform="translate(22.903 4.107)"/>
    </g>
  </g>
</svg>
