<svg xmlns="http://www.w3.org/2000/svg" xmlns:xlink="http://www.w3.org/1999/xlink" width="30" height="30" viewBox="0 0 30 30">
    <defs>
        <path id="a" d="M8.3 2a6.308 6.308 0 0 1 6.303 6.301A6.309 6.309 0 0 1 8.3 14.602 6.308 6.308 0 0 1 2 8.301 6.307 6.307 0 0 1 8.3 2m0 14.602c2.179 0 4.157-.85 5.64-2.226 1.497 1.223 4.72 3.853 5.082 4.124a.997.997 0 0 0 1.399-.2 1 1 0 0 0-.2-1.4c-.276-.208-2.908-2.351-4.985-4.048a8.246 8.246 0 0 0 1.367-4.551C16.603 3.724 12.878 0 8.3 0S0 3.724 0 8.301s3.724 8.301 8.3 8.301"/>
    </defs>
    <g fill="none" fill-rule="evenodd">
        <g transform="translate(5 5)">
            <mask id="b" fill="#fff">
                <use xlink:href="#a"/>
            </mask>
            <use fill="#989898" xlink:href="#a"/>
            <g fill="#999" mask="url(#b)">
                <path d="M-5-5h30v30H-5z"/>
            </g>
        </g>
        <path d="M0 0h30v30H0z"/>
    </g>
</svg>
