<svg class="cl-icon-session" xmlns="http://www.w3.org/2000/svg" viewBox="-14726 -781 39.532 38.188">
  <defs>
    <style>
      .cl-icon-session-1 {
        fill: #42b7db;
        fill-rule: evenodd;
      }
    </style>
  </defs>
  <path data-name="Path 102" class="cl-icon-session-1" d="M15.614,31.287a22.213,22.213,0,0,1-5.088-.76v1.111a19.819,19.819,0,0,0,.117,4.211c.877.117,2.924.175,4.971.175,2.105,0,4.152-.058,5.029-.175a19.819,19.819,0,0,0,.117-4.211V30.527A23.08,23.08,0,0,1,15.614,31.287ZM23.041,9.123a2.331,2.331,0,0,1-.76-1.287V7.661a1.361,1.361,0,0,1,.409-.76,1.124,1.124,0,0,1,.7-.234h.175a2.425,2.425,0,0,1,1.287.877c.585.7,1.228,1.7,1.462,2.047a18.213,18.213,0,0,1,1.345,3.977,6.779,6.779,0,0,1,.175,1.813c0,.643-.175,1.111-.643,1.287a.742.742,0,0,1-.351.058c-1.228,0-1.287-.76-1.4-1.871a2.847,2.847,0,0,0-.058-.7,6.556,6.556,0,0,0-.234-1.228,6.235,6.235,0,0,0-.409-1.111,8.048,8.048,0,0,0-.468-.994c-.175-.292-.351-.526-.585-.936A7.408,7.408,0,0,0,23.041,9.123Zm-8.129,5.029a1.512,1.512,0,0,0-.936,1.462,1.458,1.458,0,0,0,.936,1.462,1.483,1.483,0,0,0,.7.117,1.483,1.483,0,0,0,.7-.117,1.458,1.458,0,0,0,.936-1.462,1.512,1.512,0,0,0-.936-1.462,2.935,2.935,0,0,0-.7-.117A2.935,2.935,0,0,0,14.912,14.152Zm-3.158,1.988V15.088a3.517,3.517,0,0,1,1.111-2.222,3.517,3.517,0,0,1,2.222-1.111h1.053a3.65,3.65,0,0,1,2.281,1.111,3.517,3.517,0,0,1,1.111,2.222v1.053a3.891,3.891,0,0,1-3.392,3.392H15.088a3.517,3.517,0,0,1-2.222-1.111A3.65,3.65,0,0,1,11.755,16.141Zm-8.48-5.556a13.835,13.835,0,0,0-1.053,5.029A13.435,13.435,0,0,0,6.2,25.03a11.312,11.312,0,0,0,1.813,1.579,14.955,14.955,0,0,0,2.164,1.17,12.81,12.81,0,0,0,7.778.994A13.485,13.485,0,0,0,25.03,25.03a11.313,11.313,0,0,0,1.579-1.813,11.733,11.733,0,0,0,1.17-2.105,12.525,12.525,0,0,0-.117-11.287A14.129,14.129,0,0,0,23.217,4.8,12.908,12.908,0,0,0,6.14,6.316,13.372,13.372,0,0,0,3.275,10.585Zm31.7-1.228a1.458,1.458,0,0,0-.936,1.462,1.38,1.38,0,0,0,.936,1.4,1.491,1.491,0,0,0,1.4,0,1.38,1.38,0,0,0,.936-1.4,1.458,1.458,0,0,0-.936-1.462,2.164,2.164,0,0,0-1.4,0ZM1.17,21.813A17.8,17.8,0,0,1,0,14.8a11.35,11.35,0,0,1,.468-3.275A16.109,16.109,0,0,1,1.52,8.831,15.188,15.188,0,0,1,4.62,4.5,17.288,17.288,0,0,1,8.947,1.462,11.834,11.834,0,0,1,12.632.234,19.532,19.532,0,0,1,16.491,0a13.674,13.674,0,0,1,7.6,2.456,17.328,17.328,0,0,1,5.673,6.491,14.8,14.8,0,0,1,1.462,7.895,15.773,15.773,0,0,1-2.749,7.719,16.761,16.761,0,0,1-3.041,3.275,7.874,7.874,0,0,1-2.456,1.579v2.222a14.3,14.3,0,0,0,4.678-2.924,20.83,20.83,0,0,0,4.62-5.556,3.493,3.493,0,0,0,.351-.643c.058-.175.175-.409.234-.643a20.038,20.038,0,0,0,1.228-3.743,17.5,17.5,0,0,0,.468-3.567A3.436,3.436,0,0,1,32.4,12.983a5.073,5.073,0,0,1-.585-2.69,3.517,3.517,0,0,1,1.111-2.281A3.387,3.387,0,0,1,35.147,6.9H36.2a3.387,3.387,0,0,1,2.222,1.111,3.517,3.517,0,0,1,1.111,2.281c0,2.924-.819,3.333-2.69,4.211h-.058a21.616,21.616,0,0,1-2.222,9.357,21.016,21.016,0,0,1-6.316,7.427,27.684,27.684,0,0,1-3.041,1.871,9.022,9.022,0,0,1-2.222.936v.292a7.327,7.327,0,0,1-.175,2.339,2.5,2.5,0,0,1-.877,1.053,2.4,2.4,0,0,1-1.287.409h-10a2.742,2.742,0,0,1-1.228-.351,2.362,2.362,0,0,1-.877-.994c-.351-.76-.292-4.62-.234-6.667v-.76a5.678,5.678,0,0,1-1.287-.7A10.927,10.927,0,0,1,5.2,27.31,16.762,16.762,0,0,1,1.17,21.813Z" transform="translate(-14726 -781)"/>
</svg>
