<svg class="cl-icon-silver" xmlns="http://www.w3.org/2000/svg" viewBox="-1589 -1246 140.884 29.938">
  <defs>
    <style>
      .cl-icon-silver-1 {
        fill: #93a2ad;
      }
      .cl-icon-silver-1, .cl-icon-silver-2, .cl-icon-silver-3 {
        fill-rule: evenodd;
      }
      .cl-icon-silver-2, .cl-icon-silver-4 {
        fill: #fff;
      }
      .cl-icon-silver-3 {
        fill: #a3b4bf;
      }
    </style>
  </defs>
  <g transform="translate(-1765 -2412)">
    <g data-name="Group 1049">
      <path data-name="Path 137" class="cl-icon-silver-1" d="M140.881,22.88V7.91A6.961,6.961,0,0,1,134.022.855,7.752,7.752,0,0,1,134.106,0H6.881A7.055,7.055,0,0,1,0,7.046V22.89a7.054,7.054,0,0,1,6.881,7.047H134.022a6.96,6.96,0,0,1,6.859-7.056" transform="translate(176 1166.001)"/>
      <path data-name="Path 138" class="cl-icon-silver-2" d="M12,14.5A2.5,2.5,0,1,1,9.5,12,2.5,2.5,0,0,1,12,14.5" transform="translate(176 1166)"/>
      <path data-name="Path 139" class="cl-icon-silver-3" d="M134.027.857A7.559,7.559,0,0,1,134.111,0H82L63.21,29.936h70.817a6.96,6.96,0,0,1,6.857-7.057V7.911A6.957,6.957,0,0,1,134.027.857" transform="translate(176 1166)"/>
      <path data-name="Path 140" class="cl-icon-silver-2" d="M135,14.5a2.5,2.5,0,1,1-2.5-2.429A2.5,2.5,0,0,1,135,14.5" transform="translate(176 1166.929)"/>
    </g>
    <path data-name="Path 144" class="cl-icon-silver-4" d="M-27.836-1.495l1.25-1.777A4.871,4.871,0,0,0-25.1-2.213a4.428,4.428,0,0,0,1.9.408,2.335,2.335,0,0,0,1.375-.343A1.022,1.022,0,0,0-21.344-3a.746.746,0,0,0-.265-.571,1.7,1.7,0,0,0-.7-.36l-.981-.272q-.549-.152-1.127-.282a5.909,5.909,0,0,1-1.129-.376,5.016,5.016,0,0,1-.98-.572,2.349,2.349,0,0,1-.7-.882A2.931,2.931,0,0,1-27.484-7.6a2.893,2.893,0,0,1,1.105-2.3,4.417,4.417,0,0,1,2.941-.931,5.878,5.878,0,0,1,4.15,1.473l-1.257,1.7a4.256,4.256,0,0,0-1.443-.875,4.813,4.813,0,0,0-1.653-.294,1.892,1.892,0,0,0-1.109.283.888.888,0,0,0-.4.763.645.645,0,0,0,.264.511,1.871,1.871,0,0,0,.7.337q.437.12.99.256l1.121.277A5.911,5.911,0,0,1-20.96-6a5.1,5.1,0,0,1,.974.595,2.387,2.387,0,0,1,.688.9,3.041,3.041,0,0,1,.259,1.284A3.116,3.116,0,0,1-20.133-.751,4.687,4.687,0,0,1-23.289.2,6.172,6.172,0,0,1-27.836-1.495ZM-16.508,0V-10.672h2.273V0Zm5.289,0V-10.672h2.273V-2h4.523V0Zm6.773-10.672h2.578l2.953,8.2,2.961-8.2H6.625L2.516,0H-.336ZM8.609,0V-10.672h7.555v2H10.883V-6.43h5.164v2H10.883V-2h5.281V0ZM18.93,0V-10.672h4.992a3.583,3.583,0,0,1,2.621.961,3.316,3.316,0,0,1,.98,2.477,3.677,3.677,0,0,1-.2,1.242,2.782,2.782,0,0,1-.547.949,3.413,3.413,0,0,1-.746.625,2.962,2.962,0,0,1-.855.355L27.586,0H24.961L22.867-3.789H21.2V0ZM21.2-5.789h2.4a1.66,1.66,0,0,0,1.137-.395,1.347,1.347,0,0,0,.449-1.066,1.3,1.3,0,0,0-.449-1.035A1.68,1.68,0,0,0,23.6-8.672H21.2Z" transform="translate(246 1185.828)"/>
  </g>
</svg>
