<svg class="cl-icon-ssp-invite" xmlns="http://www.w3.org/2000/svg" viewBox="-6350.539 -3214 60.928 78.678">
  <defs>
    <style>
      .cl-icon-ssp-invite-1 {
        fill: #999;
      }
      .cl-icon-ssp-invite-1, .cl-icon-ssp-invite-2 {
        fill-rule: evenodd;
      }
      .cl-icon-ssp-invite-2, .cl-icon-ssp-invite-4 {
        fill: none;
      }
      .cl-icon-ssp-invite-2, .cl-icon-ssp-invite-3 {
        stroke: #999;
      }
      .cl-icon-ssp-invite-2 {
        stroke-linecap: square;
      }
      .cl-icon-ssp-invite-3 {
        fill: #fcdfd3;
      }
      .cl-icon-ssp-invite-3, .cl-icon-ssp-invite-4 {
        stroke-width: 2px;
      }
      .cl-icon-ssp-invite-4 {
        stroke: #95989a;
      }
    </style>
  </defs>
  <g data-name="Group 2263" transform="translate(-6350 -3214)">
    <path class="cl-icon-ssp-invite-1" d="M5.988,16.639s1.6-7.167,6.554-11.9S25.219,0,25.219,0s5.08,4.2,6.539,8.709a65.846,65.846,0,0,1,2.173,9.675l-28,.086Z" transform="translate(-0.116 0)"/>
    <path class="cl-icon-ssp-invite-1" d="M28.686,0S33.5,5.424,34.451,7.956a58.743,58.743,0,0,1,1.8,8.514,46.523,46.523,0,0,1,4.539-4.579,20.171,20.171,0,0,1,3.288-1.4s-.959-4.877-4.393-7.135S28.686,0,28.686,0Z" transform="translate(-0.561 0)"/>
    <path class="cl-icon-ssp-invite-1" d="M38.578,17.973a28.081,28.081,0,0,1,4.374-3.882,39.18,39.18,0,0,1,4.065-2.342l13.373.374a2.1,2.1,0,0,1,.459,2.739c-.87,1.8-.989,3.06-2.3,3.06S38.578,17.973,38.578,17.973Z" transform="translate(-0.754 -0.23)"/>
    <path class="cl-icon-ssp-invite-2" d="M6.407,19.337S4.426,25.265,5.077,30s2.408,7.132,3.008,9.843a42.351,42.351,0,0,1,.725,4.985c.055.608,20.4,6.3,20.4,6.3s-1.119-4.256-.1-5.583,8.047-.9,9.586-1.743a10.2,10.2,0,0,0,4.438-4.79c1.767-3.912,1.986-9.223,2.325-11.318a46.89,46.89,0,0,0,.03-9.087" transform="translate(-0.097 -0.364)"/>
    <path class="cl-icon-ssp-invite-2" d="M5.971,50.91a27.352,27.352,0,0,0-3.9,6.138C1.042,59.77,0,66.835,0,66.835s9.041,6.7,19.278,8.044,24.374-3.162,24.374-3.162-3.814-6.144-6.183-9.653a46.363,46.363,0,0,0-6.838-7.35Z" transform="translate(0 -0.995)"/>
    <path class="cl-icon-ssp-invite-1" d="M8.765,45.857l-2.49,4.755s23.475,7.666,26.994,7.865-4.01-6.561-4.01-6.561Z" transform="translate(-0.123 -0.896)"/>
    <ellipse data-name="Ellipse 13" class="cl-icon-ssp-invite-3" cx="15.517" cy="15.358" rx="15.517" ry="15.358" transform="translate(21.699 46.961)"/>
    <g data-name="Group 2262" transform="translate(30.013 55.43)">
      <line data-name="Line 185" class="cl-icon-ssp-invite-4" x2="14.781" transform="translate(0 7.391)"/>
      <line data-name="Line 186" class="cl-icon-ssp-invite-4" y2="14.781" transform="translate(7.391)"/>
    </g>
  </g>
</svg>
