<svg class="cl-icon-ssp-fitness-business" xmlns="http://www.w3.org/2000/svg" viewBox="1061.995 1353 102.05 86">
  <defs>
    <style>
      .cl-icon-ssp-fitness-business-1 {
        fill: #f15e23;
      }

      .cl-icon-ssp-fitness-business-2, .cl-icon-ssp-fitness-business-3, .cl-icon-ssp-fitness-business-6, .cl-icon-ssp-fitness-business-7 {
        fill: none;
      }

      .cl-icon-ssp-fitness-business-2 {
        stroke: #f15e23;
      }

      .cl-icon-ssp-fitness-business-3, .cl-icon-ssp-fitness-business-4, .cl-icon-ssp-fitness-business-6, .cl-icon-ssp-fitness-business-7 {
        stroke: #333;
      }

      .cl-icon-ssp-fitness-business-3, .cl-icon-ssp-fitness-business-4 {
        stroke-linecap: square;
      }

      .cl-icon-ssp-fitness-business-3, .cl-icon-ssp-fitness-business-7 {
        fill-rule: evenodd;
      }

      .cl-icon-ssp-fitness-business-4, .cl-icon-ssp-fitness-business-5 {
        fill: #fff;
      }
    </style>
  </defs>
  <g data-name="Group 15" transform="translate(-3654.56 386)">
    <g transform="translate(4716 967)">
      <g transform="translate(32)">
        <g>
          <rect data-name="Rectangle 23" class="cl-icon-ssp-fitness-business-1" width="40" height="19.286" rx="3"/>
          <rect data-name="Rectangle 24" class="cl-icon-ssp-fitness-business-2" width="39" height="18.286" rx="3" transform="translate(0.5 0.5)"/>
        </g>
        <path class="cl-icon-ssp-fitness-business-3" d="M20,18.8v7.714"/>
        <g transform="translate(6.829 4.821)">
          <rect class="cl-icon-ssp-fitness-business-4" width="19.638" height="2.893" transform="translate(3.43 3.235)"/>
          <g transform="translate(18.159)">
            <rect class="cl-icon-ssp-fitness-business-4" width="2.927" height="9.705" rx="1.463"/>
            <rect data-name="Rectangle-14" class="cl-icon-ssp-fitness-business-4" width="2.927" height="6.821" rx="1.463" transform="translate(2.927 1.442)"/>
            <rect data-name="Rectangle-14" class="cl-icon-ssp-fitness-business-4" width="2.927" height="4.08" rx="1.463" transform="translate(5.854 2.812)"/>
          </g>
          <g>
            <rect class="cl-icon-ssp-fitness-business-4" width="2.927" height="9.705" rx="1.463" transform="translate(6.231)"/>
            <rect class="cl-icon-ssp-fitness-business-4" width="2.927" height="6.835" rx="1.463" transform="translate(3.304 1.435)"/>
            <rect class="cl-icon-ssp-fitness-business-4" width="2.927" height="3.834" rx="1.463" transform="translate(0.378 2.935)"/>
          </g>
        </g>
      </g>
      <g transform="translate(0 24)">
        <g>
          <rect data-name="Rectangle 25" class="cl-icon-ssp-fitness-business-5" width="97.251" height="62" rx="3" transform="translate(2.943)"/>
          <rect data-name="Rectangle 26" class="cl-icon-ssp-fitness-business-6" width="96.251" height="61" rx="3" transform="translate(3.443 0.5)"/>
        </g>
        <g data-name="Rectangle-9">
          <path data-name="Path 13" class="cl-icon-ssp-fitness-business-5" d="M43.407,38.425a3,3,0,0,1,3.006-3h10.91a3,3,0,0,1,3.006,3V62H43.407Z"/>
          <path data-name="Path 14" class="cl-icon-ssp-fitness-business-7" d="M43.907,61.5H59.829V38.425a2.5,2.5,0,0,0-2.506-2.5H46.413a2.5,2.5,0,0,0-2.506,2.5Z"/>
        </g>
        <g>
          <rect data-name="Rectangle 27" class="cl-icon-ssp-fitness-business-5" width="15.45" height="9.595" rx="2" transform="translate(14.714 10.333)"/>
          <rect data-name="Rectangle 28" class="cl-icon-ssp-fitness-business-6" width="14.45" height="8.595" rx="2" transform="translate(15.214 10.833)"/>
        </g>
        <g>
          <rect data-name="Rectangle 29" class="cl-icon-ssp-fitness-business-1" width="16.921" height="9.595" rx="2" transform="translate(43.407 10.333)"/>
          <rect data-name="Rectangle 30" class="cl-icon-ssp-fitness-business-2" width="15.921" height="8.595" rx="2" transform="translate(43.907 10.833)"/>
        </g>
        <g>
          <rect data-name="Rectangle 31" class="cl-icon-ssp-fitness-business-5" width="15.45" height="9.595" rx="2" transform="translate(72.1 10.333)"/>
          <rect data-name="Rectangle 32" class="cl-icon-ssp-fitness-business-6" width="14.45" height="8.595" rx="2" transform="translate(72.6 10.833)"/>
        </g>
        <g data-name="Rectangle-6">
          <rect data-name="Rectangle 33" class="cl-icon-ssp-fitness-business-1" width="15.45" height="9.595" rx="2" transform="translate(14.714 36.167)"/>
          <rect data-name="Rectangle 34" class="cl-icon-ssp-fitness-business-2" width="14.45" height="8.595" rx="2" transform="translate(15.214 36.667)"/>
        </g>
        <g data-name="Rectangle-6-Copy-3">
          <rect data-name="Rectangle 35" class="cl-icon-ssp-fitness-business-1" width="15.45" height="9.595" rx="2" transform="translate(72.1 36.167)"/>
          <rect data-name="Rectangle 36" class="cl-icon-ssp-fitness-business-2" width="14.45" height="8.595" rx="2" transform="translate(72.6 36.667)"/>
        </g>
        <path class="cl-icon-ssp-fitness-business-3" d="M3.278,29.155H99.859"/>
        <path class="cl-icon-ssp-fitness-business-3" d="M3.679,59.786H43.407"/>
        <path class="cl-icon-ssp-fitness-business-3" d="M60.329,59.786H99.321"/>
        <g>
          <path data-name="Path 15" class="cl-icon-ssp-fitness-business-5" d="M.781,1.716A2.9,2.9,0,0,1,3.3,0H99.862a2.905,2.905,0,0,1,2.518,1.716l.1.259a1.173,1.173,0,0,1-1.174,1.716H1.854A1.171,1.171,0,0,1,.679,1.975Z"/>
          <path data-name="Path 16" class="cl-icon-ssp-fitness-business-7" d="M1.246,1.9l-.1.259c-.243.621.04,1.034.709,1.034h99.453c.664,0,.95-.416.708-1.034l-.1-.259A2.408,2.408,0,0,0,99.862.5H3.3A2.407,2.407,0,0,0,1.246,1.9Z"/>
        </g>
      </g>
    </g>
  </g>
</svg>
