<svg xmlns="http://www.w3.org/2000/svg" viewBox="-17433 -18026 18.824 11.711">
  <defs>
    <style>
      .cls-1 {
        fill: #4d4d4d;
      }
    </style>
  </defs>
  <path id="Mask" class="cls-1" d="M18.32,8.667a4.893,4.893,0,0,1-3.154.77V8.493a4.326,4.326,0,0,0-.724-2.463,3.122,3.122,0,0,0,2.8-.187,2.051,2.051,0,0,1,1.079,1.9ZM5.988,10a.48.48,0,0,0,.024-.148V8.493a3.685,3.685,0,0,1,.656-2.171,3.534,3.534,0,0,1,1.115-.855,4.039,4.039,0,0,0,4.434,0,3.522,3.522,0,0,1,1.188.952,3.708,3.708,0,0,1,.585,2.074V9.851a.484.484,0,0,0,.025.154A7.131,7.131,0,0,1,5.988,10ZM4.835,8.493v.946A4.953,4.953,0,0,1,1.68,8.666V7.74A2.022,2.022,0,0,1,2.761,5.849a3.126,3.126,0,0,0,2.781.186,4.329,4.329,0,0,0-.707,2.458ZM17.414,4.77h-.006a1.656,1.656,0,0,0,.144-.674,1.892,1.892,0,0,0-3.774,0,1.665,1.665,0,0,0,.144.675c-.005,0-.012,0-.017,0A3.887,3.887,0,0,0,13.455,5a5.092,5.092,0,0,0-1.06-.6,2.411,2.411,0,0,0,.37-1.265A2.731,2.731,0,0,0,9.31.633,2.645,2.645,0,0,0,7.351,2.4a2.45,2.45,0,0,0,.262,2A5.3,5.3,0,0,0,6.541,5a3.888,3.888,0,0,0-.448-.231h-.01a1.648,1.648,0,0,0,.145-.675A1.822,1.822,0,0,0,4.337,2.333a1.822,1.822,0,0,0-1.89,1.762,1.641,1.641,0,0,0,.148.681h-.01a3.086,3.086,0,0,0-2,2.963V8.769a.836.836,0,0,0,.407.7,6.089,6.089,0,0,0,3.9,1,.524.524,0,0,0,.174.188,8.973,8.973,0,0,0,4.942,1.61,8.918,8.918,0,0,0,4.922-1.6.524.524,0,0,0,.179-.2,6.165,6.165,0,0,0,3.894-.993.839.839,0,0,0,.406-.7V7.74a3.085,3.085,0,0,0-2-2.97Z" transform="translate(-17433.588 -18026.557)"/>
</svg>
