<svg class="cl-icon-athlete-invite" xmlns="http://www.w3.org/2000/svg" viewBox="-6354.504 -2742.348 68.691 81.586">
  <defs>
    <style>
      .cl-icon-athlete-invite-1, .cl-icon-athlete-invite-10, .cl-icon-athlete-invite-2 {
        fill: none;
      }
      .cl-icon-athlete-invite-1, .cl-icon-athlete-invite-3, .cl-icon-athlete-invite-5, .cl-icon-athlete-invite-7, .cl-icon-athlete-invite-9 {
        stroke: #999;
      }
      .cl-icon-athlete-invite-1, .cl-icon-athlete-invite-2, .cl-icon-athlete-invite-3, .cl-icon-athlete-invite-5, .cl-icon-athlete-invite-6 {
        stroke-linecap: round;
        stroke-linejoin: round;
      }
      .cl-icon-athlete-invite-1, .cl-icon-athlete-invite-2, .cl-icon-athlete-invite-3, .cl-icon-athlete-invite-4, .cl-icon-athlete-invite-5, .cl-icon-athlete-invite-6, .cl-icon-athlete-invite-7, .cl-icon-athlete-invite-8 {
        fill-rule: evenodd;
      }
      .cl-icon-athlete-invite-2 {
        stroke: #333;
      }
      .cl-icon-athlete-invite-3 {
        fill: #fff;
      }
      .cl-icon-athlete-invite-4, .cl-icon-athlete-invite-5, .cl-icon-athlete-invite-6, .cl-icon-athlete-invite-7, .cl-icon-athlete-invite-8 {
        fill: #999;
      }
      .cl-icon-athlete-invite-6, .cl-icon-athlete-invite-8 {
        stroke: #fff;
      }
      .cl-icon-athlete-invite-9 {
        fill: #fcdfd3;
      }
      .cl-icon-athlete-invite-10, .cl-icon-athlete-invite-9 {
        stroke-width: 2px;
      }
      .cl-icon-athlete-invite-10 {
        stroke: #95989a;
      }
    </style>
  </defs>
  <g data-name="Group 2266" transform="translate(-6354 -2742)">
    <g data-name="Group 2265" transform="translate(0 0)">
      <path class="cl-icon-athlete-invite-1" d="M1.157,81.972a107.89,107.89,0,0,0,23.791,3.834" transform="translate(-0.087 -6.946)"/>
      <path class="cl-icon-athlete-invite-2" d="M39.342,85.784a132.187,132.187,0,0,0,23.729-3.327" transform="translate(-2.962 -6.982)"/>
      <path class="cl-icon-athlete-invite-1" d="M60.391,76.663s1.27-15.191-3.141-20.715c-3.824-4.792-11.673-7.448-20.338-8.185a21.121,21.121,0,0,1-.757-3.588,18.774,18.774,0,0,1,.67-3.275c6.762-2.932,11.585-10.45,11.585-19.286C48.411,10.23,40.423,1,30.57,1S12.73,10.23,12.73,21.614c0,8.831,4.814,16.345,11.57,19.279a20.356,20.356,0,0,1,.622,3.281,25.635,25.635,0,0,1-.766,3.84c-8.4,1.024-16.116,3.73-20.268,7.934C-1.073,60.971-.248,75.962.776,75.962" transform="translate(0 -0.848)"/>
      <path class="cl-icon-athlete-invite-3" d="M60.391,80s1.27-15.191-3.141-20.715c-3.824-4.792-7.869-6.5-16.534-7.238-.1-.365-1.2,8.947-10.088,8.947s-9.9-8.687-9.939-8.549-12.649,2.636-16.8,6.839C-1.073,64.3-.248,79.294.776,79.294c0,0,19.538,4.56,29.5,4.677C40.186,84.088,60.391,80,60.391,80Z" transform="translate(0 -4.691)"/>
      <path class="cl-icon-athlete-invite-4" d="M49.524,21.137a22.167,22.167,0,0,0-5.17-14.17l.022-.009c-.248-.291-.515-.556-.779-.829-.073-.074-.142-.156-.216-.23-.341-.344-.7-.666-1.064-.98-.075-.063-.146-.132-.222-.193-.377-.314-.767-.606-1.167-.885-.067-.048-.134-.1-.2-.145-.415-.282-.84-.54-1.274-.784l-.17-.1q-.678-.367-1.384-.67c-.043-.018-.085-.037-.128-.054a15.315,15.315,0,0,0-1.489-.54c-.028-.009-.056-.016-.085-.025a14.883,14.883,0,0,0-1.585-.389l-.046-.009A15.655,15.655,0,0,0,32.9.909H32.89C32.495.877,32.1.836,31.7.836c-9.649,0-17.488,8.857-17.81,19.915L39.63,9.1Z" transform="translate(-1.046 -0.836)"/>
      <path class="cl-icon-athlete-invite-2" d="M32.932,71.308l3.243,5.1" transform="translate(-2.48 -6.143)"/>
      <path class="cl-icon-athlete-invite-5" d="M36.175,74.962l14.046-21.37a40.6,40.6,0,0,0-5.632-1.441L32.933,69.866" transform="translate(-2.48 -4.7)"/>
      <path class="cl-icon-athlete-invite-6" d="M34.821,75.992l-14.29-22.45a47.646,47.646,0,0,0-5.583,1.508l13.6,20.943Z" transform="translate(-1.126 -4.805)"/>
      <path class="cl-icon-athlete-invite-7" d="M38.279,81.441a5.7,5.7,0,1,1-5.7-5.767A5.732,5.732,0,0,1,38.279,81.441Z" transform="translate(-2.024 -6.471)"/>
      <path class="cl-icon-athlete-invite-8" d="M35.735,81.67a2.928,2.928,0,1,1-2.927-2.963,2.944,2.944,0,0,1,2.927,2.963" transform="translate(-2.25 -6.7)"/>
    </g>
    <g data-name="Group 2264" transform="translate(36.152 46.961)">
      <ellipse data-name="Ellipse 13" class="cl-icon-athlete-invite-9" cx="15.517" cy="15.358" rx="15.517" ry="15.358"/>
      <g data-name="Group 2262" transform="translate(8.314 8.468)">
        <line data-name="Line 185" class="cl-icon-athlete-invite-10" x2="14.781" transform="translate(0 7.391)"/>
        <line data-name="Line 186" class="cl-icon-athlete-invite-10" y2="14.781" transform="translate(7.391)"/>
      </g>
    </g>
  </g>
</svg>
