<svg xmlns="http://www.w3.org/2000/svg" viewBox="0 0 11 12">
    <path fill="#666" fill-rule="evenodd" d="M10.877 2.35c-.151.289-.302.836-.648 1.193C8.193 5.635 6.117 7.688 4.04 9.74c-.56.553-1.165.594-1.716.19-.586-.426-.72-1.047-.341-1.667.12-.197.277-.377.44-.54C4.32 5.82 6.22 3.92 8.117 2.02c.083-.082.163-.208.26-.226.159-.028.392-.044.48.046.093.095.095.333.053.485-.036.128-.19.225-.295.331-1.863 1.865-3.73 3.726-5.585 5.598-.25.252-.676.503-.31.953.253.312.494.24.995-.258 1.937-1.932 3.876-3.862 5.808-5.8.666-.666.69-1.327.098-1.923C9.037.64 8.313.674 7.64 1.34 6.077 2.892 4.52 4.45 2.963 6.007c-.518.519-1.065 1.016-1.531 1.58-.926 1.12-.792 2.282.307 3.143.643.503 1.34.6 2.05.194a5.24 5.24 0 0 0 1.065-.816c1.613-1.595 3.207-3.21 4.81-4.817.117-.117.227-.272.372-.324.13-.046.35-.024.44.062.09.086.108.297.08.439-.022.113-.153.21-.246.304C8.651 7.44 7.014 9.13 5.316 10.758a5.09 5.09 0 0 1-1.748 1.104c-1.1.394-2.016-.1-2.764-.92-.747-.816-1.04-1.766-.593-2.81a4.81 4.81 0 0 1 .956-1.443A462.663 462.663 0 0 1 7.148.71C7.8.066 8.593-.21 9.48.18c.823.363 1.297 1.015 1.397 2.17"/>
</svg>
