<svg class="cl-icon-business-model" xmlns="http://www.w3.org/2000/svg" viewBox="0 0 48.332 48.332">
  <defs>
    <style>
      .cl-icon-business-model-1 {
        fill: none;
        stroke: #fff;
        stroke-linecap: round;
        stroke-miterlimit: 10;
        stroke-width: 2px;
      }
      .cl-icon-business-model-2 {
        fill: #fff;
      }
    </style>
  </defs>
  <g data-name="Group 4122" transform="translate(18404.998 -13965)">
    <path data-name="Path 164" class="cl-icon-business-model-1" d="M55.326,70.166A23.171,23.171,0,0,1,30.968,33.251" transform="translate(-18429.75 13941.268)"/>
    <path data-name="Path 165" class="cl-icon-business-model-1" d="M34.535,29.77A23.168,23.168,0,1,1,59.221,68.738" transform="translate(-18429.557 13941.084)"/>
    <path data-name="Path 166" class="cl-icon-business-model-2" d="M50.3,40.22a1.065,1.065,0,0,1,1.075,1.074v.549a9.088,9.088,0,0,1,3.871,1.373,1.338,1.338,0,0,1,.748,1.2,1.375,1.375,0,0,1-1.4,1.375,1.441,1.441,0,0,1-.748-.225,9.111,9.111,0,0,0-2.573-1.1v4.8c3.8.949,5.418,2.473,5.418,5.145,0,2.746-2.146,4.571-5.318,4.87v1.5A1.065,1.065,0,0,1,50.3,61.848a1.086,1.086,0,0,1-1.1-1.074V59.226a10.8,10.8,0,0,1-5.12-1.947,1.369,1.369,0,0,1-.674-1.2,1.373,1.373,0,0,1,2.2-1.1,8.907,8.907,0,0,0,3.7,1.673v-4.92c-3.647-.95-5.346-2.323-5.346-5.145,0-2.673,2.121-4.521,5.245-4.77V41.3A1.086,1.086,0,0,1,50.3,40.22Zm-1,8.517V44.316c-1.6.15-2.4,1-2.4,2.1C46.908,47.462,47.381,48.113,49.3,48.737Zm1.972,3.471v4.546c1.6-.175,2.473-.974,2.473-2.172C53.75,53.482,53.2,52.808,51.277,52.207Z" transform="translate(-18430.76 13938.266)"/>
  </g>
</svg>
