<svg class="cl-icon-bronze" xmlns="http://www.w3.org/2000/svg" viewBox="-1841 -1246 140.884 29.938">
  <defs>
    <style>
      .cl-icon-bronze-1 {
        fill: #b36f23;
      }
      .cl-icon-bronze-1, .cl-icon-bronze-2, .cl-icon-bronze-3 {
        fill-rule: evenodd;
      }
      .cl-icon-bronze-2, .cl-icon-bronze-4 {
        fill: #fff;
      }
      .cl-icon-bronze-3 {
        fill: #c77c27;
      }
    </style>
  </defs>
  <g transform="translate(-2017 -2240)">
    <g data-name="Group 1043" transform="translate(-2)">
      <path data-name="Path 125" class="cl-icon-bronze-1" d="M140.881,22.88V7.91A6.961,6.961,0,0,1,134.022.855,7.752,7.752,0,0,1,134.106,0H6.881A7.055,7.055,0,0,1,0,7.046V22.89a7.054,7.054,0,0,1,6.881,7.047H134.022a6.96,6.96,0,0,1,6.859-7.056" transform="translate(178 994.001)"/>
      <path data-name="Path 126" class="cl-icon-bronze-2" d="M12,14.5A2.5,2.5,0,1,1,9.5,12,2.5,2.5,0,0,1,12,14.5" transform="translate(178 994)"/>
      <path data-name="Path 127" class="cl-icon-bronze-3" d="M134.027.857A7.559,7.559,0,0,1,134.111,0H82L63.21,29.936h70.817a6.96,6.96,0,0,1,6.857-7.057V7.911A6.957,6.957,0,0,1,134.027.857" transform="translate(178 994)"/>
      <path data-name="Path 128" class="cl-icon-bronze-2" d="M135,14.5a2.5,2.5,0,1,1-2.5-2.429A2.5,2.5,0,0,1,135,14.5" transform="translate(178 994.929)"/>
    </g>
    <path data-name="Path 141" class="cl-icon-bronze-4" d="M-33.227,0V-10.672h5.607a3.779,3.779,0,0,1,1.33.223,2.571,2.571,0,0,1,.967.605,2.726,2.726,0,0,1,.569.867,2.669,2.669,0,0,1,.2,1.023,2.54,2.54,0,0,1-.52,1.621,2.191,2.191,0,0,1-1.3.824,2.236,2.236,0,0,1,1.447.875A2.717,2.717,0,0,1-24.344-2.9a2.83,2.83,0,0,1-.811,2.082A3.078,3.078,0,0,1-27.44,0Zm2.273-2h2.945a1.439,1.439,0,0,0,1-.324,1.144,1.144,0,0,0,.359-.895,1.149,1.149,0,0,0-.359-.867,1.388,1.388,0,0,0-1-.344h-2.945Zm0-4.43H-28.1a1.3,1.3,0,0,0,.906-.3,1.053,1.053,0,0,0,.336-.82,1.046,1.046,0,0,0-.336-.809,1.288,1.288,0,0,0-.906-.309h-2.852ZM-21.625,0V-10.672h4.992a3.583,3.583,0,0,1,2.621.961,3.316,3.316,0,0,1,.98,2.477,3.677,3.677,0,0,1-.2,1.242,2.782,2.782,0,0,1-.547.949,3.413,3.413,0,0,1-.746.625,2.962,2.962,0,0,1-.855.355L-12.969,0h-2.625l-2.094-3.789h-1.664V0Zm2.273-5.789h2.4a1.66,1.66,0,0,0,1.137-.395,1.347,1.347,0,0,0,.449-1.066,1.3,1.3,0,0,0-.449-1.035,1.68,1.68,0,0,0-1.137-.387h-2.4Zm8.918,2.682a5.863,5.863,0,0,1-.418-2.225,5.849,5.849,0,0,1,.418-2.223A5.114,5.114,0,0,1-9.281-9.3a5.282,5.282,0,0,1,1.773-1.134,5.992,5.992,0,0,1,2.234-.413,5.825,5.825,0,0,1,2.863.7A5.063,5.063,0,0,1-.422-8.188,5.667,5.667,0,0,1,.3-5.332,5.681,5.681,0,0,1-.422-2.473,5.068,5.068,0,0,1-2.41-.507,5.815,5.815,0,0,1-5.273.2,5.983,5.983,0,0,1-7.508-.219,5.281,5.281,0,0,1-9.281-1.354,5.123,5.123,0,0,1-10.434-3.107Zm1.918-2.225a3.66,3.66,0,0,0,.891,2.526,2.994,2.994,0,0,0,2.352,1,2.985,2.985,0,0,0,2.344-1,3.66,3.66,0,0,0,.891-2.526A3.642,3.642,0,0,0-2.93-7.858a3,3,0,0,0-2.344-.994,3,3,0,0,0-2.355.994A3.652,3.652,0,0,0-8.516-5.332ZM2.891,0V-10.672H5.227l4.945,6.7v-6.7h2.273V0h-2.2L5.164-6.961V0ZM15.164,0V-1.844L20.2-8.672H15.164v-2H23.18v1.82L18.141-2h5.148V0ZM26.016,0V-10.672H33.57v2H28.289V-6.43h5.164v2H28.289V-2H33.57V0Z" transform="translate(246 1013.852)"/>
  </g>
</svg>
