<svg class="cl-icon-clinic" xmlns="http://www.w3.org/2000/svg" viewBox="-19032 -18354 11 12">
  <defs>
    <style>
      .cl-icon-clinic-1 {
        fill: #fff;
      }

      .cl-icon-clinic-2 {
        fill: none;
        stroke: #4d4d4d;
      }

      .cl-icon-clinic-3, .cl-icon-clinic-4 {
        stroke: none;
      }

      .cl-icon-clinic-4 {
        fill: #4d4d4d;
      }
    </style>
  </defs>
  <g data-name="Symbol 118 – 36" transform="translate(-19801 -19543.818)">
    <g class="cl-icon-clinic-1" transform="translate(577 1061.818)">
      <path class="cl-icon-clinic-3" d="M 200.9140472412109 139.5 L 194.0859375 139.5 C 193.5843658447266 139.5 193.2013854980469 139.3674926757813 192.9150848388672 139.0949096679688 C 192.6357727050781 138.8289947509766 192.5 138.4631805419922 192.5 137.9765625 C 192.5 137.7132568359375 192.5088043212891 137.4528350830078 192.5261383056641 137.2025451660156 C 192.5430297851563 136.9588165283203 192.5775756835938 136.6904144287109 192.6288452148438 136.4047241210938 C 192.6793670654297 136.1232147216797 192.7436828613281 135.8595581054688 192.8199768066406 135.6211242675781 C 192.8923950195313 135.3947906494141 192.991455078125 135.1703643798828 193.1143646240234 134.9540863037109 C 193.2303466796875 134.7500762939453 193.3633880615234 134.5755615234375 193.5097961425781 134.4354248046875 C 193.6443176269531 134.3066558837891 193.8146667480469 134.2009124755859 194.0161437988281 134.1211242675781 C 194.1964416503906 134.0497131347656 194.3990173339844 134.0095825195313 194.6193084716797 134.0015258789063 C 194.6479034423828 134.0175170898438 194.6925659179688 134.0440673828125 194.7583160400391 134.0869140625 C 194.9313354492188 134.1996154785156 195.1266174316406 134.3254547119141 195.3441925048828 134.4643859863281 C 195.5987548828125 134.626953125 195.9124755859375 134.7673950195313 196.30322265625 134.8937225341797 C 196.6977233886719 135.0212707519531 197.1003875732422 135.0859375 197.5 135.0859375 C 197.8996276855469 135.0859375 198.3022766113281 135.0212707519531 198.6967620849609 134.8937225341797 C 199.0875091552734 134.7673950195313 199.4012145996094 134.626953125 199.6558074951172 134.4643707275391 C 199.8733825683594 134.3254547119141 200.0686950683594 134.1996154785156 200.24169921875 134.0868835449219 C 200.3074493408203 134.0440521240234 200.3520812988281 134.0175170898438 200.3806610107422 134.0015258789063 C 200.6009826660156 134.0095825195313 200.8035430908203 134.0497131347656 200.98388671875 134.1211242675781 C 201.1853179931641 134.2009124755859 201.3556671142578 134.3066558837891 201.4901733398438 134.4354095458984 C 201.6365966796875 134.5755615234375 201.7696380615234 134.7500762939453 201.8856353759766 134.9541168212891 C 202.0085754394531 135.1704559326172 202.1076354980469 135.3948822021484 202.1800384521484 135.6211395263672 C 202.2563171386719 135.8595886230469 202.3206176757813 136.1232452392578 202.3711395263672 136.4047546386719 C 202.4223937988281 136.6903533935547 202.4569549560547 136.9587860107422 202.4738616943359 137.2025604248047 C 202.4911956787109 137.4529724121094 202.5 137.7133941650391 202.5 137.9765625 C 202.5 138.4631958007813 202.3642272949219 138.8289947509766 202.0849151611328 139.0948791503906 C 201.7986145019531 139.3674926757813 201.4156341552734 139.5 200.9140472412109 139.5 Z M 197.5 133.5 C 196.8034973144531 133.5 196.2253265380859 133.2604217529297 195.7324523925781 132.7675628662109 C 195.2395935058594 132.2746734619141 195 131.6965026855469 195 131 C 195 130.3034973144531 195.2395935058594 129.7253265380859 195.7324523925781 129.2324676513672 C 196.2253265380859 128.7395935058594 196.8034973144531 128.5 197.5 128.5 C 198.1965026855469 128.5 198.7746734619141 128.7395935058594 199.2675323486328 129.2324523925781 C 199.7604064941406 129.7253265380859 200 130.3034973144531 200 131 C 200 131.6965026855469 199.7604064941406 132.2746734619141 199.2675476074219 132.7675628662109 C 198.7746734619141 133.2604064941406 198.1965026855469 133.5 197.5 133.5 Z"/>
      <path class="cl-icon-clinic-4" d="M 200.9140472412109 139 C 201.4029388427734 139 201.6196441650391 138.8475036621094 201.7401733398438 138.7327423095703 C 201.8517150878906 138.6265563964844 202 138.4326477050781 202 137.9765625 C 202 137.7248687744141 201.9916076660156 137.47607421875 201.9750671386719 137.2371520996094 C 201.9593963623047 137.0113220214844 201.9270782470703 136.7609558105469 201.8790130615234 136.4930877685547 C 201.8323669433594 136.2331695556641 201.7734069824219 135.9910430908203 201.7038269042969 135.7735137939453 C 201.6419372558594 135.5800933837891 201.5568389892578 135.3875274658203 201.4509429931641 135.2011871337891 C 201.3589324951172 135.0393371582031 201.2558288574219 134.9032287597656 201.1444244384766 134.7965850830078 C 201.0555725097656 134.7115478515625 200.9428253173828 134.6426544189453 200.7997894287109 134.5859985351563 C 200.7105407714844 134.5506591796875 200.6116790771484 134.5261077880859 200.5043029785156 134.5125427246094 C 200.3327331542969 134.6242828369141 200.1395721435547 134.7487182617188 199.9249267578125 134.8857727050781 C 199.6338958740234 135.0716247558594 199.282470703125 135.2298431396484 198.8505859375 135.3694915771484 C 198.4063262939453 135.5131072998047 197.9519348144531 135.5859375 197.5 135.5859375 C 197.0480804443359 135.5859375 196.5936737060547 135.5131225585938 196.1493988037109 135.3694915771484 C 195.7175140380859 135.2298431396484 195.3660888671875 135.0716247558594 195.0751037597656 134.8858032226563 C 194.8603820800781 134.7487030029297 194.6672515869141 134.6242828369141 194.4956665039063 134.5125427246094 C 194.3883056640625 134.526123046875 194.2894592285156 134.5506591796875 194.2002410888672 134.5859832763672 C 194.0571441650391 134.6426544189453 193.9443969726563 134.7115478515625 193.8555145263672 134.796630859375 C 193.7441711425781 134.9032135009766 193.6410369873047 135.0393371582031 193.549072265625 135.2011413574219 C 193.4431915283203 135.3874359130859 193.3580932617188 135.5800323486328 193.2961883544922 135.7734832763672 C 193.2265777587891 135.9910430908203 193.1676330566406 136.233154296875 193.1209869384766 136.4930419921875 C 193.0729064941406 136.7610015869141 193.0405883789063 137.0113372802734 193.0249481201172 137.2371063232422 C 193.0083923339844 137.4759521484375 193 137.7247467041016 193 137.9765625 C 193 138.4326477050781 193.1482849121094 138.6265869140625 193.2598571777344 138.7327880859375 C 193.3803405761719 138.8475036621094 193.5970458984375 139 194.0859375 139 L 200.9140472412109 139 M 197.5 133 C 198.0648803710938 133 198.5141906738281 132.8137969970703 198.9139862060547 132.4140014648438 C 199.3137969970703 132.0142059326172 199.5 131.5648956298828 199.5 131 C 199.5 130.4351196289063 199.3137969970703 129.9858245849609 198.9139862060547 129.5860137939453 C 198.5141754150391 129.1862030029297 198.0648803710938 129 197.5 129 C 196.9351043701172 129 196.4858093261719 129.1862030029297 196.0860137939453 129.5860137939453 C 195.6862030029297 129.9858245849609 195.5 130.4351196289063 195.5 131 C 195.5 131.5648956298828 195.6862030029297 132.0142059326172 196.0860137939453 132.4140014648438 C 196.4858093261719 132.8137969970703 196.9351043701172 133 197.5 133 M 200.9140472412109 140 L 194.0859375 140 C 193.4557342529297 140 192.9505157470703 139.8190307617188 192.5703125 139.45703125 C 192.1901092529297 139.0950622558594 192 138.6015625 192 137.9765625 C 192 137.7005310058594 192.0091094970703 137.4309997558594 192.02734375 137.16796875 C 192.0455627441406 136.9049530029297 192.08203125 136.62109375 192.1367034912109 136.3164215087891 C 192.1913909912109 136.0117340087891 192.2604217529297 135.7291870117188 192.34375 135.46875 C 192.4270935058594 135.2083435058594 192.5390625 134.9544372558594 192.6796722412109 134.70703125 C 192.8202972412109 134.4596405029297 192.9817657470703 134.2487030029297 193.1640625 134.07421875 C 193.3463439941406 133.8997344970703 193.5690002441406 133.7604217529297 193.83203125 133.65625 C 194.0950622558594 133.5520935058594 194.3854217529297 133.5 194.703125 133.5 C 194.7499847412109 133.5 194.859375 133.5559997558594 195.03125 133.66796875 C 195.203125 133.7799530029297 195.3971252441406 133.9049530029297 195.61328125 134.04296875 C 195.8294219970703 134.1809997558594 196.1106719970703 134.3059997558594 196.45703125 134.4179840087891 C 196.8033752441406 134.5299530029297 197.1510467529297 134.5859375 197.5 134.5859375 C 197.8489532470703 134.5859375 198.1966247558594 134.5299530029297 198.5429534912109 134.4179840087891 C 198.8893127441406 134.3059997558594 199.1705627441406 134.1809997558594 199.3867034912109 134.04296875 C 199.6028594970703 133.9049530029297 199.796875 133.7799530029297 199.9687347412109 133.66796875 C 200.1406097412109 133.5559997558594 200.25 133.5 200.2968597412109 133.5 C 200.6145782470703 133.5 200.9049377441406 133.5520935058594 201.16796875 133.65625 C 201.4309844970703 133.7604217529297 201.6536407470703 133.8997344970703 201.8359222412109 134.07421875 C 202.0182189941406 134.2487030029297 202.1796875 134.4596405029297 202.3203125 134.70703125 C 202.4609222412109 134.9544372558594 202.5729217529297 135.2083435058594 202.65625 135.46875 C 202.7395629882813 135.7291870117188 202.80859375 136.0117340087891 202.86328125 136.3164215087891 C 202.9179534912109 136.62109375 202.9544219970703 136.9049530029297 202.97265625 137.16796875 C 202.9908752441406 137.4309997558594 203 137.7005310058594 203 137.9765625 C 203 138.6015625 202.8099060058594 139.0950622558594 202.4296722412109 139.45703125 C 202.0494842529297 139.8190307617188 201.5442657470703 140 200.9140472412109 140 Z M 197.5 134 C 196.671875 134 195.9648284912109 133.70703125 195.37890625 133.1211090087891 C 194.79296875 132.5351715087891 194.5 131.8281402587891 194.5 131 C 194.5 130.171875 194.79296875 129.46484375 195.37890625 128.87890625 C 195.9648284912109 128.29296875 196.671875 128 197.5 128 C 198.3281097412109 128 199.03515625 128.29296875 199.62109375 128.87890625 C 200.20703125 129.46484375 200.5 130.171875 200.5 131 C 200.5 131.8281402587891 200.20703125 132.5351715087891 199.62109375 133.1211090087891 C 199.03515625 133.70703125 198.3281097412109 134 197.5 134 Z"/>
    </g>
    <g data-name="Group 2864" transform="translate(-832 -576)">
      <line data-name="Line 237" class="cl-icon-clinic-2" y2="5.318" transform="translate(1606.5 1772.5)"/>
      <line data-name="Line 238" class="cl-icon-clinic-2" x2="6" transform="translate(1603.5 1775.159)"/>
    </g>
  </g>
</svg>
