<svg class="cl-icon-dashboard" xmlns="http://www.w3.org/2000/svg" viewBox="-14725.532 -931 39.532 29.619">
  <defs>
    <style>
      .cl-icon-dashboard-1 {
        fill: #42b7db;
        fill-rule: evenodd;
      }
    </style>
  </defs>
  <path data-name="Path 103" class="cl-icon-dashboard-1" d="M1.713,1.713H37.819v23.01H1.713ZM4.9,17.624a15.164,15.164,0,0,0,.122,3.427.949.949,0,0,0,1.224.245c.122-.122.367-.367.367-.49V17.135C6.609,16.4,4.9,15.911,4.9,17.624ZM11.5,13.953v6.732c0,.979,1.713,1.224,1.713-.245V14.2C13.218,12.851,11.5,12.974,11.5,13.953ZM8.2,12.484v8.078a.859.859,0,1,0,1.713.122V12.362A.859.859,0,1,0,8.2,12.484Zm16.4,4.9a.989.989,0,0,0,1.1.857h7.833c1.346,0,1.224-1.713.245-1.713H25.335a.636.636,0,0,0-.49.245A1.292,1.292,0,0,0,24.6,17.38Zm0,3.182a1.292,1.292,0,0,0,.245.612.636.636,0,0,0,.49.245H33.78c.979,0,1.1-1.713-.245-1.713H25.58A.946.946,0,0,0,24.6,20.562Zm-9.914-9.669V20.44a.865.865,0,1,0,1.713.245V10.648C16.4,9.669,14.687,9.547,14.687,10.893ZM11.994,28.762a.837.837,0,0,0,.857.857h13.83c.979,0,1.224-1.713-.367-1.713h-13.1C12.606,27.905,11.994,28.15,11.994,28.762Zm6-23.01V20.684a.859.859,0,1,0,1.713-.122V6C19.705,4.651,17.992,4.773,17.992,5.752Zm13.83.979A2.808,2.808,0,0,1,32.8,8.69c-.612,0-1.224-.245-1.836-.245Zm-3.06,2.448c0,.979,1.469.979,2.693,1.1.367,0,.857.122,1.224.122-.734,2.693-6.242,2.937-6.242-1.346A2.957,2.957,0,0,1,29.5,6c.979,0,.979-.122.49.612C29.864,6.976,28.762,8.935,28.762,9.179Zm-4.039,0c0,3.794,4.529,6.364,7.588,4.039a3.492,3.492,0,0,0,.979-.857,4.653,4.653,0,0,0,1.224-3.182A4.907,4.907,0,0,0,26.07,5.752,5.5,5.5,0,0,0,24.723,9.179ZM0,.734V25.58a.946.946,0,0,0,.979.857H38.431a.989.989,0,0,0,1.1-.857V.857A.92.92,0,0,0,38.676,0H.734A.79.79,0,0,0,0,.734Z" transform="translate(-14725.532 -931)"/>
</svg>
