<svg class="cl-icon-edit-one" xmlns="http://www.w3.org/2000/svg" viewBox="0 0 18.499 18.502">
  <defs>
    <style>
      .cl-icon-edit-one-1 {
        fill: #42b7db;
        stroke: #42b7db;
        stroke-width: 0.5px;
      }
    </style>
  </defs>
  <path data-name="Union 9" class="cl-icon-edit-one-1" d="M8937-9335.5l0-12.742a1.506,1.506,0,0,1,1.5-1.5h7.5v.749h-7.5a.758.758,0,0,0-.753.756l0,12.742a.757.757,0,0,0,.756.756l12.742,0a.755.755,0,0,0,.756-.753v-7.5h.751v7.5a1.508,1.508,0,0,1-1.507,1.5l-12.742,0A1.506,1.506,0,0,1,8937-9335.5Zm4.133-3.067.7-3.528a1.148,1.148,0,0,1,.308-.577l8.593-8.59a2.479,2.479,0,0,1,1.765-.732,2.5,2.5,0,0,1,2.5,2.5,2.48,2.48,0,0,1-.729,1.766l-8.593,8.592a1.138,1.138,0,0,1-.575.308l-3.527.7Zm10.137-12.167-8.595,8.595a.36.36,0,0,0-.1.192l-.6,2.974,2.977-.594a.4.4,0,0,0,.192-.1l8.592-8.593a1.735,1.735,0,0,0,.51-1.234,1.747,1.747,0,0,0-1.746-1.748A1.755,1.755,0,0,0,8951.271-9350.739Z" transform="translate(-8936.751 9352.25)"/>
</svg>
