<svg class="icon-ellipsish" xmlns="http://www.w3.org/2000/svg" viewBox="299.5 403.5 73.857 18.143">
  <path data-name="ellipsish" class="ellipsish" d="M17.143-35.714v8.571a4.133,4.133,0,0,1-1.25,3.036,4.133,4.133,0,0,1-3.036,1.25H4.286a4.133,4.133,0,0,1-3.036-1.25A4.133,4.133,0,0,1,0-27.143v-8.571A4.133,4.133,0,0,1,1.25-38.75,4.133,4.133,0,0,1,4.286-40h8.571a4.133,4.133,0,0,1,3.036,1.25A4.133,4.133,0,0,1,17.143-35.714Zm27.857,0v8.571a4.133,4.133,0,0,1-1.25,3.036,4.133,4.133,0,0,1-3.036,1.25H32.143a4.133,4.133,0,0,1-3.036-1.25,4.133,4.133,0,0,1-1.25-3.036v-8.571a4.133,4.133,0,0,1,1.25-3.036A4.133,4.133,0,0,1,32.143-40h8.571a4.133,4.133,0,0,1,3.036,1.25A4.133,4.133,0,0,1,45-35.714Zm27.857,0v8.571a4.133,4.133,0,0,1-1.25,3.036,4.133,4.133,0,0,1-3.036,1.25H60a4.133,4.133,0,0,1-3.036-1.25,4.133,4.133,0,0,1-1.25-3.036v-8.571a4.133,4.133,0,0,1,1.25-3.036A4.133,4.133,0,0,1,60-40h8.571a4.133,4.133,0,0,1,3.036,1.25A4.133,4.133,0,0,1,72.857-35.714Z" transform="translate(300 444)"/>
</svg>
