<svg xmlns="http://www.w3.org/2000/svg" viewBox="-5710.5 -1207.014 14.058 13.201">
  <defs>
    <style>
      .cls-1 {
        fill: none;
        stroke: #42b7db;
        fill-rule: evenodd;
      }
    </style>
  </defs>
  <path id="Fill-1" class="cls-1" d="M0,7.192A8.186,8.186,0,0,1,.473,5.81,3.666,3.666,0,0,1,6.262,5.1a1.934,1.934,0,0,1,.213.3c.211-.2.346-.337.491-.463A3.654,3.654,0,0,1,12.8,6.251a8.451,8.451,0,0,1,.256.941V8a6.319,6.319,0,0,1-1.871,3.514c-1.512,1.53-3.086,3-4.62,4.481-1.05-.964-2.085-1.892-3.094-2.848q-.913-.866-1.758-1.8A6.414,6.414,0,0,1,0,8Z" transform="translate(-5710 -1210.5)"/>
</svg>
