<?xml version="1.0" encoding="UTF-8" standalone="no"?>
<svg viewBox="0 0 17 14" version="1.1" xmlns="http://www.w3.org/2000/svg" xmlns:xlink="http://www.w3.org/1999/xlink">
    <!-- Generator: Sketch 48.2 (47327) - http://www.bohemiancoding.com/sketch -->
    <title>Mask</title>
    <desc>Created with Sketch.</desc>
    <defs>
        <path d="M8.51173931,12.9882359 L7.37487928,12.9882359 C7.28014094,12.9882359 7.19322504,12.939019 7.14715961,12.8597714 L5.19068259,9.48215664 L3.23507473,12.8597714 C3.1890093,12.939019 3.1020934,12.9882359 3.00735506,12.9882359 L1.87484082,12.9882359 C1.67667256,12.9882359 1.55151366,12.7830264 1.64799031,12.6170236 L4.9655704,6.88784153 C5.06465453,6.71599944 5.32192561,6.71599944 5.42100974,6.88784153 L8.73945898,12.6170236 C8.83593564,12.7830264 8.71077673,12.9882359 8.51173931,12.9882359 Z M5.66611259,2.27479891 L6.30320617,2.61514635 L5.66611259,3.00304234 L5.66611259,2.27479891 Z M12.1578615,5.22531098 C12.1117961,5.14606341 12.0248802,5.09601232 11.9292727,5.09601232 L5.66611259,5.09601232 L5.66611259,4.08331182 L7.79120646,2.78865682 C7.958085,2.68688626 7.95113173,2.45081192 7.77816908,2.35738321 L5.10463584,0.931761179 C4.92993488,0.839166652 4.71612175,0.960123466 4.71612175,1.15115181 L4.71612175,5.44219906 L0.033092801,13.5271193 C-0.0633838533,13.6939563 0.0626442087,13.9 0.261681631,13.9 L16.7374605,13.9 C16.9373671,13.9 17.0633952,13.6939563 16.9669185,13.5271193 L12.1578615,5.22531098 Z" id="path-1"></path>
    </defs>
    <g id="Sessions/camps" stroke="none" stroke-width="1" fill="none" fill-rule="evenodd">
        <mask id="mask-2" fill="white">
            <use xlink:href="#path-1"></use>
        </mask>
        <use id="Mask" fill="#CCCCCC" xlink:href="#path-1"></use>
    </g>
</svg>