<?xml version="1.0" encoding="UTF-8" standalone="no"?>
<svg viewBox="0 0 52 52" version="1.1" xmlns="http://www.w3.org/2000/svg" xmlns:xlink="http://www.w3.org/1999/xlink">    
    <defs>
        <ellipse id="path-1" cx="7.92305257" cy="7.88962021" rx="7.92305257" ry="7.88962021"></ellipse>
        <polygon id="path-2" points="2.5379942 3.55161823 2.5379942 5.47827148 0.958104492 5.47827148 0.00501661368 3.55161823"></polygon>
    </defs>
    <g id="07-02-SSP-No-Longer-Part-of-Services" stroke="none" stroke-width="1" fill="none" fill-rule="evenodd" transform="translate(-705.000000, -543.000000)">
        <g id="Group-35" transform="translate(650.000000, 435.000000)">
            <g transform="translate(15.000000, 1.000000)" id="Group-17">
                <g>
                    <g>
                        <g id="Coach-BnW-Icon" transform="translate(41.000000, 108.000000)">
                            <path d="M12.2593465,13.731965 C12.2593465,13.731965 13.1224446,9.97111298 15.7888011,7.48555649 C18.4551576,5 22.615881,5 22.615881,5 C22.615881,5 25.3515936,7.20343066 26.1373082,9.57037662 C26.9230229,11.9373226 27.3076923,14.6474029 27.3076923,14.6474029 L12.2307692,14.6923077 L12.2593465,13.731965 Z" id="Path-9-Copy" stroke="#999999" fill="#FFFFFF" stroke-linecap="square"></path>
                            <path d="M24.0769231,5 C24.0769231,5 26.4335481,7.83763134 26.8999047,9.16167407 C27.3662613,10.4857168 27.7825061,13.6153846 27.7825061,13.6153846 C27.7825061,13.6153846 29.4758863,11.573599 30.0052136,11.2201299 C30.5345409,10.8666608 31.6153846,10.4857168 31.6153846,10.4857168 C31.6153846,10.4857168 31.1459096,7.93425651 29.4642078,6.75314495 C27.7825061,5.57203338 24.0769231,5 24.0769231,5 Z" id="Path-10-Copy" stroke="#999999" fill="#FFFFFF" stroke-linecap="square"></path>
                            <path d="M29.4615385,14.6923077 C29.4615385,14.6923077 30.6335105,13.4111464 31.7577568,12.6772119 C32.8820031,11.9432773 33.8915246,11.4615385 33.8915246,11.4615385 L40.9116425,11.6554214 C40.9116425,11.6554214 41.6093411,12.144427 41.1526705,13.0769231 C40.696,14.0094192 40.6333794,14.6650477 39.9444513,14.6650477 C39.2555232,14.6650477 29.4615385,14.6923077 29.4615385,14.6923077 Z" id="Path-11-Copy" stroke="#999999" fill="#FFFFFF" stroke-linecap="square"></path>
                            <path d="M23.4272535,30.8639396 C22.1945342,30.5168562 20.9618387,30.1650398 19.811482,29.8300885 C19.6649971,29.7874363 19.5206103,29.7452773 19.3784311,29.7036403 C18.0064923,29.3018696 16.8733815,28.9585578 16.0487098,28.6920325 C15.5870813,28.542839 15.2280274,28.4195684 14.9815975,28.3250984 C14.8677914,28.2814704 14.7794776,28.244515 14.7191578,28.2154739 C14.6370584,27.3542347 14.5166031,26.4927887 14.3505683,25.7509686 C14.3139669,25.5874388 14.2684211,25.4214005 14.2131728,25.2475163 C14.1348394,25.000976 14.0419768,24.7515148 13.9061085,24.4134626 C13.9198701,24.4477026 13.6340992,23.7457728 13.5526653,23.5373199 C13.1749703,22.5705039 12.9415399,21.7508306 12.8020094,20.7469336 C12.749911,20.3720948 12.7296561,19.9664942 12.7387811,19.5347626 C12.7572163,18.6625388 12.8927734,17.7241315 13.107403,16.7809608 C13.1887147,16.4236441 13.2758229,16.0907823 13.3628482,15.7914904 C13.4148255,15.6127334 13.4549925,15.4855567 13.4774586,15.4190233 L13.557599,15.1816876 L13.0777668,15.0231307 L12.9976264,15.2604664 C12.9729786,15.3334607 12.9306963,15.4673351 12.8766674,15.6531479 C12.7870157,15.9614724 12.6974468,16.3037369 12.6138599,16.6710521 C12.39237,17.6443694 12.2522264,18.6145277 12.2329976,19.5243011 C12.2233434,19.9810705 12.2448964,20.4126662 12.3008304,20.8151016 C12.4462856,21.8616258 12.6899914,22.7173801 13.080783,23.7177207 C13.1637372,23.9300654 13.4509507,24.6355384 13.4360084,24.5983606 C13.5676664,24.9259374 13.6566698,25.1650315 13.7305568,25.3975774 C13.7815959,25.5582139 13.8233422,25.710401 13.8566366,25.8591556 C14.0242883,26.6081994 14.1452997,27.4932393 14.2257283,28.3719635 C14.255068,28.6925158 15.3319957,29.0405676 19.23483,30.1835081 C19.377265,30.2252201 19.5219038,30.2674527 19.6686376,30.3101774 C20.8206127,30.6455999 22.0547011,30.9978138 23.2887659,31.345276 C23.7206701,31.4668826 24.1217298,31.5792115 24.4816704,31.6795675 C24.6976761,31.7397926 24.8520061,31.7826522 24.9343841,31.8054506 L25.3594072,31.9230769 L25.2471622,31.5008373 C25.239258,31.4711036 25.2249403,31.4140155 25.2063452,31.3342817 C25.1751402,31.2004783 25.1438934,31.0533439 25.1147359,30.8976396 C25.0580542,30.5949522 25.0163972,30.2980657 24.9960584,30.0219685 C24.9550177,29.4648461 25.0079716,29.0511575 25.1505674,28.8671576 C25.3133403,28.657122 26.0395828,28.5258314 27.4872996,28.415766 C27.5806709,28.4086673 27.6708495,28.401955 27.8538017,28.3883938 C29.1834902,28.2895327 29.6877906,28.2232883 30.0175472,28.0444642 C31.0373869,27.4914141 31.8846074,26.6472313 32.4162831,25.4829721 C32.6817186,24.9017235 32.8941503,24.2364877 33.0654242,23.4882639 C33.2081717,22.8646602 33.3168782,22.2128037 33.4132683,21.4614071 C33.4573849,21.1175016 33.5762765,20.0639516 33.5991292,19.8904632 C33.6116287,19.795572 33.6234454,19.7139521 33.6350691,19.6428448 C33.7125685,19.1687493 33.7543336,18.5921695 33.7658747,17.9342232 C33.7782064,17.2312042 33.755809,16.4793609 33.7109285,15.7371105 C33.6981919,15.5264668 33.6845412,15.3324844 33.6708808,15.1595646 C33.662659,15.0554883 33.6562376,14.9813218 33.6525201,14.9414753 L33.6292738,14.6923077 L33.1255206,14.7383003 L33.1487669,14.9874679 C33.1522731,15.0250487 33.1584931,15.09689 33.1665245,15.1985554 C33.1799528,15.3685383 33.1933909,15.559499 33.205937,15.7669918 C33.2501017,16.4974044 33.2721344,17.2370048 33.2600568,17.9255405 C33.2488996,18.5616016 33.2087538,19.1158259 33.1356626,19.5629545 C33.1231278,19.6396353 33.1105994,19.7261712 33.0974762,19.8257969 C33.0738547,20.0051221 32.9548371,21.0597888 32.9113991,21.3984041 C32.8168927,22.1351164 32.7106921,22.7719463 32.5720222,23.377737 C32.4077451,24.0953948 32.2052732,24.729441 31.9552503,25.2769393 C31.4715472,26.3361485 30.7027949,27.1021444 29.774365,27.6056238 C29.5416434,27.7318267 29.0292208,27.799138 27.8158869,27.8893483 C27.6330199,27.902903 27.5423771,27.9096498 27.4485342,27.9167844 C25.7606754,28.0451071 25.0507175,28.1734537 24.7490819,28.5626723 C24.507395,28.8745353 24.4419562,29.3857596 24.4915023,30.0583416 C24.5133358,30.35473 24.5574696,30.6692684 24.6173049,30.9887964 C24.6314818,31.0645029 24.646127,31.1382629 24.6610274,31.209622 C24.2593689,31.0976367 23.8587238,30.9854239 23.4272535,30.8639396 Z" id="Path-12-Copy" fill="#333333" fill-rule="nonzero"></path>
                            <path d="M12.2291859,30.9542308 C12.2106336,30.9756585 12.1767046,31.0155446 12.1295863,31.0720444 C12.0515408,31.1656291 11.9647013,31.2721165 11.8712516,31.3896696 C11.6043335,31.7254337 11.3374145,32.0831804 11.0878869,32.4484422 C10.8598408,32.782259 10.6574322,33.1064539 10.4873738,33.415756 C10.3409808,33.6820154 10.2203798,33.9340038 10.1285583,34.1698714 C10.1186231,34.1955481 10.1186231,34.1955481 10.1087277,34.2217337 C9.92144667,34.7201791 9.72553453,35.4836069 9.52499652,36.4454317 C9.39772858,37.0558371 9.27632461,37.7091715 9.1648129,38.3624131 C9.12579593,38.5909766 9.09079589,38.8032383 9.06032499,38.9937917 C9.04201549,39.1082923 9.02926512,39.1902417 9.02258772,39.2342272 L9,39.3830176 L9.12445255,39.4725448 C9.17277305,39.507305 9.26442163,39.5710347 9.39663886,39.6595981 C9.61572245,39.8063473 9.86983147,39.9696381 10.156213,40.1453343 C10.9734399,40.6467062 11.8865046,41.1478724 12.873515,41.6157104 C15.0400765,42.6426496 17.2484569,43.362593 19.4108379,43.6385932 C20.5330098,43.781824 21.7886487,43.8043873 23.154726,43.7204484 C24.9804036,43.6082693 26.9297797,43.3124134 28.9034993,42.8894825 C29.8002426,42.6973274 30.6426848,42.4914504 31.406474,42.285509 C31.6740391,42.2133652 31.9127619,42.1463343 32.1195922,42.0861227 C32.2441633,42.0498581 32.3307235,42.0238294 32.37622,42.0097428 L32.6923077,41.9118759 L32.5173173,41.6381728 C32.4864295,41.5898611 32.4284638,41.4994072 32.3471332,41.3728287 C32.2116272,41.1619346 32.060185,40.9269556 31.8965186,40.6739078 C31.4288676,39.9508639 30.9568998,39.2277969 30.5102706,38.5527784 C30.4548661,38.4690762 30.4548661,38.4690762 30.3994127,38.3854411 C29.9596671,37.7225036 29.572258,37.1487096 29.2513616,36.68709 C29.1514352,36.5433429 29.0429586,36.39615 28.9263562,36.2457287 C28.6055858,35.8319234 28.2270158,35.3982031 27.8024076,34.9513888 C27.3204736,34.4442507 26.8047847,33.946514 26.2891429,33.4787677 C26.108676,33.3150635 25.9410324,33.1667359 25.7904564,33.0363922 C25.6997796,32.9578993 25.6346971,32.9026415 25.599459,32.8732346 L25.5434125,32.8264624 L12.3227601,30.8461538 L12.2291859,30.9542308 Z M25.3177533,33.3006558 C25.3511741,33.3290787 25.3943525,33.3660933 25.4464123,33.4111581 C25.5940827,33.5389866 25.7587706,33.684699 25.9361992,33.8456471 C26.4431161,34.305479 26.949986,34.7947037 27.4224401,35.291866 C27.8361024,35.727162 28.2037973,36.148423 28.5132768,36.5476627 C28.6247014,36.6914044 28.7280348,36.8316183 28.8228303,36.9679847 C29.14134,37.4261707 29.5268488,37.9971501 29.9647519,38.65731 C30.0200405,38.7406967 30.0200405,38.7406967 30.0752882,38.8241619 C30.5208489,39.4975655 30.9919055,40.2192365 31.4586833,40.9409305 C31.618753,41.1884172 31.7671021,41.4185791 31.9002354,41.6257519 C31.7135285,41.6796046 31.5021203,41.738668 31.2681447,41.8017552 C30.51289,42.0053953 29.6793374,42.2090999 28.7920874,42.3992208 C26.842388,42.8170046 24.9182774,43.1090259 23.1220753,43.2193939 C21.7872272,43.3014139 20.5642613,43.2794377 19.4782177,43.1408183 C17.3775579,42.872696 15.2204374,42.1694636 13.1003127,41.1645352 C12.13121,40.7051854 11.2343913,40.2129363 10.4323694,39.7208927 C10.1520139,39.5488936 9.90369642,39.3893244 9.69021468,39.2463275 C9.63955129,39.2123915 9.59528372,39.1823881 9.55758784,39.1565784 C9.56170973,39.1305186 9.56626024,39.1018972 9.57122866,39.0708266 C9.6014387,38.8819045 9.63616184,38.6713221 9.67487899,38.444515 C9.78546475,37.7966977 9.90582623,37.1489734 10.0317412,36.5450572 C10.2274738,35.6062801 10.4183605,34.8624353 10.5944357,34.3938142 C10.6033301,34.3702779 10.6033301,34.3702779 10.612183,34.3473985 C10.6955146,34.1333395 10.8069258,33.9005525 10.943467,33.6522114 C11.1051494,33.3581437 11.29922,33.0473035 11.5187335,32.7259769 C11.7608456,32.3715701 12.0206837,32.0233138 12.2805224,31.6964551 C12.3714377,31.5820901 12.4557941,31.4786476 12.5313861,31.3880049 C12.5320331,31.3872291 25.3177533,33.3006558 25.3177533,33.3006558 Z" id="Path-14-Copy" fill="#333333" fill-rule="nonzero"></path>
                            <path d="M13.575155,28.6923077 L12.2307692,31.1259221 C12.2307692,31.1259221 24.9026272,35.0494132 26.8020693,35.1516255 C28.7015114,35.2538379 24.6375065,31.7935508 24.6375065,31.7935508 L13.575155,28.6923077 Z" id="Path-13-Copy" stroke="#999999" fill="#FFFFFF" stroke-linecap="square"></path>
                            <g id="Group-15" transform="translate(23.000000, 30.846154)">
                                <g id="Oval-2">
                                    <use fill="#FFFFFF" fill-rule="evenodd" xlink:href="#path-1"></use>
                                    <ellipse stroke="#999999" stroke-width="1" cx="7.92305257" cy="7.88962021" rx="7.42305257" ry="7.38962021"></ellipse>
                                </g>
                                <g id="Group-4" transform="translate(2.779509, 2.747761)">
                                    <path d="M0.95423576,5.46841872 L4.31544115,5.46841872 C4.31544115,5.46841872 3.78960495,8.95214128 6.89903272,8.95214128 C9.46044003,8.95214128 9.77669286,6.80126148 9.77669286,6.23286216 C9.77669286,5.65200596 9.55451872,4.72058039 8.55793062,4.14378214 C7.56134251,3.56698389 6.01368283,3.77845132 6.01368283,3.77845132 L5.99677753,4.47238695 L5.13295789,4.47238695 L4.19038428,3.58710396 L0,3.51358303 L0.95423576,5.46841872 Z" id="Path-15" stroke="#999999" fill="#FFFFFF" stroke-linecap="square"></path>
                                    <g id="Path-16">
                                        <use fill="#333333" fill-rule="evenodd" xlink:href="#path-2"></use>
                                        <path stroke="#333333" stroke-width="1" d="M2.0379942,4.05161823 L0.810193231,4.05161823 L1.26859538,4.97827148 L2.0379942,4.97827148 L2.0379942,4.05161823 Z"></path>
                                    </g>
                                    <path d="M6.87034889,8.13825985 C7.09750096,8.14009357 7.40134775,8.0980434 7.70826964,7.96723872 C7.83999055,7.9111016 7.9616855,7.84131771 8.07083055,7.75623357 C8.22627414,7.63505734 8.36446779,7.47630233 8.48818118,7.28924837 C8.58317454,7.14561895 8.66446003,6.99325167 8.73270939,6.84098451 C8.77390418,6.74907723 8.80207049,6.67635602 8.81725182,6.63191976 L8.89861588,6.39376431 L8.42519172,6.23004395 L8.34382766,6.4681994 C8.33339944,6.49872315 8.31075722,6.55718197 8.27635501,6.63393474 C8.21860938,6.76276763 8.14993251,6.89150042 8.07140667,7.01023106 C7.97556929,7.15513663 7.87211733,7.27398086 7.76421362,7.35809732 C7.69093332,7.41522306 7.60660974,7.46357698 7.51300752,7.50346858 C7.28056104,7.60253316 7.03912537,7.63594609 6.87756559,7.63464959 L6.62792182,7.63071109 L6.62007439,8.13431221 L6.87034889,8.13825985 Z" id="Path-17" fill="#333333" fill-rule="nonzero"></path>
                                    <polygon id="Line" fill="#333333" fill-rule="nonzero" points="5.90212502 2.93188538 6.95530564 0.819896403 6.50785217 0.594036425 5.45467155 2.7060254"></polygon>
                                    <polygon id="Line" fill="#333333" fill-rule="nonzero" points="5.11444608 2.84569597 5.11444608 0.484076109 4.61383558 0.484076109 4.61383558 2.84569597"></polygon>
                                </g>
                            </g>
                            <circle id="Oval-3" stroke="#F15E23" stroke-width="2" fill-opacity="0.5" fill="#FFFFFF" cx="25" cy="25" r="25"></circle>
                            <path d="M1,1 L49.1256858,49.1256858" id="Line-6" stroke="#F15E23" stroke-width="2" stroke-linecap="square"></path>
                        </g>
                    </g>
                </g>
            </g>
        </g>
    </g>
</svg>