<?xml version="1.0" encoding="UTF-8" standalone="no"?>
<svg viewBox="0 0 52 51" version="1.1" xmlns="http://www.w3.org/2000/svg" xmlns:xlink="http://www.w3.org/1999/xlink">    
    <g id="01-AthleteMessage-BookingRequestReceived-scroll01" stroke="none" stroke-width="1" fill="none" fill-rule="evenodd" transform="translate(-706.000000, -543.000000)">
        <g id="Group-35" transform="translate(650.000000, 435.000000)" stroke="#F15E23">
            <g id="Group-35-Copy" transform="translate(15.000000, 1.000000)">
                <g id="Group-17">
                    <g id="Group-10" transform="translate(42.000000, 108.000000)">
                        <path d="M0.820921739,16.8127012 L23.4710791,0.410863179 C23.8117028,0.164204629 24.2702532,0.157020155 24.618437,0.39288661 L48.8600659,16.8146352 C49.1347114,17.0006854 49.2992177,17.3108238 49.2992177,17.6425539 L49.2992177,36.6688396 L0.407431551,36.6688396 L0.407431551,17.6226434 C0.407431551,17.3019828 0.561205256,17.0007718 0.820921739,16.8127012 Z" id="Path-13" stroke-width="2" fill="#FFFFFF" stroke-linecap="square"></path>
                        <g id="Group-8" transform="translate(7.333768, 5.704042)" stroke-linecap="square">
                            <rect id="Rectangle-9" stroke-width="2" fill="#FFFFFF" x="0" y="0" width="35.8539765" height="32.5945241" rx="1"></rect>
                            <path d="M8.55606258,8.55606258 L28.1127771,8.55606258" id="Line"></path>
                            <path d="M8.55606258,13.4452412 L28.1127771,13.4452412" id="Line-Copy"></path>
                            <path d="M8.55606258,18.3344198 L19.964146,18.3344198" id="Line-Copy"></path>
                        </g>
                        <path d="M0,18.6689098 L0,47.0769231 C-1.89447421e-15,47.6292078 0.44771525,48.0769231 1,48.0769231 L48.7066493,48.0769231 C49.258934,48.0769231 49.7066493,47.6292078 49.7066493,47.0769231 L49.7066493,18.6689098 C49.7066493,18.1166251 49.258934,17.6689098 48.7066493,17.6689098 C48.4458162,17.6689098 48.1953057,17.7708221 48.0085491,17.9529097 L33.7006691,31.9030927 C33.5139126,32.0851803 33.2634021,32.1870926 33.002569,32.1870926 L16.7040803,32.1870926 C16.4432472,32.1870926 16.1927367,32.0851803 16.0059802,31.9030927 L1.69810014,17.9529097 C1.30266418,17.5673596 0.669549919,17.5753737 0.28399986,17.9708097 C0.101912228,18.1575662 1.90101761e-16,18.4080767 2.22044605e-16,18.6689098 Z" id="Path-12" stroke-width="2" fill="#FFFFFF" stroke-linecap="square"></path>
                        <g id="Group-9" transform="translate(15.482399, 35.853977)" stroke-linecap="round" stroke-linejoin="round">
                            <path d="M0.374837027,1.22229465 L9.37092568,1.22229465" id="Line-2"></path>
                            <path d="M11.6199478,1.22229465 L14.6186441,1.22229465" id="Line-2-Copy"></path>
                            <path d="M16.8676662,1.22229465 L18.3670143,1.22229465" id="Line-2-Copy"></path>
                        </g>
                    </g>
                </g>
            </g>
        </g>
    </g>
</svg>