<?xml version="1.0" encoding="UTF-8" standalone="no"?>
<svg viewBox="0 0 17 12" version="1.1" xmlns="http://www.w3.org/2000/svg" xmlns:xlink="http://www.w3.org/1999/xlink">
    <!-- Generator: Sketch 48.2 (47327) - http://www.bohemiancoding.com/sketch -->
    <title>Page 1</title>
    <desc>Created with Sketch.</desc>
    <defs>
        <path d="M16.1058749,12.2478754 L10.6311471,12.2478754 L10.6311471,10.6940863 L12.2253721,10.6940863 C12.403303,11.1346862 12.8306948,11.4476021 13.332299,11.4476021 C13.9921633,11.4476021 14.5295324,10.908092 14.5295324,10.2444946 C14.5295324,9.58089719 13.9921633,9.04048793 13.332299,9.04048793 C12.8306948,9.04048793 12.403303,9.35430296 12.2253721,9.79490286 L10.7330774,9.79490286 C11.0138326,8.82108716 11.8981223,8.10263957 12.9567664,8.10263957 L13.7802556,8.10263957 C15.062431,8.10263957 16.1058749,9.15198668 16.1058749,10.4414158 L16.1058749,12.2478754 Z M6.36885289,12.2478754 L0.894125072,12.2478754 L0.894125072,10.4414158 C0.894125072,9.15198668 1.93667491,8.10263957 3.21885026,8.10263957 L4.04323358,8.10263957 C5.10098354,8.10263957 5.98616736,8.82108716 6.26692263,9.79490286 L4.79251039,9.79490286 C4.6145795,9.35430296 4.18718771,9.04048793 3.68558355,9.04048793 C3.02571924,9.04048793 2.4892442,9.58089719 2.4892442,10.2444946 C2.4892442,10.908092 3.02571924,11.4476021 3.68558355,11.4476021 C4.18718771,11.4476021 4.6145795,11.1346862 4.79251039,10.6940863 L6.36885289,10.6940863 L6.36885289,12.2478754 Z M14.8666176,7.40667157 C15.6069531,6.87975005 16.0602745,5.98776005 15.9654973,5.01484354 C15.8242255,3.57255326 14.5474149,2.51781105 13.1132383,2.65988204 C11.6790617,2.80195303 10.630253,4.08598702 10.7715247,5.5282773 C10.8493136,6.31776039 11.2731289,6.98225697 11.8704045,7.40667157 C10.8269605,7.78612699 10.0276127,8.68171372 9.80229317,9.79490286 L7.19770683,9.79490286 C6.97238731,8.68171372 6.1730395,7.78612699 5.12959554,7.40667157 C5.8699311,6.87975005 6.32325251,5.98776005 6.22847525,5.01484354 C6.08720349,3.57255326 4.81039289,2.51781105 3.37621627,2.65988204 C1.94114553,2.80195303 0.893230947,4.08598702 1.03450271,5.5282773 C1.11139746,6.31776039 1.53610687,6.98225697 2.13338242,7.40667157 C0.893230947,7.85716248 0,9.04138711 0,10.4414158 L0,12.4259137 C0,12.8233528 0.321885026,13.1470588 0.717088308,13.1470588 L6.54588965,13.1470588 C6.94109294,13.1470588 7.26297796,12.8233528 7.26297796,12.4259137 L7.26297796,10.6940863 L9.73702204,10.6940863 L9.73702204,12.4259137 C9.73702204,12.8233528 10.0589071,13.1470588 10.4541103,13.1470588 L16.2829117,13.1470588 C16.678115,13.1470588 17,12.8233528 17,12.4259137 L17,10.4414158 C17,9.04138711 16.1058749,7.85716248 14.8666176,7.40667157 Z" id="path-1"></path>
    </defs>
    <g id="Sessions/individual" stroke="none" stroke-width="1" fill="none" fill-rule="evenodd" transform="translate(0.000000, -2.000000)">
        <g id="Page-1">
            <g id="Colour/Success">
                <rect id="Mask" x="0" y="0" width="18" height="15"></rect>
                <mask id="mask-2" fill="white">
                    <use xlink:href="#path-1"></use>
                </mask>
                <use id="Mask" fill="#CCCCCC" xlink:href="#path-1"></use>
                <g id="Colour/Fill/CCCCCC" mask="url(#mask-2)" fill="#CCCCCC">
                    <rect id="Rectangle" x="0" y="0" width="18" height="18"></rect>
                </g>
            </g>
        </g>
    </g>
</svg>