<?xml version="1.0" encoding="UTF-8" standalone="no"?>
<svg viewBox="0 0 17 12" version="1.1" xmlns="http://www.w3.org/2000/svg" xmlns:xlink="http://www.w3.org/1999/xlink">
    <!-- Generator: Sketch 48.2 (47327) - http://www.bohemiancoding.com/sketch -->
    <title>Mask</title>
    <desc>Created with Sketch.</desc>
    <defs>
        <path d="M15.5722486,8.12511373 C14.6649078,8.72295072 13.7853995,8.96497828 12.8910472,8.84733939 L12.8910472,7.96215493 C12.8910472,7.09047002 12.6776644,6.3055679 12.275948,5.65276847 C13.0227879,6.01339917 13.9542503,5.9468657 14.6547025,5.47727438 C15.1148672,5.76462184 15.5722486,6.29303261 15.5722486,7.25632158 L15.5722486,8.12511373 Z M5.08958599,9.37382165 C5.10257451,9.329466 5.10999652,9.28318185 5.10999652,9.23496918 L5.10999652,7.96215493 C5.10999652,7.18882385 5.2974023,6.50613257 5.66757509,5.92661638 C5.9459005,5.56694993 6.28360199,5.30853007 6.61573698,5.12532196 C7.70862809,5.95457973 9.28951641,5.95265122 10.384263,5.12532196 C10.7117592,5.30756582 11.0893541,5.59105626 11.3936565,6.01822044 C11.7248637,6.57652306 11.8909312,7.22739398 11.8909312,7.96215493 L11.8909312,9.23496918 C11.8909312,9.28511035 11.8983532,9.33428727 11.9122695,9.37960717 C9.6253624,10.9233766 7.38948162,10.9214481 5.08958599,9.37382165 Z M4.10988055,7.96215493 L4.10988055,8.8492679 C3.21923924,8.96015702 2.3406587,8.72295072 1.42775136,8.12414947 L1.42775136,7.25632158 C1.42775136,6.4540629 1.73669257,5.85815441 2.34715296,5.4830599 C3.03461672,5.94204444 3.96051258,6.01532768 4.71106343,5.65758974 C4.31584135,6.3055679 4.10988055,7.08372025 4.10988055,7.96215493 Z M14.802215,4.47155827 C14.8003595,4.47059402 14.798504,4.47155827 14.7975762,4.47059402 C14.8755074,4.27677912 14.9200394,4.06367916 14.9200394,3.83900816 C14.9200394,2.91718208 14.2019599,2.18724239 13.3122463,2.18724239 C12.4234605,2.18724239 11.7118752,2.91718208 11.7118752,3.83900816 C11.7118752,4.06367916 11.7564073,4.27677912 11.8343384,4.47155827 C11.8296996,4.47348678 11.8241331,4.47155827 11.8194944,4.47348678 C11.6858982,4.53712749 11.5578685,4.61041074 11.4363331,4.69044376 C11.1691407,4.47155827 10.8685492,4.2854574 10.5354865,4.13021263 C10.7303143,3.77922446 10.8499942,3.37809512 10.8499942,2.94418117 C10.8499942,1.40619729 9.47506668,0.215344558 7.91366114,0.59333182 C7.12414473,0.786182465 6.46729676,1.4389819 6.24834744,2.25184736 C6.06372492,2.94032416 6.17783834,3.59408784 6.47100777,4.12731987 C6.13330627,4.28449315 5.82900383,4.47252253 5.55995593,4.6894795 C5.436565,4.60848223 5.30946306,4.53423473 5.17957787,4.47252253 C5.17679462,4.47155827 5.17401136,4.47252253 5.17122811,4.47155827 C5.25008698,4.27677912 5.29461904,4.06367916 5.29461904,3.83900816 C5.29461904,2.91718208 4.57653949,2.18724239 3.68682593,2.18724239 C2.79804013,2.18724239 2.07996057,2.91718208 2.07996057,3.83900816 C2.07996057,4.06560767 2.12542039,4.28160039 2.20613476,4.47734379 C2.2033515,4.47830805 2.20056825,4.47734379 2.19778499,4.47830805 C1.10303839,4.99514777 0.5,5.98157882 0.5,7.25632158 L0.5,8.2205748 C0.5,8.48381593 0.632668445,8.73837878 0.846051258,8.88108825 C1.9612084,9.63609852 3.04946074,9.9417668 4.16090688,9.81448537 C4.19430593,9.8839116 4.24533225,9.94465955 4.30841934,9.99094371 C5.70375739,10.9976241 7.1074452,11.5 8.50927751,11.5 C9.90832657,11.5 11.3055201,10.9985883 12.6925084,9.99576498 C12.7583788,9.94948082 12.8094051,9.88487586 12.8446596,9.81255686 C13.9533225,9.93405277 15.0647686,9.62259898 16.1548765,8.88205251 C16.3673316,8.73837878 16.5,8.48478018 16.5,8.22153905 L16.5,7.25632158 C16.5,5.97482905 15.8969616,4.98550524 14.802215,4.47155827 Z" id="path-1"></path>
    </defs>
    <g id="Sessions/team" stroke="none" stroke-width="1" fill="none" fill-rule="evenodd" transform="translate(0.000000, -2.000000)">
        <g id="Colour/Success" transform="translate(0.000000, 2.000000)">
            <g>
                <mask id="mask-2" fill="white">
                    <use xlink:href="#path-1"></use>
                </mask>
                <use id="Mask" fill="#CCCCCC" xlink:href="#path-1"></use>
            </g>
        </g>
    </g>
</svg>