<svg xmlns="http://www.w3.org/2000/svg" viewBox="-17153 -1206 39 35.921">
  <defs>
    <style>
      .cls-1 {
        fill: #fcdfd3;
        fill-rule: evenodd;
      }

      .cls-2 {
        fill: #999;
      }
    </style>
  </defs>
  <g id="Icon-Invite" transform="translate(-17153 -1206)">
    <path id="Shape" class="cls-1" d="M32.684,6v8.876L19.59,22.421,6,14.623V6Z" transform="translate(0.158 0.158)"/>
    <path id="Combined-Shape" class="cls-2" d="M39,35.387h0V11.539h0l-.06-.059-.06-.059-.06-.059h0L33.275,8.038V5.9a.562.562,0,0,0-.6-.593H28.445L19.8.089a.544.544,0,0,0-.6,0L10.436,5.31H5.9a.562.562,0,0,0-.6.593V8.216L.179,11.361h0a.058.058,0,0,0-.06.059l-.06.059L0,11.539H0V35.506c0,.059,0,.059.06.119v.059l.06.059h0c.06.059.119.059.179.119h.06c.06,0,.119.059.179.059H38.583c.06,0,.06,0,.119-.059.06,0,.06-.059.119-.059a.058.058,0,0,0,.06-.059l.06-.059v-.059c0-.059.06-.059.06-.119ZM37.807,12.844V34.2L20.573,22.514Zm-19.5,9.67L.954,34.2V12.844ZM36.5,34.735H2.326L19.44,23.166ZM5.188,9.581v4.271L1.55,11.835ZM26.119,5.25H12.642l6.739-4.034Zm5.9,1.186v8.305L19.44,21.8,6.381,14.5V6.437Zm1.193,2.907,4.055,2.432L33.216,14.03ZM18.725,17.115l.477-1.127.06-.059c.06,0,.06,0,.06.059l.6,1.068,1.193.119a.058.058,0,0,1,.06.059v.059l-.835.89.239,1.186v.059h-.06l-1.073-.534-1.014.593h-.119l-.06-.059.119-1.186-.835-.771s-.06-.059,0-.059a.058.058,0,0,0,.06-.059Zm9.482-6.288H9.9a.593.593,0,1,1,0-1.186H28.266a.562.562,0,0,1,.6.593A.612.612,0,0,1,28.206,10.827Zm0,3.026H9.9a.593.593,0,1,1,0-1.187H28.266a.562.562,0,0,1,.6.593A.612.612,0,0,1,28.206,13.852Z"/>
  </g>
</svg>
