<svg xmlns="http://www.w3.org/2000/svg" viewBox="-18120 -1211.177 46.734 47.601">
  <defs>
    <style>
      .cls-1 {
        fill: #fff;
      }

      .cls-1, .cls-2 {
        stroke: #95989a;
      }

      .cls-1, .cls-4 {
        fill-rule: evenodd;
      }

      .cls-2, .cls-4 {
        fill: #fcdfd3;
      }

      .cls-3 {
        fill: #95989a;
      }

      .cls-4 {
        stroke: #979797;
        stroke-linecap: round;
        stroke-linejoin: round;
      }
    </style>
  </defs>
  <g id="Group_1886" data-name="Group 1886" transform="translate(-19413 -2079.5)">
    <path id="Path_171" data-name="Path 171" class="cls-1" d="M14.663,23.423,5.933,28.248,7.6,18.028.538,10.79,10.3,9.3,14.663,0l4.365,9.3,9.76,1.491-7.062,7.238,1.667,10.22Z" transform="translate(1309.911 869.5)"/>
    <path id="Path_169" data-name="Path 169" class="cls-2" d="M6.163,34.082c-.514-.946-3.285-6.308-3.211-11.218a2.418,2.418,0,0,1,1.191-2.188A26.778,26.778,0,0,0,7.15,19.244a27.409,27.409,0,0,1,2.58-4.469,31.992,31.992,0,0,1,5.416-5.329,13.282,13.282,0,0,0,3.118-2.552c1.44-1.5,1.547-3.1,2.624-3.112a.934.934,0,0,1,.359.079c.576.176,3.168,2.233,1.031,5.672A16.363,16.363,0,0,1,19.356,12.8s-2.525,2.214.259,3.868a8.673,8.673,0,0,0,4,.8,25.275,25.275,0,0,0,2.705-.37,4.074,4.074,0,0,1,3.008.171c2.211,1.35.947,13.439-4.142,17.587-1.918,1.565-8.492,2.1-12.1,1.064a10.082,10.082,0,0,0-3.1-.6,6.64,6.64,0,0,1-2.352-.091A2.383,2.383,0,0,1,6.163,34.082Z" transform="translate(1299.22 877.236)"/>
    <path id="Path_170" data-name="Path 170" class="cls-3" d="M23.214,15.734c1.751-.273,3.361-.544,3.7-.581.3-.033.324.361.077.477a2.289,2.289,0,0,0-.854,1.793c-.009.791-.64,5.872,3.574,12.857.974,1.611,1.718,1.557,2.964,1.668-.056.753-1.2,1.168-1.2,1.168s-3.664,1.19-5.889.473c0,0-3.281-.7-5.311-6.795a25.743,25.743,0,0,1-1.143-4.926c-.086-.713-.134-1.36-.15-1.9C18.9,17.221,21.027,16.122,23.214,15.734Z" transform="translate(1274.022 882.106)"/>
    <path id="Star-2" class="cls-4" d="M17.32,22.635,13.58,24.609l.714-4.181-3.025-2.961,4.181-.61,1.87-3.8,1.87,3.8,4.181.61-3.025,2.961.714,4.181Z" transform="translate(1283.576 867.431)"/>
  </g>
</svg>
