<svg class="cl-icon-invite" xmlns="http://www.w3.org/2000/svg" viewBox="-2032 -1953 38 35">
  <defs>
    <style>
      .cl-icon-invite-1 {
        fill: #fcdfd3;
        fill-rule: evenodd;
      }
      .cl-icon-invite-2 {
        fill: #999;
      }
    </style>
  </defs>
  <g transform="translate(-2032 -1953)">
    <path class="cl-icon-invite-1" d="M32,6v8.649L19.242,22,6,14.4V6Z"/>
    <path class="cl-icon-invite-2" d="M38,34.48h0V11.243h0l-.058-.058-.058-.058-.058-.058h0l-5.4-3.237V5.751a.548.548,0,0,0-.581-.578H27.716L19.291.087a.53.53,0,0,0-.581,0L10.168,5.173H5.752a.548.548,0,0,0-.581.578V8.006l-5,3.064h0a.057.057,0,0,0-.058.058l-.058.058L0,11.243H0V34.6c0,.058,0,.058.058.116v.058l.058.058h0c.058.058.116.058.174.116H.349c.058,0,.116.058.174.058h37.07c.058,0,.058,0,.116-.058.058,0,.058-.058.116-.058a.057.057,0,0,0,.058-.058l.058-.058v-.058c0-.058.058-.058.058-.116ZM36.838,12.514V33.324L20.046,21.936Zm-19,9.422L.93,33.324V12.514ZM35.56,33.844H2.266L18.942,22.572ZM5.055,9.335V13.5L1.511,11.532Zm20.394-4.22H12.318l6.566-3.931ZM31.2,6.272v8.093l-12.26,6.879L6.217,14.133V6.272ZM32.364,9.1l3.951,2.37-3.951,2.2ZM18.245,16.676l.465-1.1.058-.058c.058,0,.058,0,.058.058l.581,1.04,1.162.116a.057.057,0,0,1,.058.058v.058l-.813.867.232,1.156v.058h-.058l-1.046-.52-.988.578h-.116l-.058-.058.116-1.156-.813-.751s-.058-.058,0-.058a.057.057,0,0,0,.058-.058Zm9.239-6.127H9.645a.578.578,0,1,1,0-1.156h17.9a.548.548,0,0,1,.581.578A.6.6,0,0,1,27.483,10.549Zm0,2.948H9.645a.578.578,0,1,1,0-1.156h17.9a.548.548,0,0,1,.581.578A.6.6,0,0,1,27.483,13.5Z"/>
  </g>
</svg>
