<svg xmlns="http://www.w3.org/2000/svg" viewBox="-16577.076 -1522.5 23.932 23.784">
  <defs>
    <style>
      .cls-1, .cls-4 {
        fill: none;
      }

      .cls-1, .cls-4, .cls-5 {
        stroke: #333;
      }

      .cls-1, .cls-5 {
        stroke-linecap: round;
        stroke-linejoin: round;
      }

      .cls-1, .cls-2, .cls-3, .cls-4, .cls-5 {
        fill-rule: evenodd;
      }

      .cls-2 {
        fill: #333;
      }

      .cls-3 {
        fill: #4d4d4d;
      }

      .cls-4 {
        stroke-linecap: square;
      }

      .cls-5 {
        fill: #f2f2f2;
      }
    </style>
  </defs>
  <g id="Group-20" transform="translate(-16576.928 -1522.217)">
    <g id="Page-1-Copy" transform="translate(0.352 0.217)">
      <path id="Stroke-5" class="cls-1" d="M18.566,19.954s-.209-3.963-1.357-5.4c-1-1.25-4.117-1.943-6.372-2.135a5.52,5.52,0,0,1-.2-.936,4.91,4.91,0,0,1,.174-.854,5.869,5.869,0,0,0,3.555-5.031A5.487,5.487,0,0,0,9.186.217,5.486,5.486,0,0,0,4,5.594a5.868,5.868,0,0,0,3.551,5.029,5.323,5.323,0,0,1,.162.856,6.7,6.7,0,0,1-.2,1c-2.186.267-4.734.973-5.815,2.069C.41,15.86.352,19.771.352,19.771a25.113,25.113,0,0,0,8.774,1.347A36.734,36.734,0,0,0,18.566,19.954Z" transform="translate(-0.352 -0.217)"/>
      <path id="Fill-7" class="cls-2" d="M10.059.191A6.158,6.158,0,0,1,8.406,3.923c-.059.078-.128-.4-.2-.324-.019.019-.037.041-.056.06-.089.09-.182.174-.277.256-.019.016-.038.034-.058.05-.1.082-.2.158-.3.231l-.053.038c-.108.074-.219.141-.332.2l-.044.025q-.176.1-.36.175l-.033.014a3.979,3.979,0,0,1-.388.141A4.023,4.023,0,0,1,5.87,4.9a4.069,4.069,0,0,1-.446.06c-.1.008-.207.019-.312.019A5.218,5.218,0,0,1,0,0S1.729,2.382,3.026,2.663c.75.162,1.327-.732,2.086-.732s1.581.732,2.242.732C8.549,2.663,10.059.191,10.059.191Z" transform="translate(13.95 5.044) rotate(180)"/>
      <path id="Fill-17" class="cls-3" d="M8.6,19.472l-1.278.67.035.054A12.309,12.309,0,0,1,8.81,19.8Z" transform="translate(-2.904 -7.266)"/>
      <path id="Path-8" class="cls-4" d="M9.48,20.123l2.536,2.427a.7.7,0,0,0,.931.012L15.7,20.123" transform="translate(-3.694 -7.505)"/>
    </g>
    <g id="Page-1-Copy-2" transform="translate(10.443 6.48)">
      <path id="Stroke-5-2" data-name="Stroke-5" class="cls-5" d="M12.809,15.673s.269-3.112-.665-4.244c-.809-.982-2.471-1.526-4.3-1.677a4.206,4.206,0,0,1-.16-.735,3.737,3.737,0,0,1,.142-.671,4.23,4.23,0,0,0,2.452-3.951A4.019,4.019,0,0,0,6.5.17,4.018,4.018,0,0,0,2.721,4.394,4.229,4.229,0,0,0,5.17,8.344a4.051,4.051,0,0,1,.132.672A5.105,5.105,0,0,1,5.14,9.8,7.664,7.664,0,0,0,.85,11.429c-1.05,1.029-.875,4.1-.659,4.1a14.208,14.208,0,0,0,6.056,1.162A20.772,20.772,0,0,0,12.809,15.673Z" transform="translate(-0.027 -0.17)"/>
      <path id="Fill-7-2" data-name="Fill-7" class="cls-2" d="M7.542,0A4.457,4.457,0,0,1,6.448,2.9a1.88,1.88,0,0,1-.16.172c-.015.015-.03.032-.046.047-.072.071-.148.136-.225.2l-.047.039c-.08.064-.162.124-.247.181l-.043.03c-.088.058-.178.111-.27.161l-.036.02q-.143.075-.293.137L5.055,3.9a3.31,3.31,0,0,1-.315.111,3.363,3.363,0,0,1-.353.085,3.419,3.419,0,0,1-.363.047c-.085.006-.168.015-.254.015A4,4,0,0,1,0,.079S1.066.153,2.194.3a15.385,15.385,0,0,1,1.86.33,5.5,5.5,0,0,1,1.321.89Z" transform="translate(10.243 4.21) rotate(180)"/>
      <path id="Fill-17-2" data-name="Fill-17" class="cls-3" d="M5.609,15.3l-1.039.526.028.042a10.3,10.3,0,0,1,1.181-.309Z" transform="translate(-1.691 -5.707)"/>
      <path id="Path-8-2" data-name="Path-8" class="cls-4" d="M6.325,15.806a2.24,2.24,0,0,0,2.432,1.821,2.556,2.556,0,0,0,2.627-1.821" transform="translate(-2.333 -5.895)"/>
    </g>
  </g>
</svg>
