<svg xmlns="http://www.w3.org/2000/svg" viewBox="-16020.538 -11654.25 13.834 16.749">
  <defs>
    <style>
      .cl-icon-individual1 {
        fill: gray;
        stroke-width: 0.5px;
      }

      .cl-icon-individual1, .cl-icon-individual2 {
        stroke: gray;
        stroke-linecap: square;
        fill-rule: evenodd;
      }

      .cl-icon-individual2 {
        fill: none;
      }
    </style>
  </defs>
  <g id="SearchResultSSPType_Individual" data-name="SearchResultSSPType/Individual" transform="translate(-16369 -12112)">
    <g  data-name="Group 3403" transform="translate(349 458)">
      <path class="cl-icon-individual1" d="M1.1,3.59A5.733,5.733,0,0,1,2.519,1.022,4.417,4.417,0,0,1,5.254,0,5.081,5.081,0,0,1,6.664,1.879c.315.973,2.29,1.4.469,2.087s-6.04.018-6.04.018Z" transform="translate(0.162 0)"/>
      <path class="cl-icon-individual1" d="M5.344,0C3.869,0,6.382,1.17,6.588,1.716s.1,1.659.389,1.837.746-.842.979-.988a3.435,3.435,0,0,1,.709-.3A2.263,2.263,0,0,0,7.717.723,3.067,3.067,0,0,0,5.344,0Z" transform="translate(0.724 0)"/>
      <path class="cl-icon-individual1" d="M7.106,3.507a6.057,6.057,0,0,1,.944-.838,8.455,8.455,0,0,1,.877-.505l2.885.081a.454.454,0,0,1,.1.591c-.188.388-.213.66-.5.66Z" transform="translate(1.053 0.321)"/>
      <path class="cl-icon-individual2" d="M1.226,3.585a6.1,6.1,0,0,0-.287,2.3,13.778,13.778,0,0,0,.649,2.123,9.137,9.137,0,0,1,.156,1.075c.012.131,4.4,1.359,4.4,1.359s-.241-.918-.022-1.2,1.736-.194,2.068-.376a2.2,2.2,0,0,0,.957-1.033,9.163,9.163,0,0,0,.5-2.442,10.115,10.115,0,0,0,.006-1.96" transform="translate(0.135 0.508)"/>
      <path class="cl-icon-individual2" d="M1.288,9.378A4.8,4.8,0,0,0,.447,10.7,11.651,11.651,0,0,0,0,12.814a8.858,8.858,0,0,0,4.159,1.735,6.094,6.094,0,0,0,4.5-1.1c.833-.587-.062-.907-.573-1.664A8.263,8.263,0,0,0,6.608,10.2Z" transform="translate(0 1.39)"/>
      <path class="cl-icon-individual2" d="M1.693,8.447,1.156,9.473s5.064,1.654,5.823,1.7-.865-1.415-.865-1.415Z" transform="translate(0.171 1.252)"/>
    </g>
  </g>
</svg>
