<svg xmlns="http://www.w3.org/2000/svg" viewBox="2490.301 -253.691 40.98 54.609">
  <defs>
    <style>
      .cls-1 {
        fill: #f15e23;
        stroke: #f15e23;
        stroke-linecap: square;
      }

      .cls-1, .cls-5 {
        fill-rule: evenodd;
      }

      .cls-2 {
        fill: #333;
      }

      .cls-3 {
        fill: #fff;
      }

      .cls-4, .cls-5 {
        fill: none;
        stroke: #333;
      }
    </style>
  </defs>
  <g id="Group-16-Copy-2" transform="translate(2490 -253)">
    <path id="Path-9-Copy" class="cls-1" d="M4.549,11.112A17.787,17.787,0,0,1,8.9,3.163C12.185,0,17.314,0,17.314,0s3.372,2.8,4.34,5.816A44.208,44.208,0,0,1,23.1,12.277l-18.583.057Z"/>
    <path id="Path-10-Copy" class="cls-1" d="M19.319,0s3.194,3.623,3.827,5.313A39.435,39.435,0,0,1,24.343,11a30.985,30.985,0,0,1,3.013-3.058A13.34,13.34,0,0,1,29.538,7S28.9,3.746,26.622,2.238,19.319,0,19.319,0Z"/>
    <path id="Path-11-Copy" class="cls-1" d="M25.757,11.849a18.678,18.678,0,0,1,2.9-2.593,25.968,25.968,0,0,1,2.7-1.564l8.876.249a1.409,1.409,0,0,1,.3,1.829c-.577,1.2-.657,2.043-1.528,2.043S25.757,11.849,25.757,11.849Z"/>
    <path id="Path-12-Copy" class="cls-2" d="M17.948,32.981c-1.586-.454-3.172-.914-4.651-1.353l-.557-.166c-1.765-.526-3.223-.975-4.283-1.323-.594-.2-1.056-.357-1.373-.48-.146-.057-.26-.105-.338-.143a27.322,27.322,0,0,0-.474-3.224c-.047-.214-.106-.431-.177-.659-.1-.323-.22-.649-.4-1.091.018.045-.35-.874-.455-1.146a15.46,15.46,0,0,1-.966-3.651A10.2,10.2,0,0,1,4.2,18.159a18.518,18.518,0,0,1,.474-3.6c.1-.467.217-.9.329-1.295.067-.234.119-.4.147-.487l.1-.31-.617-.208-.1.311c-.032.1-.086.271-.156.514-.115.4-.231.851-.338,1.332a19.153,19.153,0,0,0-.49,3.733,10.847,10.847,0,0,0,.087,1.689,16.1,16.1,0,0,0,1,3.8c.107.278.476,1.2.457,1.152.169.429.284.741.379,1.046.066.21.119.409.162.6a27.175,27.175,0,0,1,.475,3.288c.038.419,1.423.875,6.444,2.37l.558.166c1.482.439,3.069.9,4.657,1.354l1.535.437.582.165.547.154-.144-.552c-.01-.039-.029-.114-.052-.218-.04-.175-.08-.368-.118-.571a10.656,10.656,0,0,1-.153-1.146,2.53,2.53,0,0,1,.2-1.511c.209-.275,1.144-.447,3.006-.591l.472-.036a7.707,7.707,0,0,0,2.783-.45,7.076,7.076,0,0,0,3.086-3.351,13.756,13.756,0,0,0,.835-2.61c.184-.816.323-1.669.448-2.652.057-.45.21-1.828.239-2.055.016-.124.031-.231.046-.324a16.244,16.244,0,0,0,.168-2.236c.016-.92-.013-1.9-.071-2.875-.016-.276-.034-.529-.052-.756-.011-.136-.019-.233-.024-.285l-.03-.326-.648.06.03.326c0,.049.012.143.023.276.017.222.035.472.051.744.057.956.085,1.923.07,2.824a15.639,15.639,0,0,1-.16,2.142c-.016.1-.032.214-.049.344-.03.235-.184,1.614-.239,2.058-.122.964-.258,1.8-.437,2.59a13.124,13.124,0,0,1-.793,2.485,6.427,6.427,0,0,1-2.806,3.047,8.183,8.183,0,0,1-2.519.371l-.473.036c-2.171.168-3.085.336-3.473.845a2.95,2.95,0,0,0-.331,1.957,11.3,11.3,0,0,0,.162,1.217q.027.149.056.289Z"/>
    <path id="Path-14-Copy" class="cls-2" d="M4.365,33.123c-.023.028-.066.08-.125.154-.1.122-.208.261-.325.414-.336.438-.672.9-.986,1.381-.287.435-.542.858-.756,1.261a8.5,8.5,0,0,0-.452.984l-.025.068a22.093,22.093,0,0,0-.735,2.9c-.16.8-.313,1.648-.453,2.5-.049.3-.093.575-.132.823-.023.149-.039.256-.048.314L.3,44.116l.157.117c.061.045.176.128.343.244.276.191.6.4.956.633a35.9,35.9,0,0,0,3.42,1.918A26.891,26.891,0,0,0,13.4,49.665a24.439,24.439,0,0,0,4.712.107,47.854,47.854,0,0,0,7.236-1.084c1.129-.251,2.189-.519,3.15-.788.337-.094.637-.181.9-.26.157-.047.266-.081.323-.1l.4-.128-.22-.357-.214-.346c-.171-.275-.361-.581-.567-.911-.589-.943-1.183-1.886-1.745-2.766l-.14-.218C26.683,41.95,26.2,41.2,25.791,40.6q-.189-.281-.409-.576c-.4-.54-.88-1.105-1.415-1.688-.607-.661-1.256-1.311-1.9-1.92-.227-.214-.438-.407-.628-.577-.114-.1-.2-.174-.24-.213l-.071-.061L4.483,32.982Zm16.475,3.06.162.144c.186.167.393.357.617.567.638.6,1.276,1.238,1.871,1.886.521.568.983,1.117,1.373,1.638q.21.281.39.548c.4.6.886,1.342,1.437,2.2l.139.218c.561.878,1.154,1.819,1.741,2.761.2.323.388.623.556.893-.235.07-.5.147-.8.23-.951.265-2,.531-3.117.779a47.23,47.23,0,0,1-7.137,1.07,23.8,23.8,0,0,1-4.587-.1,26.265,26.265,0,0,1-8.028-2.577A35.26,35.26,0,0,1,2.1,44.556c-.353-.224-.665-.432-.934-.619L1,43.82l.017-.112c.038-.246.082-.521.13-.817.139-.845.291-1.69.449-2.477a21.626,21.626,0,0,1,.708-2.806l.022-.061a7.852,7.852,0,0,1,.417-.907c.2-.384.448-.789.724-1.208.3-.462.632-.916.959-1.343.114-.149.221-.284.316-.4C4.746,33.688,20.84,36.183,20.84,36.183Z"/>
    <path id="Path-13-Copy" class="cls-1" d="M6.387,30.025,4.734,33.2s15.582,5.119,17.918,5.253-2.662-4.382-2.662-4.382Z"/>
    <g id="Group-15" transform="translate(17.587 33.405)">
      <g id="Oval-2">
        <ellipse id="Ellipse_15" data-name="Ellipse 15" class="cls-3" cx="10.3" cy="10.257" rx="10.3" ry="10.257" transform="translate(0 0)"/>
        <ellipse id="Ellipse_16" data-name="Ellipse 16" class="cls-4" cx="9.8" cy="9.757" rx="9.8" ry="9.757" transform="translate(0.5 0.5)"/>
      </g>
      <g id="Group-4" transform="translate(3.613 3.572)">
        <path id="Path-15" class="cls-1" d="M1.241,7.109H5.61s-.684,4.529,3.359,4.529A3.488,3.488,0,0,0,12.71,8.1a3.087,3.087,0,0,0-1.584-2.716,6.147,6.147,0,0,0-3.308-.475l-.022.9H6.673L5.448,4.663,0,4.568Z"/>
        <g id="Path-16">
          <path id="Path_33" data-name="Path 33" class="cls-2" d="M3.3,4.617v2.5H1.246L.007,4.617Z"/>
          <path id="Path_34" data-name="Path 34" class="cls-5" d="M2.8,5.117H.812l.744,1.5H2.8Z"/>
        </g>
        <path id="Path-17" class="cls-2" d="M8.931,10.58a2.784,2.784,0,0,0,1.089-.222,2.107,2.107,0,0,0,.471-.274,2.529,2.529,0,0,0,.543-.607,4.1,4.1,0,0,0,.318-.583c.054-.119.09-.214.11-.272l.106-.31L10.953,8.1l-.106.31c-.014.04-.043.116-.088.215a3.454,3.454,0,0,1-.267.489,1.9,1.9,0,0,1-.4.452,1.461,1.461,0,0,1-.327.189,2.17,2.17,0,0,1-.826.171L8.616,9.92l-.01.655Z"/>
        <path id="Line" class="cls-2" d="M7.673,3.811,9.042,1.066,8.46.772,7.091,3.518Z"/>
        <path id="Line-2" data-name="Line" class="cls-2" d="M6.649,3.7V.629H6V3.7Z"/>
      </g>
    </g>
  </g>
</svg>
