<svg class="cl-icon-individual-trainer" xmlns="http://www.w3.org/2000/svg" viewBox="-10477.705 -22762.25 15.372 18.75">
  <defs>
    <style>
      .cl-icon-individual-trainer-1 {
        fill: gray;
        stroke-width: 0.5px;
      }
      .cl-icon-individual-trainer-1, .cl-icon-individual-trainer-2 {
        stroke: gray;
        stroke-linecap: square;
        fill-rule: evenodd;
      }
      .cl-icon-individual-trainer-2 {
        fill: none;
      }
    </style>
  </defs>
  <g data-name="SearchResultSSPType/Individual" transform="translate(-10481 -22762)">
    <g data-name="Group 2121" transform="translate(3.833)">
      <path class="cl-icon-individual-trainer-1" d="M1.41,4.038A6.465,6.465,0,0,1,2.991,1.149,4.918,4.918,0,0,1,6.048,0,5.711,5.711,0,0,1,7.625,2.114c.352,1.095,2.56,1.574.524,2.348S1.4,4.482,1.4,4.482Z" transform="translate(0.007)"/>
      <path class="cl-icon-individual-trainer-1" d="M6.755,0C5.106,0,7.915,1.316,8.145,1.931S8.259,3.8,8.58,4s.834-.947,1.095-1.111a3.828,3.828,0,0,1,.793-.341A2.548,2.548,0,0,0,9.408.813,3.415,3.415,0,0,0,6.755,0Z" transform="translate(0.029 0)"/>
      <path class="cl-icon-individual-trainer-1" d="M9.08,4.293a6.788,6.788,0,0,1,1.055-.942,9.445,9.445,0,0,1,.98-.568l3.225.091a.512.512,0,0,1,.111.665c-.21.436-.239.743-.555.743Z" transform="translate(0.042 0.013)"/>
      <path class="cl-icon-individual-trainer-2" d="M1.517,4.584A6.9,6.9,0,0,0,1.2,7.171,15.573,15.573,0,0,0,1.921,9.56,10.337,10.337,0,0,1,2.1,10.77c.013.147,4.92,1.529,4.92,1.529s-.27-1.033-.025-1.355,1.941-.218,2.312-.423a2.468,2.468,0,0,0,1.07-1.163,10.364,10.364,0,0,0,.561-2.747,11.451,11.451,0,0,0,.007-2.205" transform="translate(0.005 0.021)"/>
      <path class="cl-icon-individual-trainer-2" d="M1.44,12.057A5.4,5.4,0,0,0,.5,13.547,13.175,13.175,0,0,0,0,15.923a9.87,9.87,0,0,0,4.65,1.952,6.782,6.782,0,0,0,5.028-1.238c.931-.66-.069-1.02-.64-1.872a9.279,9.279,0,0,0-1.649-1.784Z" transform="translate(0 0.056)"/>
      <path class="cl-icon-individual-trainer-1" d="M2.078,10.861l-.6,1.154s5.662,1.86,6.511,1.909-.967-1.592-.967-1.592Z" transform="translate(0.007 0.051)"/>
    </g>
  </g>
</svg>
