<svg xmlns="http://www.w3.org/2000/svg" viewBox="-1505.008 -1530 14.016 13">
  <defs>
    <style>
      .cls-1 {
        fill: #c91818;
      }
    </style>
  </defs>
  <path id="Path_257" data-name="Path 257" class="cls-1" d="M8-1.258V-2.742a.249.249,0,0,0-.074-.184A.24.24,0,0,0,7.75-3H6.25a.24.24,0,0,0-.176.074A.249.249,0,0,0,6-2.742v1.484a.249.249,0,0,0,.074.184A.24.24,0,0,0,6.25-1h1.5a.24.24,0,0,0,.176-.074A.249.249,0,0,0,8-1.258ZM7.984-4.18l.141-3.586a.172.172,0,0,0-.078-.148A.3.3,0,0,0,7.859-8H6.141a.3.3,0,0,0-.188.086.187.187,0,0,0-.078.164l.133,3.57a.15.15,0,0,0,.078.129A.336.336,0,0,0,6.273-4H7.719A.318.318,0,0,0,7.9-4.051.174.174,0,0,0,7.984-4.18Zm-.109-7.3,6,11a.932.932,0,0,1-.016.984A.982.982,0,0,1,13.5.867.977.977,0,0,1,13,1H1A.977.977,0,0,1,.5.867.982.982,0,0,1,.141.508.932.932,0,0,1,.125-.477l6-11a1,1,0,0,1,.367-.383A.969.969,0,0,1,7-12a.969.969,0,0,1,.508.141A1,1,0,0,1,7.875-11.477Z" transform="translate(-1505 -1518)"/>
</svg>
