<svg class="cl-icon-location-marker" xmlns="http://www.w3.org/2000/svg" viewBox="-7265 -1121 16 20.633">
  <defs>
    <style>
      .cl-icon-location-marker-1 {
        fill: #b3b3b3;
      }
    </style>
  </defs>
  <path data-name="Path 67" class="cl-icon-location-marker-1" d="M4967.559,1353.175c-.309-.32-7.559-7.9-7.559-12.174a8,8,0,1,1,16,0c0,4.278-7.253,11.854-7.561,12.174l-.441.457ZM4961.223,1341c0,2.937,4.54,8.444,6.775,10.859,2.237-2.415,6.777-7.925,6.777-10.859a6.776,6.776,0,1,0-13.553,0Zm2.726-.177a4.051,4.051,0,1,1,4.051,4.051A4.055,4.055,0,0,1,4963.948,1340.824Zm1.223,0A2.828,2.828,0,1,0,4968,1338,2.832,2.832,0,0,0,4965.171,1340.824Z" transform="translate(-12225 -2454)"/>
</svg>
