<svg class="cl-icon-master-logo" xmlns="http://www.w3.org/2000/svg" viewBox="691.946 298.611 535.246 416.314">
  <defs>
    <style>
      .cl-icon-master-logo-1 {
        fill: #ff5f00;
      }
      .cl-icon-master-logo-2 {
        fill: #eb001b;
      }
      .cl-icon-master-logo-3 {
        fill: #f79e1b;
      }
    </style>
  </defs>
  <g data-name="Group 1" transform="translate(145 -34)">
    <path data-name="Path 1" d="M90.844,153.428V125.86A16.357,16.357,0,0,0,73.568,108.4a17,17,0,0,0-15.438,7.811A16.127,16.127,0,0,0,43.612,108.4a14.519,14.519,0,0,0-12.865,6.524V109.5H21.19v43.924h9.649V129.26A10.292,10.292,0,0,1,41.59,117.59c6.341,0,9.557,4.135,9.557,11.578v24.443H60.8V129.26a10.338,10.338,0,0,1,10.751-11.67c6.524,0,9.649,4.135,9.649,11.578v24.443ZM233.6,109.5H217.885V96.179h-9.649V109.5h-8.73v8.73h8.914v20.216c0,10.2,3.951,16.265,15.254,16.265a22.422,22.422,0,0,0,11.946-3.4l-2.757-8.178a17.643,17.643,0,0,1-8.454,2.481c-4.595,0-6.341-2.941-6.341-7.351V118.233H233.69Zm81.508-1.1a12.957,12.957,0,0,0-11.578,6.432V109.5h-9.465v43.924h9.557V128.8c0-7.259,3.124-11.3,9.189-11.3a15.576,15.576,0,0,1,5.973,1.1l2.941-9.189a20.445,20.445,0,0,0-6.8-1.195ZM191.879,113A32.851,32.851,0,0,0,173.96,108.4c-11.119,0-18.378,5.33-18.378,14.059,0,7.168,5.33,11.578,15.162,12.957l4.595.643c5.238.735,7.719,2.114,7.719,4.595,0,3.4-3.492,5.33-10.016,5.33a23.386,23.386,0,0,1-14.611-4.595l-4.595,7.443a31.7,31.7,0,0,0,19.022,5.7c12.681,0,20.032-5.973,20.032-14.335s-5.789-11.762-15.346-13.141l-4.595-.643c-4.135-.551-7.443-1.378-7.443-4.319s3.124-5.146,8.362-5.146a28.3,28.3,0,0,1,13.784,3.768ZM447.844,108.4a12.957,12.957,0,0,0-11.578,6.432V109.5H426.8v43.924h9.557V128.8c0-7.259,3.124-11.3,9.189-11.3a15.575,15.575,0,0,1,5.973,1.1l2.941-9.189a20.446,20.446,0,0,0-6.8-1.195ZM324.709,131.374a22.192,22.192,0,0,0,23.432,22.973,22.973,22.973,0,0,0,15.805-5.238l-4.595-7.719a19.3,19.3,0,0,1-11.486,3.951,14.105,14.105,0,0,1,0-28.119,19.3,19.3,0,0,1,11.486,3.951l4.595-7.719a22.973,22.973,0,0,0-15.805-5.238,22.192,22.192,0,0,0-23.432,22.973Zm89.5,0V109.5h-9.557v5.33a16.678,16.678,0,0,0-13.784-6.432,22.973,22.973,0,0,0,0,45.946,16.678,16.678,0,0,0,13.784-6.432v5.33h9.557Zm-35.562,0a13.187,13.187,0,1,1,3.586,9.945,13.278,13.278,0,0,1-3.586-9.945ZM263.325,108.4a22.975,22.975,0,1,0,.643,45.946,26.7,26.7,0,0,0,18.241-5.973l-4.595-7.076a20.905,20.905,0,0,1-12.773,4.595A12.176,12.176,0,0,1,251.7,135.141h32.622v-3.676c0-13.784-8.546-22.973-20.859-22.973Zm0,8.546a10.889,10.889,0,0,1,11.119,10.659H251.471a11.3,11.3,0,0,1,11.67-10.659ZM502.75,131.465V91.86h-9.189v22.973a16.678,16.678,0,0,0-13.784-6.432,22.973,22.973,0,0,0,0,45.946,16.678,16.678,0,0,0,13.784-6.432v5.33h9.189Zm15.943,15.576a4.418,4.418,0,0,1,4.135,2.619,4.273,4.273,0,0,1,0,3.4,4.39,4.39,0,0,1-2.389,2.3,4.319,4.319,0,0,1-1.746.368,4.6,4.6,0,0,1-4.135-2.665,4.319,4.319,0,0,1,0-3.4,4.46,4.46,0,0,1,4.273-2.619Zm0,7.765a3.262,3.262,0,0,0,1.332-.276,3.444,3.444,0,0,0,1.057-.735,3.31,3.31,0,0,0-1.057-5.33,3.308,3.308,0,0,0-1.332-.276,3.447,3.447,0,0,0-1.332.276,3.355,3.355,0,0,0-1.1.735,3.333,3.333,0,0,0,2.573,5.605Zm.276-5.468a1.838,1.838,0,0,1,1.195.368,1.149,1.149,0,0,1,.414.965,1.1,1.1,0,0,1-.322.827,1.608,1.608,0,0,1-.965.414l1.332,1.516h-1.057l-1.241-1.516h-.414v1.516h-.873v-4.043Zm-1.011.781v1.1h1.011a.965.965,0,0,0,.551,0,2801.552,2801.552,0,0,1,0-.827.965.965,0,0,0-.551,0Zm-50.541-18.654A13.187,13.187,0,1,1,471,141.41,13.278,13.278,0,0,1,467.417,131.465Zm-322.679,0V109.5h-9.557v5.33A16.678,16.678,0,0,0,121.4,108.4a22.973,22.973,0,0,0,0,45.946,16.678,16.678,0,0,0,13.784-6.432v5.33h9.557Zm-35.562,0a5.629,5.629,0,1,1-.092,0Z" transform="translate(553.483 593.2)"/>
    <g data-name="&lt;Group&gt;" transform="translate(546.946 332.611)">
      <rect data-name="Rectangle 2" class="cl-icon-master-logo-1" width="144.73" height="260.1" transform="translate(195.246 35.376)"/>
      <path data-name="&lt;Path&gt;" class="cl-icon-master-logo-2" d="M219.591,180.585A165.13,165.13,0,0,1,282.766,50.512a165.406,165.406,0,1,0,0,260.1,165.13,165.13,0,0,1-63.176-130.027Z" transform="translate(-15.155 -15.137)"/>
      <path data-name="Path 2" class="cl-icon-master-logo-3" d="M341.035,180.6A165.406,165.406,0,0,1,73.4,310.627a165.405,165.405,0,0,0,63.2-130.05A165.405,165.405,0,0,0,73.4,50.526,165.406,165.406,0,0,1,341.035,180.554Z" transform="translate(194.211 -15.151)"/>
      <path data-name="Path 3" class="cl-icon-master-logo-3" d="M130.8,78.492v-5.33h2.159v-1.1H127.49v1.1h2.343v5.33Zm10.614,0V72.06h-1.654l-1.93,4.595L135.9,72.06h-1.47v6.432h1.195V73.668l1.792,4.181h1.241l1.792-4.181v4.87Z" transform="translate(388.643 189.416)"/>
    </g>
  </g>
</svg>
