<svg xmlns="http://www.w3.org/2000/svg" viewBox="1316.48 347.773 106.849 105.789">
  <defs>
    <style>
      .cls-1, .cls-10, .cls-11, .cls-3, .cls-9 {
        fill: none;
      }

      .cls-1, .cls-10, .cls-3, .cls-4, .cls-5, .cls-6, .cls-9 {
        stroke: #333;
      }

      .cls-1, .cls-4, .cls-5, .cls-6, .cls-7 {
        stroke-linecap: round;
        stroke-linejoin: round;
      }

      .cls-1, .cls-10, .cls-11, .cls-2, .cls-3, .cls-4, .cls-5, .cls-6, .cls-7, .cls-9 {
        fill-rule: evenodd;
      }

      .cls-2 {
        fill: #333;
      }

      .cls-10, .cls-3 {
        stroke-linecap: square;
      }

      .cls-4 {
        fill: #f2f2f2;
      }

      .cls-5 {
        fill: #fef275;
      }

      .cls-6 {
        fill: #fff;
      }

      .cls-7, .cls-8 {
        fill: #f15e23;
      }

      .cls-11, .cls-7 {
        stroke: #f15e23;
      }

      .cls-10 {
        stroke-width: 0.75px;
        stroke-dasharray: 1 1;
      }
    </style>
  </defs>
  <g id="Group_10" data-name="Group 10" transform="translate(1317 348)">
    <g id="Group" transform="translate(0 0)">
      <g id="Page-1-Copy" transform="translate(0.053 0)">
        <path id="Stroke-5" class="cls-1" d="M84.226,92.268s-.965-18.324-6.275-24.987c-4.6-5.781-19.038-8.984-29.467-9.874a25.527,25.527,0,0,1-.911-4.328,22.69,22.69,0,0,1,.807-3.951c8.139-3.536,16.438-12.606,16.438-23.263C64.817,12.134,52.709,1,40.849,1S16.882,12.134,16.882,25.865c0,10.652,8.289,19.717,16.42,23.255a24.608,24.608,0,0,1,.749,3.958,30.981,30.981,0,0,1-.922,4.632c-10.108,1.235-21.891,4.5-26.889,9.57C.268,73.34,0,91.422,0,91.422s15.168,6.229,40.574,6.229S84.226,92.268,84.226,92.268Z" transform="translate(0 -0.727)"/>
        <path id="Fill-7" class="cls-2" d="M47.722.931C47.634,7.953,43.3,13.671,39.43,18.305c-.279.381-.157-1.135-.483-.789-.09.094-.175.2-.267.292-.422.437-.864.845-1.313,1.244-.093.08-.18.167-.274.245-.465.4-.947.769-1.441,1.123-.082.062-.166.126-.251.185-.513.358-1.037.686-1.573.995l-.209.123q-.837.465-1.709.85c-.053.023-.105.047-.158.068a18.594,18.594,0,0,1-1.839.686,18.69,18.69,0,0,1-2.063.526,18.84,18.84,0,0,1-2.118.29c-.495.04-.982.092-1.479.092C12.338,24.235.4,14.036,0,0,0,0,8.2,11.593,14.355,12.958c3.56.79,6.3-3.561,9.9-3.561s7.5,3.561,10.636,3.561C40.559,12.958,47.722.931,47.722.931Z" transform="translate(64.339 24.235) rotate(180)"/>
        <path id="Path-8" class="cls-3" d="M22.059,48.948l12.964,12.4a1.322,1.322,0,0,0,1.766.03L50.826,48.948" transform="translate(4.524 9.107)"/>
      </g>
      <g id="Page-1-Copy-2" transform="translate(0 0)">
        <path id="Stroke-5-2" data-name="Stroke-5" class="cls-4" d="M99.172,97.1S100.415,82.71,96.1,77.476c-3.743-4.54-11.425-7.057-19.9-7.755a19.459,19.459,0,0,1-.74-3.4,17.289,17.289,0,0,1,.656-3.1c6.618-2.778,11.338-9.9,11.338-18.273,0-10.786-7.818-19.531-17.461-19.531s-17.46,8.746-17.46,19.531c0,8.367,4.712,15.487,11.324,18.267a18.735,18.735,0,0,1,.609,3.109,23.6,23.6,0,0,1-.75,3.638c-8.219.97-15.772,3.534-19.836,7.517-4.856,4.759-4.048,18.962-3.046,18.962,0,0,10.389,5.372,28,5.372A96.057,96.057,0,0,0,99.172,97.1Z" transform="translate(6.478 3.251)"/>
        <path id="Stroke-5-3" data-name="Stroke-5" class="cls-5" d="M99.1,89.163s1.348-14.417-3.074-19.627c-2.44-2.875-4.822-5.712-13.3-6.411a13.607,13.607,0,0,1-13.094,8.846c-10.649,0-11.548-8.98-11.584-8.846-8.219.97-9.829,2.027-14.246,6.411C39,74.308,39.755,88.5,40.757,88.5c0,0,10.389,5.372,28,5.372A96.057,96.057,0,0,0,99.1,89.163Z" transform="translate(6.467 10.984)"/>
        <g id="Group-2" data-name="Group">
          <g id="Page-1-Copy-2-2" data-name="Page-1-Copy">
            <path id="Stroke-5-4" data-name="Stroke-5" class="cls-1" d="M85.226,92.268s-.965-18.324-6.275-24.987c-4.6-5.781-19.038-8.984-29.467-9.874a25.527,25.527,0,0,1-.911-4.328,22.69,22.69,0,0,1,.807-3.951c8.139-3.536,16.438-12.606,16.438-23.263C65.817,12.134,53.709,1,41.849,1S17.882,12.134,17.882,25.865c0,10.652,8.289,19.717,16.42,23.255a24.608,24.608,0,0,1,.749,3.958,30.981,30.981,0,0,1-.922,4.632c-10.108,1.235-21.891,4.5-26.889,9.57C1.268,73.34,1,91.422,1,91.422s15.168,6.229,40.574,6.229S85.226,92.268,85.226,92.268Z" transform="translate(-0.947 -0.727)"/>
            <path id="Fill-7-2" data-name="Fill-7" class="cls-2" d="M47.722.931C47.634,7.953,43.3,13.671,39.43,18.305c-.279.381-.157-1.135-.483-.789-.09.094-.175.2-.267.292-.422.437-.864.845-1.313,1.244-.093.08-.18.167-.274.245-.465.4-.947.769-1.441,1.123-.082.062-.166.126-.251.185-.513.358-1.037.686-1.573.995l-.209.123q-.837.465-1.709.85c-.053.023-.105.047-.158.068a18.6,18.6,0,0,1-1.839.686,18.69,18.69,0,0,1-2.063.526,18.84,18.84,0,0,1-2.118.29c-.495.04-.982.092-1.479.092C12.338,24.235.4,14.036,0,0,0,0,8.2,11.593,14.355,12.958c3.56.79,6.3-3.561,9.9-3.561s7.5,3.561,10.636,3.561C40.559,12.958,47.722.931,47.722.931Z" transform="translate(64.392 24.235) rotate(180)"/>
            <path id="Path-8-2" data-name="Path-8" class="cls-3" d="M23.059,48.948l12.964,12.4a1.322,1.322,0,0,0,1.766.03L51.826,48.948" transform="translate(3.578 9.107)"/>
            <path id="Stroke-5-Copy-2" class="cls-6" d="M85.235,82.748s-.965-20.734-6.275-27.4c-4.6-5.78-15.083-5.857-25.512-6.747C53.333,48.19,41.58,62,41.58,62S31.1,48.427,31.056,48.6c-10.108,1.235-20.014,2.882-25.011,7.952C.072,62.614,1.009,81.9,1.009,81.9S16.177,88.13,41.583,88.13,85.235,82.748,85.235,82.748Z" transform="translate(-0.956 9.034)"/>
          </g>
          <g id="Page-1-Copy-2-3" data-name="Page-1-Copy-2" transform="translate(46.478 28.665)">
            <path id="Stroke-5-5" data-name="Stroke-5" class="cls-6" d="M59.172,72.1S60.415,57.71,56.1,52.476c-3.743-4.54-11.425-7.057-19.9-7.755a19.459,19.459,0,0,1-.74-3.4,17.29,17.29,0,0,1,.656-3.1c6.618-2.778,11.338-9.9,11.338-18.273C47.446,9.16,39.629.414,29.985.414S12.525,9.16,12.525,19.946c0,8.367,4.712,15.487,11.324,18.267a18.736,18.736,0,0,1,.609,3.109,23.6,23.6,0,0,1-.75,3.638c-8.219.97-15.772,3.534-19.836,7.517C-.984,57.235-.176,71.438.826,71.438c0,0,10.389,5.372,28,5.372A96.057,96.057,0,0,0,59.172,72.1Z" transform="translate(0 -0.414)"/>
            <path id="Stroke-5-6" data-name="Stroke-5" class="cls-7" d="M59.1,64.163s1.348-14.417-3.074-19.627c-2.44-2.875-4.822-5.712-13.3-6.411a13.607,13.607,0,0,1-13.094,8.846c-10.649,0-11.548-8.98-11.584-8.846C9.83,39.1,8.22,40.152,3.8,44.536-1,49.308-.245,63.5.757,63.5c0,0,10.389,5.372,28,5.372A96.057,96.057,0,0,0,59.1,64.163Z" transform="translate(-0.011 7.318)"/>
            <path id="Fill-7-3" data-name="Fill-7" class="cls-2" d="M34.878.225a20.609,20.609,0,0,1-5.06,13.426,8.7,8.7,0,0,1-.741.795c-.071.07-.138.148-.212.218-.334.326-.684.631-1.041.928-.073.06-.143.125-.217.183-.369.3-.751.574-1.142.838-.065.046-.131.094-.2.138-.406.267-.822.512-1.247.743l-.166.092q-.663.347-1.355.635l-.125.051a15.319,15.319,0,0,1-1.457.512,15.572,15.572,0,0,1-1.635.392,15.806,15.806,0,0,1-1.678.217c-.392.03-.778.069-1.172.069C7.987,19.459.315,11.067,0,.591A22.649,22.649,0,0,1,8.639.225c3.089.4,13.89,3.21,16.214,3.832,2.036.545,4.964-2.726,4.964-2.726Z" transform="translate(47.432 19.692) rotate(180)"/>
            <g id="Rectangle" transform="translate(12.842 8.612)">
              <path id="Path_5" data-name="Path 5" class="cls-8" d="M11.978,8.537a2.6,2.6,0,0,1,1.9-.976H41.669a2.516,2.516,0,0,1,1.891.981s.52.342.9,2.344a9.3,9.3,0,0,0,.514,2.066.918.918,0,0,1-.819,1.259s-7.387.813-15.977.813c-8.864,0-16.528-.817-16.528-.817a1.062,1.062,0,0,1-.959-1.289s.06-.206.377-2.033C11.4,8.981,11.978,8.537,11.978,8.537Z" transform="translate(-10.667 -7.56)"/>
              <path id="Path_6" data-name="Path 6" class="cls-9" d="M12.366,8.784l-.124.129a2.113,2.113,0,0,0-.367.726,7.393,7.393,0,0,0-.316,1.248c-.242,1.4-.353,1.965-.38,2.049a.462.462,0,0,0,.432.571l.342.035c.282.028.611.059.984.092,1.067.1,2.272.191,3.591.28,3.767.254,7.684.407,11.547.407,3.743,0,7.53-.152,11.168-.4,1.273-.089,2.436-.184,3.465-.278.616-.057,1.05-.1,1.285-.127.278-.027.394-.206.351-.366a9.815,9.815,0,0,1-.58-2.247,9.761,9.761,0,0,0-.241-1.009,2.9,2.9,0,0,0-.4-.943l-.174-.175a1.931,1.931,0,0,0-1.386-.708H13.775A2.014,2.014,0,0,0,12.366,8.784Z" transform="translate(-10.565 -7.458)"/>
            </g>
            <path id="Path-8-3" data-name="Path-8" class="cls-3" d="M15.384,38.448s1.078,8.421,11.245,8.421,12.146-8.421,12.146-8.421" transform="translate(3.142 7.386)"/>
          </g>
          <path id="Path-4" class="cls-10" d="M52.545,62.962s1.134,10.456,14.367,10.456S81.646,62.67,81.646,62.67" transform="translate(9.625 11.921)"/>
        </g>
        <path id="Fill-7-4" data-name="Fill-7" class="cls-2" d="M34.878.225a20.609,20.609,0,0,1-5.06,13.426,8.707,8.707,0,0,1-.742.794c-.071.07-.138.148-.212.218-.334.326-.684.631-1.041.928-.073.06-.143.125-.217.183-.369.3-.751.574-1.142.839-.065.046-.131.094-.2.138-.406.267-.822.512-1.247.743l-.166.092q-.663.347-1.355.635l-.125.051a15.34,15.34,0,0,1-1.457.512,15.572,15.572,0,0,1-1.635.392,15.814,15.814,0,0,1-1.679.217c-.392.03-.778.069-1.172.069C7.987,19.459.315,11.067,0,.591A22.649,22.649,0,0,1,8.639.225c3.089.4,13.89,3.21,16.214,3.832,2.036.545,4.964-2.726,4.964-2.726Z" transform="translate(93.91 48.358) rotate(180)"/>
        <g id="Rectangle-2" data-name="Rectangle" transform="translate(59.32 37.277)">
          <path id="Path_7" data-name="Path 7" class="cls-8" d="M51.978,33.537a2.6,2.6,0,0,1,1.9-.976H81.669a2.516,2.516,0,0,1,1.891.981s.52.342.9,2.344a9.3,9.3,0,0,0,.514,2.066.918.918,0,0,1-.819,1.259s-7.387.813-15.977.813c-8.864,0-16.528-.817-16.528-.817a1.062,1.062,0,0,1-.959-1.289s.06-.206.377-2.033C51.4,33.981,51.978,33.537,51.978,33.537Z" transform="translate(-50.667 -32.56)"/>
          <path id="Path_8" data-name="Path 8" class="cls-11" d="M52.366,33.784l-.124.128a2.113,2.113,0,0,0-.367.726,7.392,7.392,0,0,0-.316,1.248c-.242,1.4-.353,1.965-.38,2.049a.462.462,0,0,0,.432.571l.342.035c.282.028.611.059.984.092,1.067.1,2.272.191,3.591.28,3.767.254,7.684.407,11.547.407,3.743,0,7.53-.152,11.168-.4,1.273-.089,2.436-.184,3.465-.278.616-.057,1.05-.1,1.285-.127.278-.027.394-.206.351-.366a9.816,9.816,0,0,1-.58-2.247,9.756,9.756,0,0,0-.241-1.01,2.9,2.9,0,0,0-.4-.943l-.174-.174a1.931,1.931,0,0,0-1.386-.708H53.775A2.013,2.013,0,0,0,52.366,33.784Z" transform="translate(-50.565 -32.458)"/>
        </g>
        <path id="Path-8-4" data-name="Path-8" class="cls-3" d="M55.384,63.448s1.078,8.421,11.245,8.421,12.146-8.421,12.146-8.421" transform="translate(9.619 11.052)"/>
      </g>
    </g>
    <path id="Path-3" class="cls-3" d="M889.2,359.314l15.406,17.1L920.012,358.8" transform="translate(-863.599 -300.924)"/>
  </g>
</svg>
