<svg class="cl-icon-preference" xmlns="http://www.w3.org/2000/svg" viewBox="0 0 51 49.467">
  <defs>
    <style>
      .cl-icon-preference-1 {
        fill: #fff;
        stroke: #42b7db;
        fill-rule: evenodd;
      }
    </style>
  </defs>
  <g transform="translate(0.203 -0.075)">
    <g data-name="Group 4061" transform="translate(0.297 0.575)">
      <g data-name="Group 4060" transform="translate(0 0)">
        <path data-name="Path 265" class="cl-icon-preference-1" d="M8.365,9.952a5.582,5.582,0,0,1,.366-1.98H2.276a1.98,1.98,0,0,0,0,3.96H8.732a5.58,5.58,0,0,1-.366-1.98" transform="translate(-0.297 -2.365)"/>
        <path data-name="Path 266" class="cl-icon-preference-1" d="M54.354,7.972h-29.1a5.531,5.531,0,0,1,0,3.96h29.1a1.98,1.98,0,1,0,0-3.96" transform="translate(-6.334 -2.365)"/>
        <path data-name="Path 267" class="cl-icon-preference-1" d="M15.916,15.749A7.587,7.587,0,1,1,23.5,8.162a7.6,7.6,0,0,1-7.587,7.587Zm0-11.215a3.628,3.628,0,1,0,3.627,3.628,3.632,3.632,0,0,0-3.627-3.628Z" transform="translate(-2.24 -0.575)"/>
        <path data-name="Path 268" class="cl-icon-preference-1" d="M29.594,31.912a5.581,5.581,0,0,1,.366-1.98H2.276a1.98,1.98,0,0,0,0,3.96H29.96a5.588,5.588,0,0,1-.366-1.979" transform="translate(-0.297 -7.677)"/>
        <path data-name="Path 269" class="cl-icon-preference-1" d="M61.129,29.931H53.254a5.534,5.534,0,0,1,0,3.96h7.875a1.98,1.98,0,1,0,0-3.96" transform="translate(-13.109 -7.677)"/>
        <path data-name="Path 270" class="cl-icon-preference-1" d="M43.92,37.709a7.587,7.587,0,1,1,7.587-7.587,7.6,7.6,0,0,1-7.587,7.587Zm0-11.215a3.628,3.628,0,1,0,3.628,3.627,3.632,3.632,0,0,0-3.628-3.627Z" transform="translate(-9.015 -5.888)"/>
        <path data-name="Path 271" class="cl-icon-preference-1" d="M8.365,53.871a5.582,5.582,0,0,1,.366-1.98H2.276a1.98,1.98,0,1,0,0,3.96H8.732a5.58,5.58,0,0,1-.366-1.98" transform="translate(-0.297 -12.99)"/>
        <path data-name="Path 272" class="cl-icon-preference-1" d="M54.354,51.891h-29.1a5.531,5.531,0,0,1,0,3.96h29.1a1.98,1.98,0,1,0,0-3.96" transform="translate(-6.334 -12.99)"/>
        <path data-name="Path 273" class="cl-icon-preference-1" d="M15.916,59.668A7.587,7.587,0,1,1,23.5,52.081a7.6,7.6,0,0,1-7.587,7.587Zm0-11.214a3.627,3.627,0,1,0,3.627,3.627,3.632,3.632,0,0,0-3.627-3.627Z" transform="translate(-2.24 -11.201)"/>
      </g>
    </g>
  </g>
</svg>
