<svg class="cl-icon-profile" xmlns="http://www.w3.org/2000/svg" viewBox="-14364 -776 39.532 29.362">
  <defs>
    <style>
      .cl-icon-profile-1 {
        fill: #42b7db;
        fill-rule: evenodd;
      }
    </style>
  </defs>
  <path data-name="Path 104" class="cl-icon-profile-1" d="M3.454,27.059H36.27c.384,0,.768-.192.768-.384a2.774,2.774,0,0,0,.384-1.343V3.838a1.622,1.622,0,0,0-.384-1.151c0-.192-.384-.384-.768-.384H3.454a1.73,1.73,0,0,0-.96.192A.705.705,0,0,0,2.3,3.07V26.291c0,.192,0,.384.192.384C2.879,26.867,3.071,27.059,3.454,27.059Zm31.856-6.717H22.453v-2.3H35.695v2.3Zm-12.858-4.99V14.2c0-.384,0-.384.192-.576s.192-.192.384-.192H35.695v2.3H22.453Zm12.858-4.222H22.453V9.02H35.695v2.111ZM5.373,20.918v.768c.192.192.192.192.384.192H18.231c.192,0,.384,0,.384-.192v-.768c0-.768,0-.96-.384-1.151-.192,0-.384-.192-.576-.192l-.192-.192-.576-.192a11.009,11.009,0,0,1-1.343-.768c-.192,0-1.343-.768-2.3-1.151a7.547,7.547,0,0,0-1.151-.384A36.925,36.925,0,0,0,7.292,19c-.192.192-.384.384-.576.384l-.384.192c-.192,0-.384.192-.576.192C5.373,19.958,5.373,20.15,5.373,20.918Zm3.838-9.4h0a2.886,2.886,0,0,0,.768,2.111,2.749,2.749,0,0,0,2.111.96,2.432,2.432,0,0,0,1.727-.768,3.093,3.093,0,0,0,.768-1.343,3.558,3.558,0,0,0,.384-1.343,3.22,3.22,0,0,0-1.151-2.687.188.188,0,0,0-.192-.192A2.679,2.679,0,0,0,11.9,7.676a3.1,3.1,0,0,0-1.727.576v.192C9.212,9.4,9.212,10.171,9.212,11.514ZM7.292,13.242a8.247,8.247,0,0,1-.384-2.3,5.909,5.909,0,0,1,.576-2.495A4.892,4.892,0,0,1,9.212,6.333a4.585,4.585,0,0,1,2.687-.96,5.11,5.11,0,0,1,2.3.576A4.5,4.5,0,0,1,16.312,8.06a6.308,6.308,0,0,1,.768,3.262,8.042,8.042,0,0,1-.768,2.879,10.97,10.97,0,0,1-1.343,1.535,25.619,25.619,0,0,1,2.3,1.151c.384.192.576.192.768.384.192,0,.384.192.576.192,1.151.576,2.3,1.151,2.3,2.879v.384a3.022,3.022,0,0,1-.768,2.495,2.649,2.649,0,0,1-.768.576,1.438,1.438,0,0,1-.96.192H5.565a1.438,1.438,0,0,1-.96-.192,2.649,2.649,0,0,1-.768-.576c-.192-.384-.384-.576-.576-.96a1.438,1.438,0,0,1-.192-.96V21.11c0-1.151,0-2.111,1.151-2.879h0l4.8-2.687c-.192,0-.192,0-.192-.192l-.192-.192A6.892,6.892,0,0,1,7.292,13.242ZM0,25.907V3.262A3.317,3.317,0,0,1,1.151.96,3.541,3.541,0,0,1,3.454,0H35.886a3.648,3.648,0,0,1,2.495.96,3,3,0,0,1,1.151,2.3V25.907a2.846,2.846,0,0,1-.192,1.343,5.088,5.088,0,0,1-.96,1.151,3.124,3.124,0,0,1-1.151.576,2.728,2.728,0,0,1-1.151.384H3.646a3.648,3.648,0,0,1-2.495-.96A3.378,3.378,0,0,1,0,25.907Z" transform="translate(-14364 -776)"/>
</svg>
