<svg class="cl-icon-review" xmlns="http://www.w3.org/2000/svg" viewBox="-1293 -1944 36 37">
  <defs>
    <style>
      .cl-icon-review-1 {
        fill: #fcdfd3;
      }
      .cl-icon-review-1, .cl-icon-review-2 {
        fill-rule: evenodd;
      }
      .cl-icon-review-2 {
        fill: #fff;
      }
      .cl-icon-review-3 {
        fill: #999;
      }
    </style>
  </defs>
  <g transform="translate(-1293 -1944)">
    <path class="cl-icon-review-1" d="M34.8,27v7A1.8,1.8,0,0,1,33,35.8H23.4A1.8,1.8,0,0,1,21.6,34V27.934a.6.6,0,0,0-.227-.47L18.521,25.2H33A1.8,1.8,0,0,1,34.8,27Z"/>
    <path data-name="Path" class="cl-icon-review-2" d="M29.714,28.167c.8,0,1.143.885,1.143,1.167,0,1.472-1.872,2.855-2.858,3.422-.985-.566-2.856-1.945-2.856-3.422,0-.281.344-1.167,1.133-1.167.551.072.834.5,1.321,1a.562.562,0,0,0,.807,0C28.89,28.668,29.242,28.23,29.714,28.167Z"/>
    <path class="cl-icon-review-3" d="M31.8,0H4.67A4.459,4.459,0,0,0,0,4.2V31.8a.6.6,0,0,0,.6.6H20.4V34a3,3,0,0,0,3,3H33a3,3,0,0,0,3-3V27a3,3,0,0,0-3-3H28.8V15.6h6.6A.6.6,0,0,0,36,15V4.2A4.2,4.2,0,0,0,31.8,0Zm3,27v7A1.8,1.8,0,0,1,33,35.8H23.4A1.8,1.8,0,0,1,21.6,34V27.934a.6.6,0,0,0-.227-.47L18.521,25.2H33A1.8,1.8,0,0,1,34.8,27Zm-18-3a.6.6,0,0,0-.373,1.07L20.4,28.223V31.2H1.2V4.2a3.264,3.264,0,0,1,3.47-3H28.864c-.006.005-.011.012-.016.017-.047.047-.091.1-.136.146s-.095.1-.139.153-.082.107-.124.162-.083.106-.121.162-.074.119-.11.179-.071.111-.1.169-.064.128-.095.193-.059.116-.085.176-.052.139-.077.208-.047.118-.066.179c-.024.077-.041.156-.061.234-.014.057-.032.112-.044.17-.019.092-.031.187-.044.281-.007.046-.016.092-.021.139A4.1,4.1,0,0,0,27.6,4.2V24Zm18-9.6h-6V4.2a3,3,0,0,1,6,0Z"/>
    <rect class="cl-icon-review-3" width="22" height="1" rx="0.5" transform="translate(4 5)"/>
    <rect data-name="Rectangle-path" class="cl-icon-review-3" width="22" height="1" rx="0.5" transform="translate(4 9)"/>
    <rect data-name="Rectangle-path" class="cl-icon-review-3" width="22" height="1" rx="0.5" transform="translate(4 13)"/>
    <rect data-name="Rectangle-path" class="cl-icon-review-3" width="22" height="1" rx="0.5" transform="translate(4 17)"/>
    <rect data-name="Rectangle-path" class="cl-icon-review-3" width="22" height="1" rx="0.5" transform="translate(4 21)"/>
    <path data-name="Shape" class="cl-icon-review-3" d="M26.286,27A2.421,2.421,0,0,0,24,29.333c0,2.663,3.591,4.527,3.745,4.606a.564.564,0,0,0,.511,0C28.409,33.861,32,32,32,29.333A2.421,2.421,0,0,0,29.714,27,3.211,3.211,0,0,0,28,27.95,3.211,3.211,0,0,0,26.286,27Zm3.429,1.167c.8,0,1.143.885,1.143,1.167,0,1.472-1.872,2.855-2.858,3.422-.985-.566-2.856-1.945-2.856-3.422,0-.281.344-1.167,1.133-1.167.551.072.834.5,1.321,1a.562.562,0,0,0,.807,0C28.89,28.668,29.242,28.23,29.714,28.167Z"/>
  </g>
</svg>
