<svg class="cl-icon-scheduler" xmlns="http://www.w3.org/2000/svg" viewBox="0 0 51 54.919">
  <defs>
    <style>
      .cl-icon-scheduler-1 {
        fill: #fff;
        stroke: #fff;
      }
    </style>
  </defs>
  <path data-name="Path 277" class="cl-icon-scheduler-1" d="M15905.51-13434.08a5.519,5.519,0,0,1-5.512-5.512v-38.974a5.484,5.484,0,0,1,4.611-5.435v-2.1a1.9,1.9,0,0,1,1.9-1.9h1.568a1.9,1.9,0,0,1,1.895,1.9v2.025h12.219v-2.025a1.9,1.9,0,0,1,1.9-1.9h1.566a1.9,1.9,0,0,1,1.9,1.9v2.025h12.217v-2.025a1.9,1.9,0,0,1,1.9-1.9h1.57a1.9,1.9,0,0,1,1.895,1.9v2.066a5.519,5.519,0,0,1,4.865,5.472v38.974a5.519,5.519,0,0,1-5.512,5.512Zm-4.07-5.512a4.076,4.076,0,0,0,4.07,4.071h38.977a4.076,4.076,0,0,0,4.072-4.071v-30.528h-47.119Zm0-38.974v7.006h47.121v-7.006a4.077,4.077,0,0,0-3.424-4.018v1.971a1.9,1.9,0,0,1-1.9,1.9h-1.57a1.9,1.9,0,0,1-1.9-1.9v-2.025h-12.217v2.025a1.9,1.9,0,0,1-1.9,1.9h-1.57a1.9,1.9,0,0,1-1.9-1.9v-2.025h-12.221v2.025a1.9,1.9,0,0,1-1.895,1.9h-1.568a1.9,1.9,0,0,1-1.895-1.9v-1.921A4.048,4.048,0,0,0,15901.439-13478.565Zm39.771-7.538v5.491a.458.458,0,0,0,.457.457h1.57a.458.458,0,0,0,.455-.457v-5.491a.457.457,0,0,0-.455-.456h-1.57A.457.457,0,0,0,15941.211-13486.1Zm-17.58,0v5.491a.46.46,0,0,0,.457.457h1.57a.458.458,0,0,0,.455-.457v-5.491a.457.457,0,0,0-.455-.456h-1.57A.459.459,0,0,0,15923.631-13486.1Zm-17.578,0v5.491a.455.455,0,0,0,.455.457h1.568a.455.455,0,0,0,.455-.457v-5.491a.454.454,0,0,0-.455-.456h-1.568A.454.454,0,0,0,15906.053-13486.1Zm11.658,43.233v-1.965h20.213v1.965Zm-5.893,0v-1.965h2.924v1.965Zm5.893-8.268v-1.965h20.213v1.965Zm-5.893,0v-1.965h2.924v1.965Zm5.893-8.265v-1.962h20.213v1.962Zm-5.893,0v-1.962h2.924v1.962Z" transform="translate(-15899.498 13488.499)"/>
</svg>
