<svg class="cl-icon-timeout" xmlns="http://www.w3.org/2000/svg" viewBox="-12552 40 261.201 468">
  <defs>
    <style>
      .cl-icon-timeout-1 {
        fill: #e6e7e8;
      }

      .cl-icon-timeout-2 {
        fill: #f3d8cb;
      }

      .cl-icon-timeout-3 {
        fill: #f4c3b6;
      }

      .cl-icon-timeout-4 {
        fill: #eda694;
      }

      .cl-icon-timeout-5 {
        fill: #585353;
      }

      .cl-icon-timeout-6 {
        fill: #997d4e;
      }

      .cl-icon-timeout-7 {
        fill: #6d6566;
      }

      .cl-icon-timeout-8 {
        fill: #b7b1ba;
      }

      .cl-icon-timeout-9 {
        fill: #bf7869;
      }

      .cl-icon-timeout-10 {
        fill: #f7f5f6;
      }

      .cl-icon-timeout-11 {
        fill: #e9e5e9;
      }

      .cl-icon-timeout-12 {
        fill: #af7364;
      }

      .cl-icon-timeout-13 {
        fill: #fefefe;
      }
    </style>
  </defs>
  <g transform="translate(-12552 39.668)">
    <g transform="translate(0 0.332)">
      <path data-name="Path 69" class="cl-icon-timeout-1" d="M175.331,14467.488c0,7.979-39.254,14.488-87.665,14.488S0,14475.468,0,14467.488c0-8.01,39.254-14.488,87.665-14.488S175.331,14459.479,175.331,14467.488Z" transform="translate(0 -14027.404)"/>
      <path data-name="Path 70" class="cl-icon-timeout-1" d="M6701.167,15339.275c0,4.564-14.606,8.274-32.6,8.274s-32.569-3.71-32.569-8.274,14.577-8.275,32.569-8.275S6701.167,15334.711,6701.167,15339.275Z" transform="translate(-6440.586 -14879.55)"/>
      <path data-name="Path 71" class="cl-icon-timeout-2" d="M2010.086,33.6s-19.73-11.249-23.264-14.017c-1.885-1.472,1-2.444,1-2.444s-8.893-6.979-9.983-8.834c-1.031-1.737-.265-2.8-.265-2.8s-2.091-1.855-1.384-3.151c.8-1.443,2.709-.677,2.709-.677s.677-1.8,3.151-1.237c2.474.53,4.329,1.06,4.329,1.06s1.62-1.207,5.477.383c5.094,2.12,15.254,10.954,17.374,13.222s8.982,10.071,8.982,10.071S2014.326,32.656,2010.086,33.6Z" transform="translate(-1917.856 -0.332)"/>
      <path data-name="Path 72" class="cl-icon-timeout-3" d="M1978.9,1.677s-1.914-.766-2.709.677c-.707,1.3,1.384,3.151,1.384,3.151s-.766,1.06.265,2.8c1.09,1.855,9.983,8.834,9.983,8.834a4.084,4.084,0,0,0-1.3.736c-.353.766,1.826,2.032,5.654,4.388,3.092,1.885,14.429,8.3,19.052,10.925,2.974-1.472,5.6-5.566,6.567-7.274-3.416-4.3-13.958-14.842-19.141-18.788a45.219,45.219,0,0,0-9.747-6.037,3.8,3.8,0,0,0-2.533.412s-1.855-.53-4.329-1.06C1979.578-.119,1978.9,1.677,1978.9,1.677Z" transform="translate(-1917.856 -0.332)"/>
      <path data-name="Path 73" class="cl-icon-timeout-4" d="M2396,580s1.855.059,5.86,2.591a18.455,18.455,0,0,1,1.826,1.178c.559.648-1.09.236-2.326-.707A30.929,30.929,0,0,0,2396,580Z" transform="translate(-2325.444 -562.93)"/>
      <path data-name="Path 74" class="cl-icon-timeout-4" d="M2648,690.625s.088-.353.854-.56a10.987,10.987,0,0,1,3.622-.206c2.208.294,2.591.825,2.591.825A18.2,18.2,0,0,0,2648,690.625Z" transform="translate(-2570.023 -669.492)"/>
      <path data-name="Path 75" class="cl-icon-timeout-4" d="M2050,191s4.211,2.68,7.3,4.594c2.208,1.384,4.447,2.5,5.448,3.121.471.294.118.412.118.412A51.078,51.078,0,0,1,2050,191Z" transform="translate(-1989.633 -185.385)"/>
      <path data-name="Path 76" class="cl-icon-timeout-4" d="M2087,65s6.272,3.828,8.422,5.242c1.5,1,4.034,2.621,5.183,3.534.471.383.53-.029.53-.029A46.793,46.793,0,0,0,2087,65Z" transform="translate(-2025.543 -63.096)"/>
      <path data-name="Path 77" class="cl-icon-timeout-4" d="M2356,66a16.885,16.885,0,0,1,5.448,2.5,23.142,23.142,0,0,1,3.71,2.856c.206.206-.088.412-.088.412S2359.563,67.944,2356,66Z" transform="translate(-2286.622 -64.066)"/>
      <path data-name="Path 78" class="cl-icon-timeout-4" d="M2458,269.8a18.1,18.1,0,0,1,2.326-4.27,12.3,12.3,0,0,1,3.74-3.534A42.218,42.218,0,0,0,2458,269.8Z" transform="translate(-2385.618 -254.295)"/>
      <path data-name="Path 79" class="cl-icon-timeout-3" d="M2674.37,3832.681l14.341-14.105s-1.3-.648-2.062-3.74c-.795-3.092-.913-9.835-.913-9.835h-22.763s-.118,6.743-.913,9.835c-.766,3.092-2.061,3.74-2.061,3.74l14.223,14.105v.118l.059-.059.088.059Z" transform="translate(-2581.669 -3692.962)"/>
      <path data-name="Path 80" class="cl-icon-timeout-4" d="M2781.822,3805h-22.763s0,.677-.059,1.678c0,.383,2.268,8.039,9.924,8.01C2780.114,3814.6,2781.822,3805,2781.822,3805Z" transform="translate(-2677.754 -3692.962)"/>
      <path data-name="Path 81" class="cl-icon-timeout-2" d="M3597.147,2822.043s6.361-1.09,6.361,6.066a7.257,7.257,0,0,1-6.508,7.6Z" transform="translate(-3491.077 -2738.893)"/>
      <path data-name="Path 82" class="cl-icon-timeout-2" d="M2627.018,2318c-10.248,0-15.018,3.269-15.018,3.269v32.481c0,7.568,8.1,14.164,15.136,14.282h.206c7.038-.118,15.136-6.714,15.136-14.282v-32.481S2637.266,2318,2627.018,2318Z" transform="translate(-2535.083 -2249.75)"/>
      <path data-name="Path 83" class="cl-icon-timeout-2" d="M2434.361,2822.043s-6.361-1.09-6.361,6.066a7.257,7.257,0,0,0,6.508,7.6Z" transform="translate(-2356.501 -2738.893)"/>
      <path data-name="Path 84" class="cl-icon-timeout-3" d="M2674.428,2318c-9.158,0-13.428,3.269-13.428,3.269v32.481c0,7.568,7.215,14.164,13.516,14.282h.177c6.3-.118,13.546-6.714,13.546-14.282v-32.481S2683.586,2318,2674.428,2318Z" transform="translate(-2582.64 -2249.75)"/>
      <path data-name="Path 85" class="cl-icon-timeout-5" d="M3324,2822.293s7.6-1.148,8.069-.412a1.2,1.2,0,0,1-.147,1.62c-.265.177-7.686.53-7.686.53Z" transform="translate(-3226.116 -2738.554)"/>
      <path data-name="Path 86" class="cl-icon-timeout-5" d="M2657.216,2822.293s-7.6-1.148-8.068-.412a1.2,1.2,0,0,0,.147,1.62c.265.177,7.715.53,7.715.53Z" transform="translate(-2570.906 -2738.554)"/>
      <path data-name="Path 87" class="cl-icon-timeout-4" d="M2998.327,2999v11.426s-3.327-2.268-3.327-3.681S2998.327,2999,2998.327,2999Z" transform="translate(-2906.805 -2910.697)"/>
      <path data-name="Path 88" class="cl-icon-timeout-3" d="M3647,2911.586s3.063-.648,3.3,3.092a4.042,4.042,0,0,1-3.3,4.329Z" transform="translate(-3539.605 -2825.815)"/>
      <path data-name="Path 89" class="cl-icon-timeout-3" d="M2498.958,2911.586s-3.092-.648-3.327,3.092a4.056,4.056,0,0,0,3.327,4.329Z" transform="translate(-2422.13 -2825.815)"/>
      <path data-name="Path 90" class="cl-icon-timeout-6" d="M3317.355,2621.043s.766-.824,4.093-1.3a12.035,12.035,0,0,1,4.417,0,1.077,1.077,0,0,0,0-1.237c-.442-.559-4.623-.677-6.92.5C3316.619,2620.16,3317.355,2621.043,3317.355,2621.043Z" transform="translate(-3219.56 -2541.014)"/>
      <path data-name="Path 91" class="cl-icon-timeout-6" d="M2657.609,2636.359s-.766-.825-4.093-1.3a12.034,12.034,0,0,0-4.417,0,1.077,1.077,0,0,1,0-1.237c.442-.56,4.623-.648,6.92.5C2658.345,2635.476,2657.609,2636.359,2657.609,2636.359Z" transform="translate(-2570.886 -2555.889)"/>
      <path data-name="Path 92" class="cl-icon-timeout-7" d="M2584.255,1747.412c8.128,0,16.373-2,16.373-2.532,0-7.3-2.709-21.879-16.314-21.879v.029a.029.029,0,0,0-.03-.029c-13.6,0-16.284,14.576-16.284,21.879C2568,1745.41,2576.1,1747.412,2584.255,1747.412Z" transform="translate(-2492.379 -1672.272)"/>
      <path data-name="Path 93" class="cl-icon-timeout-8" d="M2738,1751.175a64.588,64.588,0,0,1,1.855-11.514h0c1.531-5.742,4.211-11.632,9.129-11.661h0c4.918.03,7.656,5.124,9.217,10.454h0a53.921,53.921,0,0,1,1.944,12.662h-.53a53.9,53.9,0,0,0-1.914-12.515h0c-1.561-5.3-4.24-10.13-8.716-10.1h0c-4.417-.029-7.126,5.566-8.628,11.278h0a67.076,67.076,0,0,0-1.855,11.426h0l-.5-.029Z" transform="translate(-2657.373 -1677.124)"/>
      <path data-name="Path 94" class="cl-icon-timeout-5" d="M2601.99,2443c-3.769,1.59-15.342,1.914-16.2,1.944-.824-.03-12.4-.353-16.167-1.944,0,0-.648,4.24,1.944,5.948,1.914,1.237,7.568-.324,14.223-.383,6.655.059,12.309,1.62,14.223.383C2602.638,2447.24,2601.99,2443,2601.99,2443Z" transform="translate(-2493.889 -2371.069)"/>
      <path data-name="Path 95" class="cl-icon-timeout-6" d="M3645.059,2703a47.822,47.822,0,0,1,1.531,11.779c-.059,5.418-1.59,6.92-1.59,6.92Z" transform="translate(-3537.664 -2623.413)"/>
      <path data-name="Path 96" class="cl-icon-timeout-6" d="M2559.518,2703a49.515,49.515,0,0,0-1.531,11.779c.059,5.418,1.59,6.92,1.59,6.92Z" transform="translate(-2482.659 -2623.413)"/>
      <path data-name="Path 97" class="cl-icon-timeout-9" d="M2932,3601.751s1.031-1.148,4.83-1.031,5.536,1.62,5.536,1.62A24.341,24.341,0,0,0,2932,3601.751Z" transform="translate(-2845.659 -3494.69)"/>
      <path data-name="Path 98" class="cl-icon-timeout-4" d="M3020,3692a2.966,2.966,0,0,0,2.062,1.119,6.692,6.692,0,0,0,2.061.118S3021.031,3695.092,3020,3692Z" transform="translate(-2931.068 -3583.29)"/>
      <path data-name="Path 99" class="cl-icon-timeout-8" d="M1981.382,4253.653c-1.031-1.3-19.376-4.653-19.376-4.653l-17.639,14.135L1926.727,4249s-18.346,3.357-19.376,4.653,5.418,98.855,7.568,99.062c5.948.56,18.169,1.266,30.272,1.266,11.72,0,23.5-.766,29.065-1.325C1976.14,4352.449,1982.413,4254.948,1981.382,4253.653Z" transform="translate(-1851.077 -4123.887)"/>
      <path data-name="Path 100" class="cl-icon-timeout-7" d="M3971.535,4320c.147,4.152,1.09,33.394,0,56.746-.736,15.46-2.945,33.6-4.535,45.349,2.532-.177,4.711-.354,6.361-.53,1.885-.206,8.157-97.707,7.126-99C3980.016,4321.973,3975.864,4320.942,3971.535,4320Z" transform="translate(-3850.182 -4192.796)"/>
      <path data-name="Path 101" class="cl-icon-timeout-7" d="M3546.685,4249l-3.828,3.063c-.236,11.4-.766,36.279-.766,49.178,0,13.4-1.472,41.2-2.091,52.563,2.68-.088,5.242-.206,7.627-.324.824-10.689,2.562-34.954,2.562-49.825,0-16.491.236-45.379.294-53.948C3548.245,4249.265,3546.685,4249,3546.685,4249Z" transform="translate(-3435.756 -4123.887)"/>
      <path data-name="Path 102" class="cl-icon-timeout-7" d="M1917.224,4320c-.118,4.152-1.089,33.394.029,56.746.736,15.46,2.945,33.6,4.535,45.349-2.532-.177-4.741-.354-6.361-.53-1.885-.206-8.186-97.707-7.156-99C1908.743,4321.973,1912.9,4320.942,1917.224,4320Z" transform="translate(-1851.968 -4192.796)"/>
      <path data-name="Path 103" class="cl-icon-timeout-7" d="M2445.8,4249l3.8,3.063c.265,11.4.766,36.279.766,49.178,0,13.4,1.472,41.2,2.12,52.563-2.68-.088-5.242-.206-7.627-.324-.825-10.689-2.592-34.954-2.592-49.825,0-16.491-.206-45.379-.265-53.948C2444.238,4249.265,2445.8,4249,2445.8,4249Z" transform="translate(-2370.089 -4123.887)"/>
      <path data-name="Path 104" class="cl-icon-timeout-7" d="M3016.27,4673.292c1.678,0,3.357-.029,5.006-.029l-.265-95.263-5.565,4.446-3.092-2.474-.353.089v93.2C3013.413,4673.292,3014.827,4673.292,3016.27,4673.292Z" transform="translate(-2923.304 -4443.199)"/>
      <path data-name="Path 105" class="cl-icon-timeout-5" d="M3163.519,4083,3148,4101.994l6.449,8.216,14.606-21.938Z" transform="translate(-3055.299 -3962.775)"/>
      <path data-name="Path 106" class="cl-icon-timeout-5" d="M2446.565,4090l15.283,18.994L2455.4,4117l-14.4-21.85Z" transform="translate(-2369.119 -3969.569)"/>
      <path id="Path_107" data-name="Path 107" class="cl-icon-timeout-8" d="M3183.044,970.072s38.046-80.568,37.015-82.129c-1.031-1.531-66.021-49.943-66.021-49.943a67.1,67.1,0,0,0-5.065,6.125L3147,846.952s55.42,39.283,56.186,45.349c.235,1.855-20.142,50.179-20.142,50.179Z" transform="translate(-3054.329 -813.333)"/>
      <path data-name="Path 108" class="cl-icon-timeout-7" d="M3376.79,889.121c0-4.594-66.492-51.121-66.492-51.121s-1.031,1.09-2.3,2.591c0,0,62.753,45.408,62.753,48.471,0,10.366-31.862,73.207-31.862,73.207l.118,14.665S3376.79,905.523,3376.79,889.121Z" transform="translate(-3210.588 -813.333)"/>
      <path id="Path_109" data-name="Path 109" class="cl-icon-timeout-7" d="M3217.1,1090.35c-.236-3.239-54.242-42.345-58.954-46.35l-2.15,3.151s53.506,40.049,53.918,44.2c.618,5.86-22.233,50.031-22.233,50.031l2.886,9.571C3198.316,1139.793,3217.28,1092.441,3217.1,1090.35Z" transform="translate(-3063.063 -1013.267)"/>
      <path data-name="Path 110" class="cl-icon-timeout-5" d="M3134,837.188a16.557,16.557,0,0,1,3.475-5.33,17.571,17.571,0,0,1,4.387-3.858l5.477,4.211a47.593,47.593,0,0,0-4.447,4.888c-1.944,2.5-3.622,4.594-3.622,4.594Z" transform="translate(-3041.711 -803.627)"/>
      <path data-name="Path 111" class="cl-icon-timeout-10" d="M1985.933,7796.442c1.708-15.431,7.45-63.666,7.45-65.138s-4.888-30.6-4.888-30.6l-1.207-1.708a192.562,192.562,0,0,1-61.162,0l-1.237,1.708s-4.888,29.124-4.888,30.6,4.034,49.708,5.742,65.138c1.708,15.4,2.915,20.76,2.915,20.76l14.871,1.3,13.045-1.8,16.962,1.531,9.57-1.031S1984.225,7811.843,1985.933,7796.442Z" transform="translate(-1863.461 -7472.293)"/>
      <path data-name="Path 112" class="cl-icon-timeout-11" d="M2099.188,7826.525l22.321,1.03c.412-2.68,1.266-9.1,2.385-20.5,1.531-15.784,6.655-65.2,6.655-66.7s-4.358-31.333-4.358-31.333l-.029-.029a231.555,231.555,0,0,1-28.741,2.15,227.747,227.747,0,0,1-28.063-2.062c-.118.972-4.358,29.8-4.358,31.273,0,1.5,3.622,50.915,5.153,66.7,1.089,11.337,1.973,17.757,2.356,20.466l21-.972Z" transform="translate(-2004.191 -7481.999)"/>
      <path data-name="Path 113" class="cl-icon-timeout-8" d="M3116.593,8939.014c0,3.563-1.59,58.012-1.59,60.956s.53,9.57.53,9.57l-2.532.118s1.413-67.229,1.885-71.146a21.052,21.052,0,0,1,4.623-10.513S3116.593,8934.213,3116.593,8939.014Z" transform="translate(-3021.33 -8665.103)"/>
      <path data-name="Path 114" class="cl-icon-timeout-5" d="M2100.55,7845c-2.356.294-7.3.913-13.6,1.414v6.538c8.245-.442,13.369-1.061,14.724-1.237C2101.228,7849.064,2100.815,7846.679,2100.55,7845Zm-45.32,1.885v6.184c4.182.206,8.893.324,14.046.324,4.476,0,8.54-.088,12.162-.206v-6.39c-4,.236-8.392.383-12.868.383C2063.859,7847.179,2059.324,7847.062,2055.23,7846.885Zm-19.671,1.208c-.177,1-.353,2.12-.56,3.269,1.119.147,6.42.883,14.724,1.414v-6.184c-8.157-.5-13.546-1.119-13.546-1.119Z" transform="translate(-1975.074 -7613.994)"/>
      <path data-name="Path 115" class="cl-icon-timeout-10" d="M2279,11704.883s4.564,52.594,3.534,63.96,19.141,5.183,19.141,5.183l2.032-46.085-1.355-23.94Z" transform="translate(-2211.889 -11359.355)"/>
      <path data-name="Path 116" class="cl-icon-timeout-11" d="M2336,11704.029s3.917,53.447,3.063,64.813c-.383,5.095,2.8,6.655,6.419,6.832.206,0,.412.029.619.029a30.739,30.739,0,0,0,9.07-1.679l1.708-46.085-.972-23.94-10.189.883Z" transform="translate(-2267.21 -11359.355)"/>
      <path data-name="Path 117" class="cl-icon-timeout-5" d="M1588.93,13798.033s2.562,8.275,2.562,13.988c0,5.684-1.531,9.806-5.153,11.9a30.609,30.609,0,0,0-10.513,9.688c-3.092,4.653-22.763,4.653-27.916,2.062-5.183-2.562-4.152-8.775,2.591-15.52,6.714-6.714,15.136-11.749,16.7-18.492,1.561-6.715,3.622-7.745,8.775-7.244,5.183.529,3.121,7.244,5.713,7.244C1584.248,13801.656,1587.37,13801.656,1588.93,13798.033Z" transform="translate(-1499.145 -13388.104)"/>
      <path data-name="Path 118" class="cl-icon-timeout-7" d="M2276.59,11697.316c.088,1.061.177,2.149.265,3.239a54.686,54.686,0,0,0,12.191.029,42.072,42.072,0,0,0,10.483-2.356l-.147-2.768c-.854.265-4.034,1.061-11.161,1.59A102.979,102.979,0,0,1,2276.59,11697.316Zm11.013-5.448c-4.888.147-9.777.324-11.455.383.059.618.118,1.267.177,1.914,2.032.03,7.038.089,11.69-.235a80.226,80.226,0,0,0,11.19-1.619l-.206-3.5v1.178A48.869,48.869,0,0,1,2287.6,11691.868Zm-12.6-12.1s.206,2.091.53,5.477c.766.03,4.123.147,10.631-.059a67.6,67.6,0,0,0,12.574-1.295l-.294-4.889a100.4,100.4,0,0,1-14.37,1.178C2277.444,11680.295,2275,11679.766,2275,11679.766Zm.766,8.245c.059.618.118,1.3.177,1.973,2.12-.029,7.126-.117,11.455-.412,4.594-.294,11.161-1.384,11.573-1.442l-.088-1.591c-1.62.206-6.508.825-11.278,1.179C2282.892,11688.04,2277.65,11688.011,2275.766,11688.011Z" transform="translate(-2208.007 -11335.092)"/>
      <path data-name="Path 119" class="cl-icon-timeout-10" d="M3211.707,11698.412s-4.564,52.27-3.534,63.637-19.141,5.183-19.141,5.183l-2.032-46.085,1.384-24.147Z" transform="translate(-3093.151 -11352.561)"/>
      <path data-name="Path 120" class="cl-icon-timeout-11" d="M3280.143,11700.795s-4.182,52.8-3.3,64.166c.383,5.095-2.8,6.655-6.449,6.832-.177,0-.383.029-.589.029a30.774,30.774,0,0,1-9.07-1.679l-1.737-46.085,1.354-24.059,10.071,1.442Z" transform="translate(-3163.031 -11355.474)"/>
      <path data-name="Path 121" class="cl-icon-timeout-5" d="M3170.592,13798.033s-2.592,8.275-2.592,13.988c0,5.684,1.561,9.806,5.183,11.9a30.286,30.286,0,0,1,10.483,9.688c3.121,4.653,22.763,4.653,27.946,2.062,5.153-2.562,4.123-8.775-2.591-15.52-6.714-6.714-15.166-11.749-16.7-18.492-1.561-6.715-3.622-7.745-8.8-7.244-5.153.529-3.092,7.244-5.684,7.244S3172.152,13801.656,3170.592,13798.033Z" transform="translate(-3074.71 -13388.104)"/>
      <path data-name="Path 122" class="cl-icon-timeout-7" d="M3208.308,11697.051c-7.126-.529-10.306-1.325-11.16-1.59l-.147,2.768a41.731,41.731,0,0,0,10.483,2.356,54.357,54.357,0,0,0,12.162-.029c.118-1.09.206-2.179.294-3.239A102.98,102.98,0,0,1,3208.308,11697.051Zm-10.778-7.067v-1.178l-.206,3.5a80.232,80.232,0,0,0,11.19,1.619c4.653.324,9.629.266,11.691.235.059-.647.118-1.3.147-1.914-1.649-.059-6.537-.235-11.426-.383A48.869,48.869,0,0,1,3197.53,11689.983Zm14.9-9.806a101.37,101.37,0,0,1-14.37-1.178l-.265,4.889a66.835,66.835,0,0,0,12.574,1.295c6.508.206,9.865.089,10.63.059.324-3.386.5-5.477.5-5.477S3219.085,11680.295,3212.43,11680.178Zm-3.5,7.539c-4.771-.354-9.688-.973-11.279-1.179l-.088,1.591c.383.059,6.949,1.148,11.573,1.442,4.329.295,9.335.383,11.426.412.059-.677.118-1.354.177-1.973C3218.879,11688.011,3213.608,11688.04,3208.926,11687.717Z" transform="translate(-3102.856 -11335.092)"/>
      <path data-name="Path 123" class="cl-icon-timeout-2" d="M2908.1,33.727s19.583-11.161,23.087-13.929c1.855-1.472-1-2.444-1-2.444s8.8-6.92,9.924-8.746a2.622,2.622,0,0,0,.236-2.8s2.061-1.826,1.354-3.121c-.766-1.413-2.68-.648-2.68-.648s-.677-1.8-3.122-1.266c-2.444.56-4.3,1.06-4.3,1.06s-1.59-1.178-5.418.412c-5.065,2.091-15.136,10.866-17.256,13.1S2900,25.334,2900,25.334,2903.887,32.755,2908.1,33.727Z" transform="translate(-2814.602 -0.667)"/>
      <path data-name="Path 124" class="cl-icon-timeout-3" d="M2952.606,2.041s1.914-.766,2.68.648c.707,1.3-1.354,3.121-1.354,3.121a2.622,2.622,0,0,1-.236,2.8c-1.119,1.826-9.924,8.746-9.924,8.746a4.124,4.124,0,0,1,1.266.766c.383.736-1.8,2-5.595,4.329-3.062,1.885-14.341,8.245-18.905,10.837-2.945-1.443-5.566-5.536-6.537-7.215a160.845,160.845,0,0,1,18.994-18.64,45.142,45.142,0,0,1,9.688-5.978,3.8,3.8,0,0,1,2.5.383s1.855-.5,4.3-1.06C2951.928.245,2952.606,2.041,2952.606,2.041Z" transform="translate(-2828.19 -0.667)"/>
      <path data-name="Path 125" class="cl-icon-timeout-4" d="M3649.875,577s-1.826.059-5.831,2.562a15.9,15.9,0,0,0-1.8,1.178c-.56.618,1.06.206,2.326-.736A28.867,28.867,0,0,1,3649.875,577Z" transform="translate(-3534.883 -560.019)"/>
      <path data-name="Path 126" class="cl-icon-timeout-4" d="M3424.009,686.364s-.088-.353-.854-.56a10.908,10.908,0,0,0-3.593-.177c-2.208.265-2.562.8-2.562.8A18.626,18.626,0,0,1,3424.009,686.364Z" transform="translate(-3316.378 -665.377)"/>
      <path data-name="Path 127" class="cl-icon-timeout-4" d="M3823.2,190s-4.181,2.65-7.244,4.564c-2.179,1.384-4.417,2.5-5.389,3.092-.471.294-.147.412-.147.412A50.071,50.071,0,0,0,3823.2,190Z" transform="translate(-3698.109 -184.415)"/>
      <path data-name="Path 128" class="cl-icon-timeout-4" d="M3749.046,65s-6.243,3.8-8.363,5.212c-1.5.972-4,2.591-5.153,3.5-.471.353-.53-.029-.53-.029A46.427,46.427,0,0,1,3749.046,65Z" transform="translate(-3625.013 -63.096)"/>
      <path data-name="Path 129" class="cl-icon-timeout-4" d="M3642.685,66a16.631,16.631,0,0,0-5.418,2.5,21.217,21.217,0,0,0-3.681,2.827c-.206.206.088.412.088.412S3639.122,67.944,3642.685,66Z" transform="translate(-3526.515 -64.066)"/>
      <path data-name="Path 130" class="cl-icon-timeout-4" d="M3645.037,268.715a19.4,19.4,0,0,0-2.326-4.211A12.15,12.15,0,0,0,3639,261,42.887,42.887,0,0,1,3645.037,268.715Z" transform="translate(-3531.84 -253.324)"/>
      <path data-name="Path 131" class="cl-icon-timeout-8" d="M702.877,970.072s-38.576-80.863-37.546-82.394C666.362,886.117,731.853,838,731.853,838a65.2,65.2,0,0,1,5.094,6.125l1.944,2.827s-55.921,39.018-56.716,45.084c-.236,1.855,20.7,50.444,20.7,50.444Z" transform="translate(-645.719 -813.333)"/>
      <path data-name="Path 132" class="cl-icon-timeout-7" d="M657,888.414C657,883.791,723.787,838,723.787,838s1.06,1.09,2.3,2.591c0,0-63.283,45.143-63.283,48.206,0,10.365,32.657,73.177,32.657,73.177l.736,16.667S657,904.816,657,888.414Z" transform="translate(-637.653 -813.333)"/>
      <path data-name="Path 133" class="cl-icon-timeout-7" d="M1061.973,1090.085c.265-3.269,54.8-42.081,59.484-46.085,1.737,2.5,2.15,3.151,2.15,3.151s-54.036,39.784-54.448,43.936c-.589,5.86,22.792,50.3,22.792,50.3l-2.886,9.571C1081.32,1139.793,1061.825,1092.176,1061.973,1090.085Z" transform="translate(-1030.699 -1013.267)"/>
      <path data-name="Path 134" class="cl-icon-timeout-5" d="M2738.31,837.188a16.557,16.557,0,0,0-3.475-5.33,16.952,16.952,0,0,0-4.388-3.858L2725,832.211a51.724,51.724,0,0,1,4.447,4.888c1.943,2.5,3.593,4.594,3.593,4.594Z" transform="translate(-2644.755 -803.627)"/>
      <path data-name="Path 135" class="cl-icon-timeout-12" d="M6632.876,14523.607c0,3.8-13.458,17.286-33.217,17.257-19.759-.06-34.66-14.4-34.66-17.374s12.986-17.521,33.982-17.492S6632.906,14519.838,6632.876,14523.607Z" transform="translate(-6371.677 -14078.842)"/>
      <path data-name="Path 136" class="cl-icon-timeout-13" d="M7350.377,15006.059v1.649h-2.65v-1.679h-2.444v1.679h-2.621v-1.679h-2.474v1.679h-2.621v-1.679h-2.473v1.679h-2.621V15006H7330v5.742h2.473v-1.707h2.621v1.737h2.444v-1.737h2.65v1.737h2.474v-1.737h2.621v1.767h2.444v-1.767h2.65v1.767h2.444l.03-5.743Z" transform="translate(-7114.149 -14564.12)"/>
      <path data-name="Path 137" class="cl-icon-timeout-13" d="M6933.673,14684v24.5c1.119-.618,2.179-1.236,3.21-1.885v-20.73C6935.882,14685.236,6934.792,14684.589,6933.673,14684ZM6888,14705.762c1,.647,2.062,1.295,3.21,1.914v-23.5c-1.148.618-2.209,1.3-3.21,1.943Z" transform="translate(-6685.166 -14251.603)"/>
    </g>
  </g>
</svg>
