<svg class="cl-icon-photo-upload" xmlns="http://www.w3.org/2000/svg" viewBox="-10221.5 3784.5 91 91">
  <defs>
    <style>
      .cl-icon-photo-upload-1 {
        fill: #fcfcfc;
      }

      .cl-icon-photo-upload-1, .cl-icon-photo-upload-3 {
        stroke: #666;
      }

      .cl-icon-photo-upload-2 {
        fill: #666;
      }

      .cl-icon-photo-upload-2, .cl-icon-photo-upload-3 {
        fill-rule: evenodd;
      }

      .cl-icon-photo-upload-3 {
        fill: none;
        stroke-linecap: square;
      }
    </style>
  </defs>
  <g data-name="Group 112" transform="translate(-12327.5 -2592)">
    <circle data-name="Ellipse 32" class="cl-icon-photo-upload-1" cx="45" cy="45" r="45" transform="translate(2106.5 6377)"/>
    <g data-name="Group 111" transform="translate(-101.5)">
      <path data-name="Intersection 1" class="cl-icon-photo-upload-1" d="M14.351,77.949c.651-3.634,1.8-7.507,3.809-9.549,3.733-3.786,12.533-6.224,20.082-7.147a23.061,23.061,0,0,0,.688-3.459,18.426,18.426,0,0,0-.559-2.957C32.3,52.2,26.108,45.426,26.108,37.471a17.477,17.477,0,0,1,.4-3.7c.187-4.974,2.78-7.276,5.6-10.65.105-.144.134.073.167.291a.7.7,0,0,0,.095.324q.232-.213.47-.417c.263-.262.535-.511.81-.755.069-.06.134-.125.2-.183.347-.3.707-.574,1.075-.839.062-.046.124-.095.187-.138.383-.268.775-.513,1.174-.743l.157-.092q.625-.348,1.277-.635c.039-.017.078-.035.118-.05a13.668,13.668,0,0,1,1.373-.513,14.047,14.047,0,0,1,1.54-.392,14.319,14.319,0,0,1,1.582-.217c.369-.03.733-.068,1.1-.068,7.621,0,15.135,4.615,17.321,12.526a17.668,17.668,0,0,1,1.149,6.248c0,7.959-6.2,14.732-12.276,17.374a16.949,16.949,0,0,0-.6,2.95,19.046,19.046,0,0,0,.68,3.232c7.789.664,18.57,3.057,22.007,7.374,1.768,2.219,2.891,6.167,3.592,9.863a45,45,0,0,1-60.957-.314Z" transform="translate(2208.149 6377)"/>
      <path class="cl-icon-photo-upload-2" d="M47.883-16.161c-.065,5.244-2.719,7.576-5.608,11.036-.208.285-.117-.848-.361-.589-.067.07-.131.148-.2.218-.315.327-.645.631-.981.929-.069.06-.134.125-.2.183-.347.3-.707.574-1.076.839-.061.046-.124.094-.187.138-.383.268-.775.512-1.175.743l-.156.092q-.625.348-1.276.635c-.039.017-.079.035-.118.051a13.884,13.884,0,0,1-1.373.512,13.952,13.952,0,0,1-1.54.392,14.069,14.069,0,0,1-1.582.217c-.37.03-.733.069-1.1.069-8.9,0-17.65-6.291-17.947-16.774l9.339,9.385Z" transform="translate(2282.883 6395) rotate(180)"/>
      <path class="cl-icon-photo-upload-3" d="M19.853,44.054s-3.431,9.881,10.328,9.881,11.156-9.881,11.156-9.881" transform="translate(2222.027 6395)"/>
    </g>
  </g>
</svg>
