<svg class="cl-icon-wallet" xmlns="http://www.w3.org/2000/svg" viewBox="0 0 50 42.856">
  <defs>
    <style>
      .cl-icon-wallet-1 {
        fill: #fff;
      }
    </style>
  </defs>
  <g transform="translate(-8 -966.362)">
    <path data-name="Path 275" class="cl-icon-wallet-1" d="M12.762,966.362A4.778,4.778,0,0,0,8,971.124v33.929a4.184,4.184,0,0,0,4.167,4.167H53.833A4.184,4.184,0,0,0,58,1005.052V977.672a4.184,4.184,0,0,0-4.167-4.167H50.857v-5.952a1.237,1.237,0,0,0-1.19-1.19Zm0,2.381H48.476V973.5H12.762a2.381,2.381,0,0,1,0-4.762Zm-2.381,6.492a4.723,4.723,0,0,0,2.381.651c13.407-.012,29.548,0,41.071,0a1.756,1.756,0,0,1,1.786,1.786v5.952H38.357a3,3,0,0,0-2.976,2.976v9.524a3,3,0,0,0,2.976,2.976H55.619v5.952a1.756,1.756,0,0,1-1.786,1.786H12.167a1.756,1.756,0,0,1-1.786-1.786ZM38.357,986H55.619v10.714H38.357a.57.57,0,0,1-.6-.6V986.6A.57.57,0,0,1,38.357,986Zm5.952,2.362a2.976,2.976,0,1,0,2.976,2.976A2.994,2.994,0,0,0,44.31,988.367Zm0,2.381a.6.6,0,1,1-.6.6A.578.578,0,0,1,44.31,990.748Z" transform="translate(0 0)"/>
  </g>
</svg>
