<svg xmlns="http://www.w3.org/2000/svg" viewBox="470.462 1354.31 62.695 83.038">
  <defs>
    <style>
      .cls-1 {
        fill: #f15e23;
        stroke: #f15e23;
      }

      .cls-1, .cls-2 {
        stroke-linecap: square;
      }

      .cls-1, .cls-2, .cls-6 {
        fill-rule: evenodd;
      }

      .cls-2, .cls-4, .cls-6 {
        fill: none;
        stroke: #333;
      }

      .cls-3 {
        fill: #fff;
      }

      .cls-5 {
        fill: #333;
      }
    </style>
  </defs>
  <g id="Group_13" data-name="Group 13" transform="translate(-3700 382)">
    <g id="Coach_-Trainer_-Instructor" data-name="Coach,-Trainer,-Instructor" transform="translate(4171 973)">
      <path id="Path-9-Copy" class="cls-1" d="M5.989,16.971s1.635-7.309,6.685-12.14S25.6,0,25.6,0s5.181,4.282,6.669,8.883A67.159,67.159,0,0,1,34.49,18.75l-28.555.087Z"/>
      <path id="Path-10-Copy" class="cls-1" d="M28.686,0s4.909,5.533,5.88,8.114A59.914,59.914,0,0,1,36.4,16.8a47.45,47.45,0,0,1,4.63-4.67A20.573,20.573,0,0,1,44.388,10.7s-.978-4.975-4.481-7.278S28.686,0,28.686,0Z"/>
      <path id="Path-11-Copy" class="cls-1" d="M38.578,18.1a28.641,28.641,0,0,1,4.461-3.96,39.961,39.961,0,0,1,4.146-2.389l13.639.381a2.144,2.144,0,0,1,.468,2.793c-.887,1.832-1.009,3.121-2.347,3.121S38.578,18.1,38.578,18.1Z"/>
      <path id="Path-12-Copy" class="cls-2" d="M6.436,19.351S4.416,25.4,5.08,30.224,7.536,37.5,8.148,40.263a43.2,43.2,0,0,1,.739,5.084c.056.62,20.8,6.424,20.8,6.424s-1.141-4.341-.1-5.694,8.207-.918,9.777-1.778a10.4,10.4,0,0,0,4.526-4.886c1.8-3.99,2.026-9.407,2.371-11.544a47.825,47.825,0,0,0,.03-9.268"/>
      <path id="Path-14-Copy" class="cls-2" d="M6.09,50.91a27.9,27.9,0,0,0-3.978,6.26C1.062,59.947,0,67.153,0,67.153s9.222,6.832,19.663,8.2,24.86-3.225,24.86-3.225-3.89-6.266-6.306-9.846a47.288,47.288,0,0,0-6.975-7.5Z"/>
      <path id="Path-13-Copy" class="cls-1" d="M8.814,45.857l-2.54,4.849s23.943,7.818,27.532,8.022-4.09-6.692-4.09-6.692Z"/>
      <g id="Group-15" transform="translate(26.025 51.018)">
        <g id="Oval-2">
          <ellipse id="Ellipse_13" data-name="Ellipse 13" class="cls-3" cx="15.827" cy="15.665" rx="15.827" ry="15.665" transform="translate(0 0)"/>
          <ellipse id="Ellipse_14" data-name="Ellipse 14" class="cls-4" cx="15.327" cy="15.165" rx="15.327" ry="15.165" transform="translate(0.5 0.5)"/>
        </g>
        <g id="Group-4" transform="translate(5.552 6.456)">
          <path id="Path-15" class="cls-1" d="M1.906,9.857H8.62s-1.05,6.917,5.161,6.917a5.341,5.341,0,0,0,5.748-5.4,4.709,4.709,0,0,0-2.434-4.148C15.1,6.082,12.013,6.5,12.013,6.5L11.979,7.88H10.253L8.371,6.122,0,5.976Z"/>
          <g id="Path-16">
            <path id="Path_31" data-name="Path 31" class="cls-5" d="M5.07,6.052V9.877H1.914L.01,6.052Z"/>
            <path id="Path_32" data-name="Path 32" class="cls-6" d="M4.57,6.552H.817L2.224,9.377H4.57Z"/>
          </g>
          <path id="Path-17" class="cls-2" d="M13.732,14.658A3.733,3.733,0,0,0,15.816,14a4.946,4.946,0,0,0,1.325-2"/>
          <path id="Line" class="cls-2" d="M11.567,4.15l1.655-3.3"/>
          <path id="Line-2" data-name="Line" class="cls-2" d="M9.716,4.15V.461"/>
        </g>
      </g>
    </g>
  </g>
</svg>
